<?xml version="1.0" encoding="UTF-8" standalone="no"?>
<!-- Created with Inkscape (http://www.inkscape.org/) -->

<svg
   xmlns:dc="http://purl.org/dc/elements/1.1/"
   xmlns:cc="http://creativecommons.org/ns#"
   xmlns:rdf="http://www.w3.org/1999/02/22-rdf-syntax-ns#"
   xmlns:svg="http://www.w3.org/2000/svg"
   xmlns="http://www.w3.org/2000/svg"
   xmlns:sodipodi="http://sodipodi.sourceforge.net/DTD/sodipodi-0.dtd"
   xmlns:inkscape="http://www.inkscape.org/namespaces/inkscape"
   id="svg2"
   version="1.1"
   inkscape:version="0.91 r13725"
   xml:space="preserve"
   width="577.5"
   height="333.75"
   viewBox="0 0 577.5 333.75"
   sodipodi:docname="Paper-biplots-5-edit2.svg"><metadata
     id="metadata8"><rdf:RDF><cc:Work
         rdf:about=""><dc:format>image/svg+xml</dc:format><dc:type
           rdf:resource="http://purl.org/dc/dcmitype/StillImage" /><dc:title></dc:title></cc:Work></rdf:RDF></metadata><defs
     id="defs6"><clipPath
       clipPathUnits="userSpaceOnUse"
       id="clipPath18"><path
         d="M 0,0 468,0 468,468 0,468 0,0 Z"
         id="path20"
         inkscape:connector-curvature="0" /></clipPath><clipPath
       clipPathUnits="userSpaceOnUse"
       id="clipPath48"><path
         d="m 0,96.89 468,0 0,274.23 -468,0 0,-274.23 z"
         id="path50"
         inkscape:connector-curvature="0" /></clipPath><clipPath
       clipPathUnits="userSpaceOnUse"
       id="clipPath60"><path
         d="m 34.05,127.14 428.47,0 0,219.95 -428.47,0 0,-219.95 z"
         id="path62"
         inkscape:connector-curvature="0" /></clipPath></defs><sodipodi:namedview
     pagecolor="#ffffff"
     bordercolor="#666666"
     borderopacity="1"
     objecttolerance="10"
     gridtolerance="10"
     guidetolerance="10"
     inkscape:pageopacity="0"
     inkscape:pageshadow="2"
     inkscape:window-width="1873"
     inkscape:window-height="1056"
     id="namedview4"
     showgrid="false"
     inkscape:zoom="1.2363636"
     inkscape:cx="278.34517"
     inkscape:cy="68.51085"
     inkscape:window-x="47"
     inkscape:window-y="24"
     inkscape:window-maximized="1"
     inkscape:current-layer="g10" /><g
     id="g10"
     inkscape:groupmode="layer"
     inkscape:label="Paper-biplots-5"
     transform="matrix(1.25,0,0,-1.25,0,333.75)"><g
       id="g12"
       transform="translate(-1,-99)"><g
         id="g14"><g
           id="g16"
           clip-path="url(#clipPath18)"><g
             id="g22" /><g
             id="g24" /><g
             id="g26" /><g
             id="g28" /><g
             id="g30" /><g
             id="g32" /><g
             id="g34" /><g
             id="g36" /><g
             id="g38" /><g
             id="g40" /><g
             id="g42" /><g
             id="g44"><g
               id="g46"
               clip-path="url(#clipPath48)"><path
                 d="m 0,96.89 468,0 0,274.23 -468,0 0,-274.23 z"
                 style="fill:#ffffff;fill-opacity:1;fill-rule:nonzero;stroke:#ffffff;stroke-width:1.07000005;stroke-linecap:round;stroke-linejoin:round;stroke-miterlimit:10;stroke-dasharray:none;stroke-opacity:1"
                 id="path52"
                 inkscape:connector-curvature="0" /></g></g><g
             id="g54" /><g
             id="g56"><g
               id="g58"
               clip-path="url(#clipPath60)"><path
                 d="m 34.05,127.14 428.47,0 0,219.95 -428.47,0 0,-219.95 z"
                 style="fill:#ffffff;fill-opacity:1;fill-rule:nonzero;stroke:none"
                 id="path64"
                 inkscape:connector-curvature="0" /><path
                 d="m 275.18,232.61 99.5,36.54"
                 style="fill:none;stroke:#000000;stroke-width:1.07000005;stroke-linecap:butt;stroke-linejoin:round;stroke-miterlimit:10;stroke-dasharray:none;stroke-opacity:1"
                 id="path66"
                 inkscape:connector-curvature="0" /><path
                 d="m 371.96,265.89 2.72,3.26 -4.19,0.73"
                 style="fill:none;stroke:#000000;stroke-width:1.07000005;stroke-linecap:butt;stroke-linejoin:round;stroke-miterlimit:10;stroke-dasharray:none;stroke-opacity:1"
                 id="path68"
                 inkscape:connector-curvature="0" /><path
                 d="m 275.18,232.61 72.39,-19.75"
                 style="fill:none;stroke:#000000;stroke-width:1.07000005;stroke-linecap:butt;stroke-linejoin:round;stroke-miterlimit:10;stroke-dasharray:none;stroke-opacity:1"
                 id="path70"
                 inkscape:connector-curvature="0" /><path
                 d="m 343.46,211.78 4.11,1.08 -2.99,3.02"
                 style="fill:none;stroke:#000000;stroke-width:1.07000005;stroke-linecap:butt;stroke-linejoin:round;stroke-miterlimit:10;stroke-dasharray:none;stroke-opacity:1"
                 id="path72"
                 inkscape:connector-curvature="0" /><path
                 d="m 275.18,232.61 25.85,-47.25"
                 style="fill:none;stroke:#000000;stroke-width:1.07000005;stroke-linecap:butt;stroke-linejoin:round;stroke-miterlimit:10;stroke-dasharray:none;stroke-opacity:1"
                 id="path74"
                 inkscape:connector-curvature="0" /><path
                 d="m 297.4,187.57 3.63,-2.21 0.1,4.25"
                 style="fill:none;stroke:#000000;stroke-width:1.07000005;stroke-linecap:butt;stroke-linejoin:round;stroke-miterlimit:10;stroke-dasharray:none;stroke-opacity:1"
                 id="path76"
                 inkscape:connector-curvature="0" /><path
                 d="M 275.18,232.61 249.03,180.88"
                 style="fill:none;stroke:#000000;stroke-width:1.07000005;stroke-linecap:butt;stroke-linejoin:round;stroke-miterlimit:10;stroke-dasharray:none;stroke-opacity:1"
                 id="path78"
                 inkscape:connector-curvature="0" /><path
                 d="m 248.79,185.13 0.24,-4.25 3.56,2.33"
                 style="fill:none;stroke:#000000;stroke-width:1.07000005;stroke-linecap:butt;stroke-linejoin:round;stroke-miterlimit:10;stroke-dasharray:none;stroke-opacity:1"
                 id="path80"
                 inkscape:connector-curvature="0" /><path
                 d="M 275.18,232.61 217.62,206.14"
                 style="fill:none;stroke:#000000;stroke-width:1.07000005;stroke-linecap:butt;stroke-linejoin:round;stroke-miterlimit:10;stroke-dasharray:none;stroke-opacity:1"
                 id="path82"
                 inkscape:connector-curvature="0" /><path
                 d="m 220.08,209.61 -2.46,-3.47 4.24,-0.4"
                 style="fill:none;stroke:#000000;stroke-width:1.07000005;stroke-linecap:butt;stroke-linejoin:round;stroke-miterlimit:10;stroke-dasharray:none;stroke-opacity:1"
                 id="path84"
                 inkscape:connector-curvature="0" /><path
                 d="m 275.18,232.61 -90.93,19.9"
                 style="fill:none;stroke:#000000;stroke-width:1.07000005;stroke-linecap:butt;stroke-linejoin:round;stroke-miterlimit:10;stroke-dasharray:none;stroke-opacity:1"
                 id="path86"
                 inkscape:connector-curvature="0" /><path
                 d="m 188.3,253.8 -4.05,-1.29 3.14,-2.87"
                 style="fill:none;stroke:#000000;stroke-width:1.07000005;stroke-linecap:butt;stroke-linejoin:round;stroke-miterlimit:10;stroke-dasharray:none;stroke-opacity:1"
                 id="path88"
                 inkscape:connector-curvature="0" /><path
                 d="m 275.18,232.61 -23.13,88.74"
                 style="fill:none;stroke:#000000;stroke-width:1.07000005;stroke-linecap:butt;stroke-linejoin:round;stroke-miterlimit:10;stroke-dasharray:none;stroke-opacity:1"
                 id="path90"
                 inkscape:connector-curvature="0" /><path
                 d="m 255.04,318.32 -2.99,3.03 -1.13,-4.1"
                 style="fill:none;stroke:#000000;stroke-width:1.07000005;stroke-linecap:butt;stroke-linejoin:round;stroke-miterlimit:10;stroke-dasharray:none;stroke-opacity:1"
                 id="path92"
                 inkscape:connector-curvature="0" /><path
                 d="m 291.7,238.11 c 0,2.25 1.84,4.09 4.09,4.09 2.24,0 4.08,-1.84 4.08,-4.09 0,-2.25 -1.84,-4.09 -4.08,-4.09 -2.25,0 -4.09,1.84 -4.09,4.09"
                 style="fill:#d89000;fill-opacity:1;fill-rule:nonzero;stroke:#000000;stroke-width:0.70999998;stroke-linecap:round;stroke-linejoin:round;stroke-miterlimit:10;stroke-dasharray:none;stroke-opacity:1"
                 id="path94"
                 inkscape:connector-curvature="0" /><path
                 d="m 300.28,235.54 7.25,0 0,7.25 -7.25,0 0,-7.25 z"
                 style="fill:#d89000;fill-opacity:1;fill-rule:nonzero;stroke:#000000;stroke-width:0.70999998;stroke-linecap:round;stroke-linejoin:round;stroke-miterlimit:10;stroke-dasharray:none;stroke-opacity:1"
                 id="path96"
                 inkscape:connector-curvature="0" /><path
                 d="m 285.19,255.75 c 0,2.25 1.84,4.09 4.09,4.09 2.25,0 4.09,-1.84 4.09,-4.09 0,-2.25 -1.84,-4.09 -4.09,-4.09 -2.25,0 -4.09,1.84 -4.09,4.09"
                 style="fill:#ff62bc;fill-opacity:1;fill-rule:nonzero;stroke:#000000;stroke-width:0.70999998;stroke-linecap:round;stroke-linejoin:round;stroke-miterlimit:10;stroke-dasharray:none;stroke-opacity:1"
                 id="path98"
                 inkscape:connector-curvature="0" /><path
                 d="m 280.11,229.33 7.25,0 0,7.25 -7.25,0 0,-7.25 z"
                 style="fill:#ff62bc;fill-opacity:1;fill-rule:nonzero;stroke:#000000;stroke-width:0.70999998;stroke-linecap:round;stroke-linejoin:round;stroke-miterlimit:10;stroke-dasharray:none;stroke-opacity:1"
                 id="path100"
                 inkscape:connector-curvature="0" /><path
                 d="m 296.91,228.52 5.12,5.13 -5.12,5.12 -5.13,-5.12 5.13,-5.13 z"
                 style="fill:#ff62bc;fill-opacity:1;fill-rule:nonzero;stroke:#000000;stroke-width:0.70999998;stroke-linecap:round;stroke-linejoin:round;stroke-miterlimit:10;stroke-dasharray:none;stroke-opacity:1"
                 id="path102"
                 inkscape:connector-curvature="0" /><path
                 d="m 295.46,259.57 c 0,2.25 1.84,4.09 4.08,4.09 2.25,0 4.09,-1.84 4.09,-4.09 0,-2.25 -1.84,-4.09 -4.09,-4.09 -2.24,0 -4.08,1.84 -4.08,4.09"
                 style="fill:#00bfc4;fill-opacity:1;fill-rule:nonzero;stroke:#000000;stroke-width:0.70999998;stroke-linecap:round;stroke-linejoin:round;stroke-miterlimit:10;stroke-dasharray:none;stroke-opacity:1"
                 id="path104"
                 inkscape:connector-curvature="0" /><path
                 d="m 281.57,239.16 7.25,0 0,7.25 -7.25,0 0,-7.25 z"
                 style="fill:#00bfc4;fill-opacity:1;fill-rule:nonzero;stroke:#000000;stroke-width:0.70999998;stroke-linecap:round;stroke-linejoin:round;stroke-miterlimit:10;stroke-dasharray:none;stroke-opacity:1"
                 id="path106"
                 inkscape:connector-curvature="0" /><path
                 d="m 268.29,231.4 c 0,2.25 1.84,4.09 4.09,4.09 2.25,0 4.09,-1.84 4.09,-4.09 0,-2.25 -1.84,-4.09 -4.09,-4.09 -2.25,0 -4.09,1.84 -4.09,4.09"
                 style="fill:#9590ff;fill-opacity:1;fill-rule:nonzero;stroke:#000000;stroke-width:0.70999998;stroke-linecap:round;stroke-linejoin:round;stroke-miterlimit:10;stroke-dasharray:none;stroke-opacity:1"
                 id="path108"
                 inkscape:connector-curvature="0" /><path
                 d="m 226.47,225.61 7.25,0 0,7.25 -7.25,0 0,-7.25 z"
                 style="fill:#9590ff;fill-opacity:1;fill-rule:nonzero;stroke:#000000;stroke-width:0.70999998;stroke-linecap:round;stroke-linejoin:round;stroke-miterlimit:10;stroke-dasharray:none;stroke-opacity:1"
                 id="path110"
                 inkscape:connector-curvature="0" /><path
                 d="m 266.08,228.19 c 0,2.25 1.84,4.09 4.09,4.09 2.24,0 4.08,-1.84 4.08,-4.09 0,-2.24 -1.84,-4.08 -4.08,-4.08 -2.25,0 -4.09,1.84 -4.09,4.08"
                 style="fill:#39b600;fill-opacity:1;fill-rule:nonzero;stroke:#000000;stroke-width:0.70999998;stroke-linecap:round;stroke-linejoin:round;stroke-miterlimit:10;stroke-dasharray:none;stroke-opacity:1"
                 id="path112"
                 inkscape:connector-curvature="0" /><path
                 d="m 301.31,222.64 7.25,0 0,7.25 -7.25,0 0,-7.25 z"
                 style="fill:#39b600;fill-opacity:1;fill-rule:nonzero;stroke:#000000;stroke-width:0.70999998;stroke-linecap:round;stroke-linejoin:round;stroke-miterlimit:10;stroke-dasharray:none;stroke-opacity:1"
                 id="path114"
                 inkscape:connector-curvature="0" /><path
                 d="m 249.34,228.04 c 0,2.24 1.84,4.08 4.09,4.08 2.25,0 4.09,-1.84 4.09,-4.08 0,-2.25 -1.84,-4.09 -4.09,-4.09 -2.25,0 -4.09,1.84 -4.09,4.09"
                 style="fill:#f8766d;fill-opacity:1;fill-rule:nonzero;stroke:#000000;stroke-width:0.70999998;stroke-linecap:round;stroke-linejoin:round;stroke-miterlimit:10;stroke-dasharray:none;stroke-opacity:1"
                 id="path116"
                 inkscape:connector-curvature="0" /><path
                 d="m 256.69,205.87 7.25,0 0,7.25 -7.25,0 0,-7.25 z"
                 style="fill:#f8766d;fill-opacity:1;fill-rule:nonzero;stroke:#000000;stroke-width:0.70999998;stroke-linecap:round;stroke-linejoin:round;stroke-miterlimit:10;stroke-dasharray:none;stroke-opacity:1"
                 id="path118"
                 inkscape:connector-curvature="0" /><path
                 d="m 213.01,222.19 c 0,2.24 1.84,4.08 4.09,4.08 2.25,0 4.09,-1.84 4.09,-4.08 0,-2.25 -1.84,-4.09 -4.09,-4.09 -2.25,0 -4.09,1.84 -4.09,4.09"
                 style="fill:#00bf7d;fill-opacity:1;fill-rule:nonzero;stroke:#000000;stroke-width:0.70999998;stroke-linecap:round;stroke-linejoin:round;stroke-miterlimit:10;stroke-dasharray:none;stroke-opacity:1"
                 id="path120"
                 inkscape:connector-curvature="0" /><path
                 d="m 241.81,216.85 7.25,0 0,7.25 -7.25,0 0,-7.25 z"
                 style="fill:#00bf7d;fill-opacity:1;fill-rule:nonzero;stroke:#000000;stroke-width:0.70999998;stroke-linecap:round;stroke-linejoin:round;stroke-miterlimit:10;stroke-dasharray:none;stroke-opacity:1"
                 id="path122"
                 inkscape:connector-curvature="0" /><path
                 d="m 280.72,247.52 c 0,2.25 1.84,4.09 4.08,4.09 2.25,0 4.09,-1.84 4.09,-4.09 0,-2.25 -1.84,-4.09 -4.09,-4.09 -2.24,0 -4.08,1.84 -4.08,4.09"
                 style="fill:#00b0f6;fill-opacity:1;fill-rule:nonzero;stroke:#000000;stroke-width:0.70999998;stroke-linecap:round;stroke-linejoin:round;stroke-miterlimit:10;stroke-dasharray:none;stroke-opacity:1"
                 id="path124"
                 inkscape:connector-curvature="0" /><path
                 d="m 286.55,219.63 7.25,0 0,7.25 -7.25,0 0,-7.25 z"
                 style="fill:#00b0f6;fill-opacity:1;fill-rule:nonzero;stroke:#000000;stroke-width:0.70999998;stroke-linecap:round;stroke-linejoin:round;stroke-miterlimit:10;stroke-dasharray:none;stroke-opacity:1"
                 id="path126"
                 inkscape:connector-curvature="0" /><path
                 d="m 265.42,227.5 c 0,2.25 1.84,4.09 4.09,4.09 2.25,0 4.09,-1.84 4.09,-4.09 0,-2.25 -1.84,-4.09 -4.09,-4.09 -2.25,0 -4.09,1.84 -4.09,4.09"
                 style="fill:#a3a500;fill-opacity:1;fill-rule:nonzero;stroke:#000000;stroke-width:0.70999998;stroke-linecap:round;stroke-linejoin:round;stroke-miterlimit:10;stroke-dasharray:none;stroke-opacity:1"
                 id="path128"
                 inkscape:connector-curvature="0" /><path
                 d="m 278.23,224.7 7.25,0 0,7.25 -7.25,0 0,-7.25 z"
                 style="fill:#a3a500;fill-opacity:1;fill-rule:nonzero;stroke:#000000;stroke-width:0.70999998;stroke-linecap:round;stroke-linejoin:round;stroke-miterlimit:10;stroke-dasharray:none;stroke-opacity:1"
                 id="path130"
                 inkscape:connector-curvature="0" /><path
                 d="m 278.15,234.24 c 0,2.25 1.84,4.09 4.08,4.09 2.25,0 4.09,-1.84 4.09,-4.09 0,-2.25 -1.84,-4.09 -4.09,-4.09 -2.24,0 -4.08,1.84 -4.08,4.09"
                 style="fill:#e76bf3;fill-opacity:1;fill-rule:nonzero;stroke:#000000;stroke-width:0.70999998;stroke-linecap:round;stroke-linejoin:round;stroke-miterlimit:10;stroke-dasharray:none;stroke-opacity:1"
                 id="path132"
                 inkscape:connector-curvature="0" /><path
                 d="m 258.3,223.01 7.25,0 0,7.25 -7.25,0 0,-7.25 z"
                 style="fill:#e76bf3;fill-opacity:1;fill-rule:nonzero;stroke:#000000;stroke-width:0.70999998;stroke-linecap:round;stroke-linejoin:round;stroke-miterlimit:10;stroke-dasharray:none;stroke-opacity:1"
                 id="path134"
                 inkscape:connector-curvature="0" /><text
                 transform="matrix(1,0,0,-1,311.18,235.21)"
                 style="font-variant:normal;font-weight:normal;font-size:11px;font-family:Helvetica;-inkscape-font-specification:Helvetica;writing-mode:lr-tb;fill:#000000;fill-opacity:1;fill-rule:nonzero;stroke:none"
                 id="text136"><tspan
                   x="0 7.3369999 14.674"
                   y="0"
                   sodipodi:role="line"
                   id="tspan138">BE2</tspan></text>
<text
                 transform="matrix(1,0,0,-1,307.03,255.62)"
                 style="font-variant:normal;font-weight:normal;font-size:11px;font-family:Helvetica;-inkscape-font-specification:Helvetica;writing-mode:lr-tb;fill:#000000;fill-opacity:1;fill-rule:nonzero;stroke:none"
                 id="text140"><tspan
                   x="0 7.3369999 15.279"
                   y="0"
                   sodipodi:role="line"
                   id="tspan142">SD1</tspan></text>
<text
                 transform="scale(1,-1)"
                 style="font-variant:normal;font-weight:normal;font-size:11px;font-family:Helvetica;-inkscape-font-specification:Helvetica;writing-mode:lr-tb;fill:#000000;fill-opacity:1;fill-rule:nonzero;stroke:none"
                 id="text144"
                 x="202.40993"
                 y="-232.64006"><tspan
                   x="202.40993 209.74693 216.46793"
                   y="-232.64006"
                   sodipodi:role="line"
                   id="tspan146">ST2</tspan></text>
<text
                 transform="matrix(1,0,0,-1,294.24,210.47)"
                 style="font-variant:normal;font-weight:normal;font-size:11px;font-family:Helvetica;-inkscape-font-specification:Helvetica;writing-mode:lr-tb;fill:#000000;fill-opacity:1;fill-rule:nonzero;stroke:none"
                 id="text148"><tspan
                   x="0 7.9419999 15.279"
                   y="0"
                   sodipodi:role="line"
                   id="tspan150">HE2</tspan></text>
<text
                 transform="scale(1,-1)"
                 style="font-variant:normal;font-weight:normal;font-size:11px;font-family:Helvetica;-inkscape-font-specification:Helvetica;writing-mode:lr-tb;fill:#000000;fill-opacity:1;fill-rule:nonzero;stroke:none"
                 id="text152"
                 x="190.09995"
                 y="-215.99004"><tspan
                   x="190.09995 197.43694 205.99493"
                   y="-215.99004"
                   sodipodi:role="line"
                   id="tspan154">PO1</tspan></text>
<text
                 transform="matrix(1,0,0,-1,330.7,275.61)"
                 style="font-variant:normal;font-weight:normal;font-size:9px;font-family:Helvetica;-inkscape-font-specification:Helvetica;writing-mode:lr-tb;fill:#000000;fill-opacity:1;fill-rule:nonzero;stroke:none"
                 id="text160"><tspan
                   x="0 5.283 10.287 13.554 18.054001 20.556 27.962999 32.966999 37.466999 42.471001 44.973 46.971001 48.969002 53.289001 58.292999 60.794998 68.292"
                   y="0"
                   sodipodi:role="line"
                   id="tspan162">Very much like me</tspan></text>
<text
                 transform="matrix(1,0,0,-1,341.31,203.17)"
                 style="font-variant:normal;font-weight:normal;font-size:9px;font-family:Helvetica;-inkscape-font-specification:Helvetica;writing-mode:lr-tb;fill:#000000;fill-opacity:1;fill-rule:nonzero;stroke:none"
                 id="text164"><tspan
                   x="0 5.0040002 7.0019999 11.322 16.326 18.827999 26.325001"
                   y="0"
                   sodipodi:role="line"
                   id="tspan166">Like me</tspan></text>
<text
                 transform="matrix(1,0,0,-1,282.74,175.67)"
                 style="font-variant:normal;font-weight:normal;font-size:9px;font-family:Helvetica;-inkscape-font-specification:Helvetica;writing-mode:lr-tb;fill:#000000;fill-opacity:1;fill-rule:nonzero;stroke:none"
                 id="text168"><tspan
                   x="0 6.0029998 11.007 18.504 23.327999 29.826 34.830002 39.834 42.335999 44.838001 46.835999 48.834 53.153999 58.158001 60.66 68.156998"
                   y="0"
                   sodipodi:role="line"
                   id="tspan170">Somewhat like me</tspan></text>
<text
                 transform="matrix(1,0,0,-1,199.23,171.19)"
                 style="font-variant:normal;font-weight:normal;font-size:9px;font-family:Helvetica;-inkscape-font-specification:Helvetica;writing-mode:lr-tb;fill:#000000;fill-opacity:1;fill-rule:nonzero;stroke:none"
                 id="text172"><tspan
                   x="0 6.0029998 8.5050001 10.503 12.501 15.003 17.504999 19.503 24.507 27.009001 29.007 31.004999 35.325001 40.328999 42.831001 50.327999"
                   y="0"
                   sodipodi:role="line"
                   id="tspan174">A little like me</tspan></text>
<text
                 transform="matrix(1,0,0,-1,177.28,196.44)"
                 style="font-variant:normal;font-weight:normal;font-size:9px;font-family:Helvetica;-inkscape-font-specification:Helvetica;writing-mode:lr-tb;fill:#000000;fill-opacity:1;fill-rule:nonzero;stroke:none"
                 id="text176"><tspan
                   x="0 6.4980001 11.502 14.004 16.506001 18.504 20.502001 24.822001 29.826 32.327999 39.825001"
                   y="0"
                   sodipodi:role="line"
                   id="tspan178">Not like me</tspan></text>
<text
                 transform="matrix(1,0,0,-1,151.08,255.74)"
                 style="font-variant:normal;font-weight:normal;font-size:9px;font-family:Helvetica;-inkscape-font-specification:Helvetica;writing-mode:lr-tb;fill:#000000;fill-opacity:1;fill-rule:nonzero;stroke:none"
                 id="text180"><tspan
                   x="0 6.4980001 11.502 14.004 16.506001 18.504 20.502001 24.822001 29.826 32.327999 39.825001 44.828999 47.331001 52.334999 54.837002 57.339001 62.342999 64.341003"
                   y="0"
                   sodipodi:role="line"
                   id="tspan182">Not like me at all</tspan></text>
<text
                 transform="matrix(1,0,0,-1,230.59,324.58)"
                 style="font-variant:normal;font-weight:normal;font-size:9px;font-family:Helvetica;-inkscape-font-specification:Helvetica;writing-mode:lr-tb;fill:#000000;fill-opacity:1;fill-rule:nonzero;stroke:none"
                 id="text184"><tspan
                   x="0 6.4980001 11.502 14.004 19.007999 24.011999 28.511999 34.919998 39.924"
                   y="0"
                   sodipodi:role="line"
                   id="tspan186">No answer</tspan></text>
<path
                 d="m 34.05,127.14 428.47,0 0,219.95 -428.47,0 0,-219.95 z"
                 style="fill:none;stroke:#333333;stroke-width:1.07000005;stroke-linecap:round;stroke-linejoin:round;stroke-miterlimit:10;stroke-dasharray:none;stroke-opacity:1"
                 id="path188"
                 inkscape:connector-curvature="0" /></g></g><g
             id="g190" /><g
             id="g192" /><g
             id="g194" /><g
             id="g196" /><g
             id="g198" /><g
             id="g200" /><g
             id="g202" /><g
             id="g204" /><g
             id="g206" /><g
             id="g208" /><g
             id="g210" /><g
             id="g212" /><g
             id="g214" /><g
             id="g216" /><g
             id="g218" /><g
             id="g220"><text
               transform="matrix(1,0,0,-1,18.86,170.65)"
               style="font-variant:normal;font-weight:normal;font-size:9px;font-family:Helvetica;-inkscape-font-specification:Helvetica;writing-mode:lr-tb;fill:#4d4d4d;fill-opacity:1;fill-rule:nonzero;stroke:none"
               id="text222"><tspan
                 x="0 5.256"
                 y="0"
                 sodipodi:role="line"
                 id="tspan224">−1</tspan></text>
<text
               transform="matrix(1,0,0,-1,24.11,229.38)"
               style="font-variant:normal;font-weight:normal;font-size:9px;font-family:Helvetica;-inkscape-font-specification:Helvetica;writing-mode:lr-tb;fill:#4d4d4d;fill-opacity:1;fill-rule:nonzero;stroke:none"
               id="text226"><tspan
                 x="0"
                 y="0"
                 id="tspan228">0</tspan></text>
<text
               transform="matrix(1,0,0,-1,24.11,288.1)"
               style="font-variant:normal;font-weight:normal;font-size:9px;font-family:Helvetica;-inkscape-font-specification:Helvetica;writing-mode:lr-tb;fill:#4d4d4d;fill-opacity:1;fill-rule:nonzero;stroke:none"
               id="text230"><tspan
                 x="0"
                 y="0"
                 id="tspan232">1</tspan></text>
</g><g
             id="g234" /><g
             id="g236"><path
               d="m 31.31,173.88 2.74,0"
               style="fill:none;stroke:#333333;stroke-width:1.07000005;stroke-linecap:butt;stroke-linejoin:round;stroke-miterlimit:10;stroke-dasharray:none;stroke-opacity:1"
               id="path238"
               inkscape:connector-curvature="0" /><path
               d="m 31.31,232.61 2.74,0"
               style="fill:none;stroke:#333333;stroke-width:1.07000005;stroke-linecap:butt;stroke-linejoin:round;stroke-miterlimit:10;stroke-dasharray:none;stroke-opacity:1"
               id="path240"
               inkscape:connector-curvature="0" /><path
               d="m 31.31,291.33 2.74,0"
               style="fill:none;stroke:#333333;stroke-width:1.07000005;stroke-linecap:butt;stroke-linejoin:round;stroke-miterlimit:10;stroke-dasharray:none;stroke-opacity:1"
               id="path242"
               inkscape:connector-curvature="0" /></g><g
             id="g244" /><g
             id="g246" /><g
             id="g248" /><g
             id="g250" /><g
             id="g252" /><g
             id="g254" /><g
             id="g256" /><g
             id="g258" /><g
             id="g260" /><g
             id="g262"><path
               d="m 40.27,124.4 0,2.74"
               style="fill:none;stroke:#333333;stroke-width:1.07000005;stroke-linecap:butt;stroke-linejoin:round;stroke-miterlimit:10;stroke-dasharray:none;stroke-opacity:1"
               id="path264"
               inkscape:connector-curvature="0" /><path
               d="m 157.72,124.4 0,2.74"
               style="fill:none;stroke:#333333;stroke-width:1.07000005;stroke-linecap:butt;stroke-linejoin:round;stroke-miterlimit:10;stroke-dasharray:none;stroke-opacity:1"
               id="path266"
               inkscape:connector-curvature="0" /><path
               d="m 275.18,124.4 0,2.74"
               style="fill:none;stroke:#333333;stroke-width:1.07000005;stroke-linecap:butt;stroke-linejoin:round;stroke-miterlimit:10;stroke-dasharray:none;stroke-opacity:1"
               id="path268"
               inkscape:connector-curvature="0" /><path
               d="m 392.63,124.4 0,2.74"
               style="fill:none;stroke:#333333;stroke-width:1.07000005;stroke-linecap:butt;stroke-linejoin:round;stroke-miterlimit:10;stroke-dasharray:none;stroke-opacity:1"
               id="path270"
               inkscape:connector-curvature="0" /></g><g
             id="g272" /><g
             id="g274"><text
               transform="matrix(1,0,0,-1,35.14,115.74)"
               style="font-variant:normal;font-weight:normal;font-size:9px;font-family:Helvetica;-inkscape-font-specification:Helvetica;writing-mode:lr-tb;fill:#4d4d4d;fill-opacity:1;fill-rule:nonzero;stroke:none"
               id="text276"><tspan
                 x="0 5.256"
                 y="0"
                 sodipodi:role="line"
                 id="tspan278">−4</tspan></text>
<text
               transform="matrix(1,0,0,-1,152.59,115.74)"
               style="font-variant:normal;font-weight:normal;font-size:9px;font-family:Helvetica;-inkscape-font-specification:Helvetica;writing-mode:lr-tb;fill:#4d4d4d;fill-opacity:1;fill-rule:nonzero;stroke:none"
               id="text280"><tspan
                 x="0 5.256"
                 y="0"
                 sodipodi:role="line"
                 id="tspan282">−2</tspan></text>
<text
               transform="matrix(1,0,0,-1,272.67,115.74)"
               style="font-variant:normal;font-weight:normal;font-size:9px;font-family:Helvetica;-inkscape-font-specification:Helvetica;writing-mode:lr-tb;fill:#4d4d4d;fill-opacity:1;fill-rule:nonzero;stroke:none"
               id="text284"><tspan
                 x="0"
                 y="0"
                 id="tspan286">0</tspan></text>
<text
               transform="matrix(1,0,0,-1,390.13,115.74)"
               style="font-variant:normal;font-weight:normal;font-size:9px;font-family:Helvetica;-inkscape-font-specification:Helvetica;writing-mode:lr-tb;fill:#4d4d4d;fill-opacity:1;fill-rule:nonzero;stroke:none"
               id="text288"><tspan
                 x="0"
                 y="0"
                 id="tspan290">2</tspan></text>
</g><g
             id="g292" /><g
             id="g294" /><g
             id="g296" /><g
             id="g298" /><g
             id="g300" /><g
             id="g302"><text
               transform="matrix(1,0,0,-1,232.39,102.37)"
               style="font-variant:normal;font-weight:normal;font-size:11px;font-family:Helvetica;-inkscape-font-specification:Helvetica;writing-mode:lr-tb;fill:#000000;fill-opacity:1;fill-rule:nonzero;stroke:none"
               id="text304"><tspan
                 x="0 7.9419999 10.384 19.547001 22.605 25.663"
                 y="0"
                 sodipodi:role="line"
                 id="tspan306">Dim. 1</tspan></text>
</g><g
             id="g308" /><g
             id="g310"><text
               transform="matrix(0,1,1,0,13.38,221.22)"
               style="font-variant:normal;font-weight:normal;font-size:11px;font-family:Helvetica;-inkscape-font-specification:Helvetica;writing-mode:lr-tb;fill:#000000;fill-opacity:1;fill-rule:nonzero;stroke:none"
               id="text312"><tspan
                 x="0 7.9419999 10.384 19.547001 22.605 25.663"
                 y="0"
                 sodipodi:role="line"
                 id="tspan314">Dim. 2</tspan></text>
</g><g
             id="g316" /><g
             id="g318" /><g
             id="g320" /><g
             id="g322" /><g
             id="g324" /><g
             id="g326"><text
               transform="matrix(1,0,0,-1,34.05,356.3)"
               style="font-variant:normal;font-weight:normal;font-size:13px;font-family:Helvetica;-inkscape-font-specification:Helvetica;writing-mode:lr-tb;fill:#000000;fill-opacity:1;fill-rule:nonzero;stroke:none"
               id="text328"><tspan
                 x="0 8.6709995 15.899 23.127001 33.956001 41.183998 48.411999 52.026001 55.639999 64.310997 67.925003 72.253998 79.482002 86.709999 90.323997 97.552002 109.109"
                 y="0"
                 sodipodi:role="line"
                 id="tspan330">Segment V (14.5%)</tspan></text>
</g><g
             id="g332" /><g
             id="g334" /><g
             id="g336" /><g
             id="g338" /></g></g></g></g></svg>