<?xml version="1.0" encoding="UTF-8" standalone="no"?>
<!-- Created with Inkscape (http://www.inkscape.org/) -->

<svg
   xmlns:dc="http://purl.org/dc/elements/1.1/"
   xmlns:cc="http://creativecommons.org/ns#"
   xmlns:rdf="http://www.w3.org/1999/02/22-rdf-syntax-ns#"
   xmlns:svg="http://www.w3.org/2000/svg"
   xmlns="http://www.w3.org/2000/svg"
   xmlns:sodipodi="http://sodipodi.sourceforge.net/DTD/sodipodi-0.dtd"
   xmlns:inkscape="http://www.inkscape.org/namespaces/inkscape"
   id="svg2"
   version="1.1"
   inkscape:version="0.91 r13725"
   xml:space="preserve"
   width="577.5"
   height="333.75"
   viewBox="0 0 577.5 333.75"
   sodipodi:docname="Paper-biplots-4-edit2.svg"><metadata
     id="metadata8"><rdf:RDF><cc:Work
         rdf:about=""><dc:format>image/svg+xml</dc:format><dc:type
           rdf:resource="http://purl.org/dc/dcmitype/StillImage" /><dc:title></dc:title></cc:Work></rdf:RDF></metadata><defs
     id="defs6"><clipPath
       clipPathUnits="userSpaceOnUse"
       id="clipPath18"><path
         d="M 0,0 468,0 468,468 0,468 0,0 Z"
         id="path20"
         inkscape:connector-curvature="0" /></clipPath><clipPath
       clipPathUnits="userSpaceOnUse"
       id="clipPath48"><path
         d="m 0,96.89 468,0 0,274.23 -468,0 0,-274.23 z"
         id="path50"
         inkscape:connector-curvature="0" /></clipPath><clipPath
       clipPathUnits="userSpaceOnUse"
       id="clipPath60"><path
         d="m 34.05,127.14 428.47,0 0,219.95 -428.47,0 0,-219.95 z"
         id="path62"
         inkscape:connector-curvature="0" /></clipPath></defs><sodipodi:namedview
     pagecolor="#ffffff"
     bordercolor="#666666"
     borderopacity="1"
     objecttolerance="10"
     gridtolerance="10"
     guidetolerance="10"
     inkscape:pageopacity="0"
     inkscape:pageshadow="2"
     inkscape:window-width="1873"
     inkscape:window-height="1056"
     id="namedview4"
     showgrid="false"
     inkscape:zoom="2.4727273"
     inkscape:cx="347.68424"
     inkscape:cy="162.01344"
     inkscape:window-x="47"
     inkscape:window-y="24"
     inkscape:window-maximized="1"
     inkscape:current-layer="g10" /><g
     id="g10"
     inkscape:groupmode="layer"
     inkscape:label="Paper-biplots-4"
     transform="matrix(1.25,0,0,-1.25,0,333.75)"><g
       id="g12"
       transform="translate(-1,-99)"><g
         id="g14"><g
           id="g16"
           clip-path="url(#clipPath18)"><g
             id="g22" /><g
             id="g24" /><g
             id="g26" /><g
             id="g28" /><g
             id="g30" /><g
             id="g32" /><g
             id="g34" /><g
             id="g36" /><g
             id="g38" /><g
             id="g40" /><g
             id="g42" /><g
             id="g44"><g
               id="g46"
               clip-path="url(#clipPath48)"><path
                 d="m 0,96.89 468,0 0,274.23 -468,0 0,-274.23 z"
                 style="fill:#ffffff;fill-opacity:1;fill-rule:nonzero;stroke:#ffffff;stroke-width:1.07000005;stroke-linecap:round;stroke-linejoin:round;stroke-miterlimit:10;stroke-dasharray:none;stroke-opacity:1"
                 id="path52"
                 inkscape:connector-curvature="0" /></g></g><g
             id="g54" /><g
             id="g56"><g
               id="g58"
               clip-path="url(#clipPath60)"><path
                 d="m 34.05,127.14 428.47,0 0,219.95 -428.47,0 0,-219.95 z"
                 style="fill:#ffffff;fill-opacity:1;fill-rule:nonzero;stroke:none"
                 id="path64"
                 inkscape:connector-curvature="0" /><path
                 d="m 275.18,232.61 99.5,36.54"
                 style="fill:none;stroke:#000000;stroke-width:1.07000005;stroke-linecap:butt;stroke-linejoin:round;stroke-miterlimit:10;stroke-dasharray:none;stroke-opacity:1"
                 id="path66"
                 inkscape:connector-curvature="0" /><path
                 d="m 371.96,265.89 2.72,3.26 -4.19,0.73"
                 style="fill:none;stroke:#000000;stroke-width:1.07000005;stroke-linecap:butt;stroke-linejoin:round;stroke-miterlimit:10;stroke-dasharray:none;stroke-opacity:1"
                 id="path68"
                 inkscape:connector-curvature="0" /><path
                 d="m 275.18,232.61 72.39,-19.75"
                 style="fill:none;stroke:#000000;stroke-width:1.07000005;stroke-linecap:butt;stroke-linejoin:round;stroke-miterlimit:10;stroke-dasharray:none;stroke-opacity:1"
                 id="path70"
                 inkscape:connector-curvature="0" /><path
                 d="m 343.46,211.78 4.11,1.08 -2.99,3.02"
                 style="fill:none;stroke:#000000;stroke-width:1.07000005;stroke-linecap:butt;stroke-linejoin:round;stroke-miterlimit:10;stroke-dasharray:none;stroke-opacity:1"
                 id="path72"
                 inkscape:connector-curvature="0" /><path
                 d="m 275.18,232.61 25.85,-47.25"
                 style="fill:none;stroke:#000000;stroke-width:1.07000005;stroke-linecap:butt;stroke-linejoin:round;stroke-miterlimit:10;stroke-dasharray:none;stroke-opacity:1"
                 id="path74"
                 inkscape:connector-curvature="0" /><path
                 d="m 297.4,187.57 3.63,-2.21 0.1,4.25"
                 style="fill:none;stroke:#000000;stroke-width:1.07000005;stroke-linecap:butt;stroke-linejoin:round;stroke-miterlimit:10;stroke-dasharray:none;stroke-opacity:1"
                 id="path76"
                 inkscape:connector-curvature="0" /><path
                 d="M 275.18,232.61 249.03,180.88"
                 style="fill:none;stroke:#000000;stroke-width:1.07000005;stroke-linecap:butt;stroke-linejoin:round;stroke-miterlimit:10;stroke-dasharray:none;stroke-opacity:1"
                 id="path78"
                 inkscape:connector-curvature="0" /><path
                 d="m 248.79,185.13 0.24,-4.25 3.56,2.33"
                 style="fill:none;stroke:#000000;stroke-width:1.07000005;stroke-linecap:butt;stroke-linejoin:round;stroke-miterlimit:10;stroke-dasharray:none;stroke-opacity:1"
                 id="path80"
                 inkscape:connector-curvature="0" /><path
                 d="M 275.18,232.61 217.62,206.14"
                 style="fill:none;stroke:#000000;stroke-width:1.07000005;stroke-linecap:butt;stroke-linejoin:round;stroke-miterlimit:10;stroke-dasharray:none;stroke-opacity:1"
                 id="path82"
                 inkscape:connector-curvature="0" /><path
                 d="m 220.08,209.61 -2.46,-3.47 4.24,-0.4"
                 style="fill:none;stroke:#000000;stroke-width:1.07000005;stroke-linecap:butt;stroke-linejoin:round;stroke-miterlimit:10;stroke-dasharray:none;stroke-opacity:1"
                 id="path84"
                 inkscape:connector-curvature="0" /><path
                 d="m 275.18,232.61 -90.93,19.9"
                 style="fill:none;stroke:#000000;stroke-width:1.07000005;stroke-linecap:butt;stroke-linejoin:round;stroke-miterlimit:10;stroke-dasharray:none;stroke-opacity:1"
                 id="path86"
                 inkscape:connector-curvature="0" /><path
                 d="m 188.3,253.8 -4.05,-1.29 3.14,-2.87"
                 style="fill:none;stroke:#000000;stroke-width:1.07000005;stroke-linecap:butt;stroke-linejoin:round;stroke-miterlimit:10;stroke-dasharray:none;stroke-opacity:1"
                 id="path88"
                 inkscape:connector-curvature="0" /><path
                 d="m 275.18,232.61 -23.13,88.74"
                 style="fill:none;stroke:#000000;stroke-width:1.07000005;stroke-linecap:butt;stroke-linejoin:round;stroke-miterlimit:10;stroke-dasharray:none;stroke-opacity:1"
                 id="path90"
                 inkscape:connector-curvature="0" /><path
                 d="m 255.04,318.32 -2.99,3.03 -1.13,-4.1"
                 style="fill:none;stroke:#000000;stroke-width:1.07000005;stroke-linecap:butt;stroke-linejoin:round;stroke-miterlimit:10;stroke-dasharray:none;stroke-opacity:1"
                 id="path92"
                 inkscape:connector-curvature="0" /><path
                 d="m 339.64,232.03 c 0,2.25 1.84,4.09 4.08,4.09 2.25,0 4.09,-1.84 4.09,-4.09 0,-2.25 -1.84,-4.09 -4.09,-4.09 -2.24,0 -4.08,1.84 -4.08,4.09"
                 style="fill:#d89000;fill-opacity:1;fill-rule:nonzero;stroke:#000000;stroke-width:0.70999998;stroke-linecap:round;stroke-linejoin:round;stroke-miterlimit:10;stroke-dasharray:none;stroke-opacity:1"
                 id="path94"
                 inkscape:connector-curvature="0" /><path
                 d="m 357.11,230.43 7.25,0 0,7.25 -7.25,0 0,-7.25 z"
                 style="fill:#d89000;fill-opacity:1;fill-rule:nonzero;stroke:#000000;stroke-width:0.70999998;stroke-linecap:round;stroke-linejoin:round;stroke-miterlimit:10;stroke-dasharray:none;stroke-opacity:1"
                 id="path96"
                 inkscape:connector-curvature="0" /><path
                 d="m 354.49,301.92 c 0,2.25 1.84,4.09 4.09,4.09 2.25,0 4.09,-1.84 4.09,-4.09 0,-2.25 -1.84,-4.09 -4.09,-4.09 -2.25,0 -4.09,1.84 -4.09,4.09"
                 style="fill:#ff62bc;fill-opacity:1;fill-rule:nonzero;stroke:#000000;stroke-width:0.70999998;stroke-linecap:round;stroke-linejoin:round;stroke-miterlimit:10;stroke-dasharray:none;stroke-opacity:1"
                 id="path98"
                 inkscape:connector-curvature="0" /><path
                 d="m 366.51,227.7 7.25,0 0,7.25 -7.25,0 0,-7.25 z"
                 style="fill:#ff62bc;fill-opacity:1;fill-rule:nonzero;stroke:#000000;stroke-width:0.70999998;stroke-linecap:round;stroke-linejoin:round;stroke-miterlimit:10;stroke-dasharray:none;stroke-opacity:1"
                 id="path100"
                 inkscape:connector-curvature="0" /><path
                 d="m 350.8,259.59 5.13,5.13 -5.13,5.12 -5.12,-5.12 5.12,-5.13 z"
                 style="fill:#ff62bc;fill-opacity:1;fill-rule:nonzero;stroke:#000000;stroke-width:0.70999998;stroke-linecap:round;stroke-linejoin:round;stroke-miterlimit:10;stroke-dasharray:none;stroke-opacity:1"
                 id="path102"
                 inkscape:connector-curvature="0" /><path
                 d="m 430.96,257.26 c 0,2.25 1.84,4.09 4.09,4.09 2.25,0 4.09,-1.84 4.09,-4.09 0,-2.25 -1.84,-4.09 -4.09,-4.09 -2.25,0 -4.09,1.84 -4.09,4.09"
                 style="fill:#00bfc4;fill-opacity:1;fill-rule:nonzero;stroke:#000000;stroke-width:0.70999998;stroke-linecap:round;stroke-linejoin:round;stroke-miterlimit:10;stroke-dasharray:none;stroke-opacity:1"
                 id="path104"
                 inkscape:connector-curvature="0" /><path
                 d="m 339.88,290.35 7.25,0 0,7.25 -7.25,0 0,-7.25 z"
                 style="fill:#00bfc4;fill-opacity:1;fill-rule:nonzero;stroke:#000000;stroke-width:0.70999998;stroke-linecap:round;stroke-linejoin:round;stroke-miterlimit:10;stroke-dasharray:none;stroke-opacity:1"
                 id="path106"
                 inkscape:connector-curvature="0" /><path
                 d="m 316.89,267.08 c 0,2.25 1.84,4.09 4.08,4.09 2.25,0 4.09,-1.84 4.09,-4.09 0,-2.25 -1.84,-4.09 -4.09,-4.09 -2.24,0 -4.08,1.84 -4.08,4.09"
                 style="fill:#9590ff;fill-opacity:1;fill-rule:nonzero;stroke:#000000;stroke-width:0.70999998;stroke-linecap:round;stroke-linejoin:round;stroke-miterlimit:10;stroke-dasharray:none;stroke-opacity:1"
                 id="path108"
                 inkscape:connector-curvature="0" /><path
                 d="m 258.75,203.64 7.25,0 0,7.25 -7.25,0 0,-7.25 z"
                 style="fill:#9590ff;fill-opacity:1;fill-rule:nonzero;stroke:#000000;stroke-width:0.70999998;stroke-linecap:round;stroke-linejoin:round;stroke-miterlimit:10;stroke-dasharray:none;stroke-opacity:1"
                 id="path110"
                 inkscape:connector-curvature="0" /><path
                 d="m 253.01,215.73 c 0,2.25 1.84,4.09 4.09,4.09 2.25,0 4.09,-1.84 4.09,-4.09 0,-2.25 -1.84,-4.09 -4.09,-4.09 -2.25,0 -4.09,1.84 -4.09,4.09"
                 style="fill:#39b600;fill-opacity:1;fill-rule:nonzero;stroke:#000000;stroke-width:0.70999998;stroke-linecap:round;stroke-linejoin:round;stroke-miterlimit:10;stroke-dasharray:none;stroke-opacity:1"
                 id="path112"
                 inkscape:connector-curvature="0" /><path
                 d="m 294.4,251.09 7.25,0 0,7.25 -7.25,0 0,-7.25 z"
                 style="fill:#39b600;fill-opacity:1;fill-rule:nonzero;stroke:#000000;stroke-width:0.70999998;stroke-linecap:round;stroke-linejoin:round;stroke-miterlimit:10;stroke-dasharray:none;stroke-opacity:1"
                 id="path114"
                 inkscape:connector-curvature="0" /><path
                 d="m 231.39,182.65 c 0,2.25 1.84,4.09 4.09,4.09 2.25,0 4.09,-1.84 4.09,-4.09 0,-2.25 -1.84,-4.09 -4.09,-4.09 -2.25,0 -4.09,1.84 -4.09,4.09"
                 style="fill:#f8766d;fill-opacity:1;fill-rule:nonzero;stroke:#000000;stroke-width:0.70999998;stroke-linecap:round;stroke-linejoin:round;stroke-miterlimit:10;stroke-dasharray:none;stroke-opacity:1"
                 id="path116"
                 inkscape:connector-curvature="0" /><path
                 d="m 232.45,181.91 7.25,0 0,7.25 -7.25,0 0,-7.25 z"
                 style="fill:#f8766d;fill-opacity:1;fill-rule:nonzero;stroke:#000000;stroke-width:0.70999998;stroke-linecap:round;stroke-linejoin:round;stroke-miterlimit:10;stroke-dasharray:none;stroke-opacity:1"
                 id="path118"
                 inkscape:connector-curvature="0" /><path
                 d="m 101.75,216.7 c 0,2.25 1.84,4.09 4.08,4.09 2.25,0 4.09,-1.84 4.09,-4.09 0,-2.25 -1.84,-4.09 -4.09,-4.09 -2.24,0 -4.08,1.84 -4.08,4.09"
                 style="fill:#00bf7d;fill-opacity:1;fill-rule:nonzero;stroke:#000000;stroke-width:0.70999998;stroke-linecap:round;stroke-linejoin:round;stroke-miterlimit:10;stroke-dasharray:none;stroke-opacity:1"
                 id="path120"
                 inkscape:connector-curvature="0" /><path
                 d="m 195.5,176.66 7.25,0 0,7.25 -7.25,0 0,-7.25 z"
                 style="fill:#00bf7d;fill-opacity:1;fill-rule:nonzero;stroke:#000000;stroke-width:0.70999998;stroke-linecap:round;stroke-linejoin:round;stroke-miterlimit:10;stroke-dasharray:none;stroke-opacity:1"
                 id="path122"
                 inkscape:connector-curvature="0" /><path
                 d="m 205.12,218.16 c 0,2.25 1.84,4.09 4.09,4.09 2.25,0 4.09,-1.84 4.09,-4.09 0,-2.25 -1.84,-4.09 -4.09,-4.09 -2.25,0 -4.09,1.84 -4.09,4.09"
                 style="fill:#00b0f6;fill-opacity:1;fill-rule:nonzero;stroke:#000000;stroke-width:0.70999998;stroke-linecap:round;stroke-linejoin:round;stroke-miterlimit:10;stroke-dasharray:none;stroke-opacity:1"
                 id="path124"
                 inkscape:connector-curvature="0" /><path
                 d="m 233.1,200.25 7.25,0 0,7.25 -7.25,0 0,-7.25 z"
                 style="fill:#00b0f6;fill-opacity:1;fill-rule:nonzero;stroke:#000000;stroke-width:0.70999998;stroke-linecap:round;stroke-linejoin:round;stroke-miterlimit:10;stroke-dasharray:none;stroke-opacity:1"
                 id="path126"
                 inkscape:connector-curvature="0" /><path
                 d="m 207.32,236.11 c 0,2.24 1.84,4.08 4.09,4.08 2.25,0 4.09,-1.84 4.09,-4.08 0,-2.25 -1.84,-4.09 -4.09,-4.09 -2.25,0 -4.09,1.84 -4.09,4.09"
                 style="fill:#a3a500;fill-opacity:1;fill-rule:nonzero;stroke:#000000;stroke-width:0.70999998;stroke-linecap:round;stroke-linejoin:round;stroke-miterlimit:10;stroke-dasharray:none;stroke-opacity:1"
                 id="path128"
                 inkscape:connector-curvature="0" /><path
                 d="m 220.21,213.59 7.25,0 0,7.25 -7.25,0 0,-7.25 z"
                 style="fill:#a3a500;fill-opacity:1;fill-rule:nonzero;stroke:#000000;stroke-width:0.70999998;stroke-linecap:round;stroke-linejoin:round;stroke-miterlimit:10;stroke-dasharray:none;stroke-opacity:1"
                 id="path130"
                 inkscape:connector-curvature="0" /><path
                 d="m 211.56,249.2 c 0,2.25 1.84,4.09 4.09,4.09 2.25,0 4.09,-1.84 4.09,-4.09 0,-2.25 -1.84,-4.09 -4.09,-4.09 -2.25,0 -4.09,1.84 -4.09,4.09"
                 style="fill:#e76bf3;fill-opacity:1;fill-rule:nonzero;stroke:#000000;stroke-width:0.70999998;stroke-linecap:round;stroke-linejoin:round;stroke-miterlimit:10;stroke-dasharray:none;stroke-opacity:1"
                 id="path132"
                 inkscape:connector-curvature="0" /><path
                 d="m 200.76,231.33 7.25,0 0,7.25 -7.25,0 0,-7.25 z"
                 style="fill:#e76bf3;fill-opacity:1;fill-rule:nonzero;stroke:#000000;stroke-width:0.70999998;stroke-linecap:round;stroke-linejoin:round;stroke-miterlimit:10;stroke-dasharray:none;stroke-opacity:1"
                 id="path134"
                 inkscape:connector-curvature="0" /><text
                 transform="matrix(1,0,0,-1,350.34,241.95)"
                 style="font-variant:normal;font-weight:normal;font-size:11px;font-family:Helvetica;-inkscape-font-specification:Helvetica;writing-mode:lr-tb;fill:#000000;fill-opacity:1;fill-rule:nonzero;stroke:none"
                 id="text136"><tspan
                   x="0 7.3369999 14.674"
                   y="0"
                   sodipodi:role="line"
                   id="tspan138">BE2</tspan></text>
<text
                 transform="scale(1,-1)"
                 style="font-variant:normal;font-weight:normal;font-size:11px;font-family:Helvetica;-inkscape-font-specification:Helvetica;writing-mode:lr-tb;fill:#000000;fill-opacity:1;fill-rule:nonzero;stroke:none"
                 id="text140"
                 x="358.78003"
                 y="-287.72"><tspan
                   x="358.78003 366.72205 374.66403"
                   y="-287.72"
                   sodipodi:role="line"
                   id="tspan142">UN1</tspan></text>
<text
                 transform="matrix(1,0,0,-1,359.13,215.53)"
                 style="font-variant:normal;font-weight:normal;font-size:11px;font-family:Helvetica;-inkscape-font-specification:Helvetica;writing-mode:lr-tb;fill:#000000;fill-opacity:1;fill-rule:nonzero;stroke:none"
                 id="text144"><tspan
                   x="0 7.9419999 15.884"
                   y="0"
                   sodipodi:role="line"
                   id="tspan146">UN2</tspan></text>
<text
                 transform="scale(1,-1)"
                 style="font-variant:normal;font-weight:normal;font-size:11px;font-family:Helvetica;-inkscape-font-specification:Helvetica;writing-mode:lr-tb;fill:#000000;fill-opacity:1;fill-rule:nonzero;stroke:none"
                 id="text148"
                 x="359.50015"
                 y="-254.36996"><tspan
                   x="359.50015 367.44214 375.38416"
                   y="-254.36996"
                   sodipodi:role="line"
                   id="tspan150">UN3</tspan></text>
<text
                 transform="matrix(1,0,0,-1,424.35,241.46)"
                 style="font-variant:normal;font-weight:normal;font-size:11px;font-family:Helvetica;-inkscape-font-specification:Helvetica;writing-mode:lr-tb;fill:#000000;fill-opacity:1;fill-rule:nonzero;stroke:none"
                 id="text152"><tspan
                   x="0 7.3369999 15.279"
                   y="0"
                   sodipodi:role="line"
                   id="tspan154">SD1</tspan></text>
<text
                 transform="scale(1,-1)"
                 style="font-variant:normal;font-weight:normal;font-size:11px;font-family:Helvetica;-inkscape-font-specification:Helvetica;writing-mode:lr-tb;fill:#000000;fill-opacity:1;fill-rule:nonzero;stroke:none"
                 id="text156"
                 x="313.59995"
                 y="-289.38004"><tspan
                   x="313.59995 320.93692 328.87894"
                   y="-289.38004"
                   sodipodi:role="line"
                   id="tspan158">SD2</tspan></text>
<text
                 transform="matrix(1,0,0,-1,94.83,200.9)"
                 style="font-variant:normal;font-weight:normal;font-size:11px;font-family:Helvetica;-inkscape-font-specification:Helvetica;writing-mode:lr-tb;fill:#000000;fill-opacity:1;fill-rule:nonzero;stroke:none"
                 id="text160"><tspan
                   x="0 7.3369999 15.895"
                   y="0"
                   sodipodi:role="line"
                   id="tspan162">PO1</tspan></text>
<text
                 transform="scale(1,-1)"
                 style="font-variant:normal;font-weight:normal;font-size:11px;font-family:Helvetica;-inkscape-font-specification:Helvetica;writing-mode:lr-tb;fill:#000000;fill-opacity:1;fill-rule:nonzero;stroke:none"
                 id="text164"
                 x="168.91994"
                 y="-175.68004"><tspan
                   x="168.91994 176.25693 184.81493"
                   y="-175.68004"
                   sodipodi:role="line"
                   id="tspan166">PO2</tspan></text>
<text
                 transform="scale(1,-1)"
                 style="font-variant:normal;font-weight:normal;font-size:11px;font-family:Helvetica;-inkscape-font-specification:Helvetica;writing-mode:lr-tb;fill:#000000;fill-opacity:1;fill-rule:nonzero;stroke:none"
                 id="text168"
                 x="179.60992"
                 y="-213.56004"><tspan
                   x="179.60992 186.94693 194.28392"
                   y="-213.56004"
                   sodipodi:role="line"
                   id="tspan170">SE1</tspan></text>
<text
                 transform="scale(1,-1)"
                 style="font-variant:normal;font-weight:normal;font-size:11px;font-family:Helvetica;-inkscape-font-specification:Helvetica;writing-mode:lr-tb;fill:#000000;fill-opacity:1;fill-rule:nonzero;stroke:none"
                 id="text172"
                 x="176.38994"
                 y="-230.36005"><tspan
                   x="176.38994 183.11095 191.05293"
                   y="-230.36005"
                   sodipodi:role="line"
                   id="tspan174">TR2</tspan></text>
<text
                 transform="matrix(1,0,0,-1,330.7,275.61)"
                 style="font-variant:normal;font-weight:normal;font-size:9px;font-family:Helvetica;-inkscape-font-specification:Helvetica;writing-mode:lr-tb;fill:#000000;fill-opacity:1;fill-rule:nonzero;stroke:none"
                 id="text176"><tspan
                   x="0 5.283 10.287 13.554 18.054001 20.556 27.962999 32.966999 37.466999 42.471001 44.973 46.971001 48.969002 53.289001 58.292999 60.794998 68.292"
                   y="0"
                   sodipodi:role="line"
                   id="tspan178">Very much like me</tspan></text>
<text
                 transform="matrix(1,0,0,-1,341.31,203.17)"
                 style="font-variant:normal;font-weight:normal;font-size:9px;font-family:Helvetica;-inkscape-font-specification:Helvetica;writing-mode:lr-tb;fill:#000000;fill-opacity:1;fill-rule:nonzero;stroke:none"
                 id="text180"><tspan
                   x="0 5.0040002 7.0019999 11.322 16.326 18.827999 26.325001"
                   y="0"
                   sodipodi:role="line"
                   id="tspan182">Like me</tspan></text>
<text
                 transform="matrix(1,0,0,-1,282.74,175.67)"
                 style="font-variant:normal;font-weight:normal;font-size:9px;font-family:Helvetica;-inkscape-font-specification:Helvetica;writing-mode:lr-tb;fill:#000000;fill-opacity:1;fill-rule:nonzero;stroke:none"
                 id="text184"><tspan
                   x="0 6.0029998 11.007 18.504 23.327999 29.826 34.830002 39.834 42.335999 44.838001 46.835999 48.834 53.153999 58.158001 60.66 68.156998"
                   y="0"
                   sodipodi:role="line"
                   id="tspan186">Somewhat like me</tspan></text>
<text
                 transform="scale(1,-1)"
                 style="font-variant:normal;font-weight:normal;font-size:9px;font-family:Helvetica;-inkscape-font-specification:Helvetica;writing-mode:lr-tb;fill:#000000;fill-opacity:1;fill-rule:nonzero;stroke:none"
                 id="text188"
                 x="205.63002"
                 y="-169.59"><tspan
                   x="205.63002 211.63301 214.13503 216.13303 218.13101 220.63303 223.13503 225.13303 230.13702 232.63902 234.63702 236.63503 240.95502 245.95901 248.46101 255.95802"
                   y="-169.59"
                   sodipodi:role="line"
                   id="tspan190">A little like me</tspan></text>
<text
                 transform="matrix(1,0,0,-1,177.28,196.44)"
                 style="font-variant:normal;font-weight:normal;font-size:9px;font-family:Helvetica;-inkscape-font-specification:Helvetica;writing-mode:lr-tb;fill:#000000;fill-opacity:1;fill-rule:nonzero;stroke:none"
                 id="text192"><tspan
                   x="0 6.4980001 11.502 14.004 16.506001 18.504 20.502001 24.822001 29.826 32.327999 39.825001"
                   y="0"
                   sodipodi:role="line"
                   id="tspan194">Not like me</tspan></text>
<text
                 transform="matrix(1,0,0,-1,151.08,255.74)"
                 style="font-variant:normal;font-weight:normal;font-size:9px;font-family:Helvetica;-inkscape-font-specification:Helvetica;writing-mode:lr-tb;fill:#000000;fill-opacity:1;fill-rule:nonzero;stroke:none"
                 id="text196"><tspan
                   x="0 6.4980001 11.502 14.004 16.506001 18.504 20.502001 24.822001 29.826 32.327999 39.825001 44.828999 47.331001 52.334999 54.837002 57.339001 62.342999 64.341003"
                   y="0"
                   sodipodi:role="line"
                   id="tspan198">Not like me at all</tspan></text>
<text
                 transform="matrix(1,0,0,-1,230.59,324.58)"
                 style="font-variant:normal;font-weight:normal;font-size:9px;font-family:Helvetica;-inkscape-font-specification:Helvetica;writing-mode:lr-tb;fill:#000000;fill-opacity:1;fill-rule:nonzero;stroke:none"
                 id="text200"><tspan
                   x="0 6.4980001 11.502 14.004 19.007999 24.011999 28.511999 34.919998 39.924"
                   y="0"
                   sodipodi:role="line"
                   id="tspan202">No answer</tspan></text>
<path
                 d="m 34.05,127.14 428.47,0 0,219.95 -428.47,0 0,-219.95 z"
                 style="fill:none;stroke:#333333;stroke-width:1.07000005;stroke-linecap:round;stroke-linejoin:round;stroke-miterlimit:10;stroke-dasharray:none;stroke-opacity:1"
                 id="path204"
                 inkscape:connector-curvature="0" /></g></g><g
             id="g206" /><g
             id="g208" /><g
             id="g210" /><g
             id="g212" /><g
             id="g214" /><g
             id="g216" /><g
             id="g218" /><g
             id="g220" /><g
             id="g222" /><g
             id="g224" /><g
             id="g226" /><g
             id="g228" /><g
             id="g230" /><g
             id="g232" /><g
             id="g234" /><g
             id="g236"><text
               transform="matrix(1,0,0,-1,18.86,170.65)"
               style="font-variant:normal;font-weight:normal;font-size:9px;font-family:Helvetica;-inkscape-font-specification:Helvetica;writing-mode:lr-tb;fill:#4d4d4d;fill-opacity:1;fill-rule:nonzero;stroke:none"
               id="text238"><tspan
                 x="0 5.256"
                 y="0"
                 sodipodi:role="line"
                 id="tspan240">−1</tspan></text>
<text
               transform="matrix(1,0,0,-1,24.11,229.38)"
               style="font-variant:normal;font-weight:normal;font-size:9px;font-family:Helvetica;-inkscape-font-specification:Helvetica;writing-mode:lr-tb;fill:#4d4d4d;fill-opacity:1;fill-rule:nonzero;stroke:none"
               id="text242"><tspan
                 x="0"
                 y="0"
                 id="tspan244">0</tspan></text>
<text
               transform="matrix(1,0,0,-1,24.11,288.1)"
               style="font-variant:normal;font-weight:normal;font-size:9px;font-family:Helvetica;-inkscape-font-specification:Helvetica;writing-mode:lr-tb;fill:#4d4d4d;fill-opacity:1;fill-rule:nonzero;stroke:none"
               id="text246"><tspan
                 x="0"
                 y="0"
                 id="tspan248">1</tspan></text>
</g><g
             id="g250" /><g
             id="g252"><path
               d="m 31.31,173.88 2.74,0"
               style="fill:none;stroke:#333333;stroke-width:1.07000005;stroke-linecap:butt;stroke-linejoin:round;stroke-miterlimit:10;stroke-dasharray:none;stroke-opacity:1"
               id="path254"
               inkscape:connector-curvature="0" /><path
               d="m 31.31,232.61 2.74,0"
               style="fill:none;stroke:#333333;stroke-width:1.07000005;stroke-linecap:butt;stroke-linejoin:round;stroke-miterlimit:10;stroke-dasharray:none;stroke-opacity:1"
               id="path256"
               inkscape:connector-curvature="0" /><path
               d="m 31.31,291.33 2.74,0"
               style="fill:none;stroke:#333333;stroke-width:1.07000005;stroke-linecap:butt;stroke-linejoin:round;stroke-miterlimit:10;stroke-dasharray:none;stroke-opacity:1"
               id="path258"
               inkscape:connector-curvature="0" /></g><g
             id="g260" /><g
             id="g262" /><g
             id="g264" /><g
             id="g266" /><g
             id="g268" /><g
             id="g270" /><g
             id="g272" /><g
             id="g274" /><g
             id="g276" /><g
             id="g278"><path
               d="m 40.27,124.4 0,2.74"
               style="fill:none;stroke:#333333;stroke-width:1.07000005;stroke-linecap:butt;stroke-linejoin:round;stroke-miterlimit:10;stroke-dasharray:none;stroke-opacity:1"
               id="path280"
               inkscape:connector-curvature="0" /><path
               d="m 157.72,124.4 0,2.74"
               style="fill:none;stroke:#333333;stroke-width:1.07000005;stroke-linecap:butt;stroke-linejoin:round;stroke-miterlimit:10;stroke-dasharray:none;stroke-opacity:1"
               id="path282"
               inkscape:connector-curvature="0" /><path
               d="m 275.18,124.4 0,2.74"
               style="fill:none;stroke:#333333;stroke-width:1.07000005;stroke-linecap:butt;stroke-linejoin:round;stroke-miterlimit:10;stroke-dasharray:none;stroke-opacity:1"
               id="path284"
               inkscape:connector-curvature="0" /><path
               d="m 392.63,124.4 0,2.74"
               style="fill:none;stroke:#333333;stroke-width:1.07000005;stroke-linecap:butt;stroke-linejoin:round;stroke-miterlimit:10;stroke-dasharray:none;stroke-opacity:1"
               id="path286"
               inkscape:connector-curvature="0" /></g><g
             id="g288" /><g
             id="g290"><text
               transform="matrix(1,0,0,-1,35.14,115.74)"
               style="font-variant:normal;font-weight:normal;font-size:9px;font-family:Helvetica;-inkscape-font-specification:Helvetica;writing-mode:lr-tb;fill:#4d4d4d;fill-opacity:1;fill-rule:nonzero;stroke:none"
               id="text292"><tspan
                 x="0 5.256"
                 y="0"
                 sodipodi:role="line"
                 id="tspan294">−4</tspan></text>
<text
               transform="matrix(1,0,0,-1,152.59,115.74)"
               style="font-variant:normal;font-weight:normal;font-size:9px;font-family:Helvetica;-inkscape-font-specification:Helvetica;writing-mode:lr-tb;fill:#4d4d4d;fill-opacity:1;fill-rule:nonzero;stroke:none"
               id="text296"><tspan
                 x="0 5.256"
                 y="0"
                 sodipodi:role="line"
                 id="tspan298">−2</tspan></text>
<text
               transform="matrix(1,0,0,-1,272.67,115.74)"
               style="font-variant:normal;font-weight:normal;font-size:9px;font-family:Helvetica;-inkscape-font-specification:Helvetica;writing-mode:lr-tb;fill:#4d4d4d;fill-opacity:1;fill-rule:nonzero;stroke:none"
               id="text300"><tspan
                 x="0"
                 y="0"
                 id="tspan302">0</tspan></text>
<text
               transform="matrix(1,0,0,-1,390.13,115.74)"
               style="font-variant:normal;font-weight:normal;font-size:9px;font-family:Helvetica;-inkscape-font-specification:Helvetica;writing-mode:lr-tb;fill:#4d4d4d;fill-opacity:1;fill-rule:nonzero;stroke:none"
               id="text304"><tspan
                 x="0"
                 y="0"
                 id="tspan306">2</tspan></text>
</g><g
             id="g308" /><g
             id="g310" /><g
             id="g312" /><g
             id="g314" /><g
             id="g316" /><g
             id="g318"><text
               transform="matrix(1,0,0,-1,232.39,102.37)"
               style="font-variant:normal;font-weight:normal;font-size:11px;font-family:Helvetica;-inkscape-font-specification:Helvetica;writing-mode:lr-tb;fill:#000000;fill-opacity:1;fill-rule:nonzero;stroke:none"
               id="text320"><tspan
                 x="0 7.9419999 10.384 19.547001 22.605 25.663"
                 y="0"
                 sodipodi:role="line"
                 id="tspan322">Dim. 1</tspan></text>
</g><g
             id="g324" /><g
             id="g326"><text
               transform="matrix(0,1,1,0,13.38,221.22)"
               style="font-variant:normal;font-weight:normal;font-size:11px;font-family:Helvetica;-inkscape-font-specification:Helvetica;writing-mode:lr-tb;fill:#000000;fill-opacity:1;fill-rule:nonzero;stroke:none"
               id="text328"><tspan
                 x="0 7.9419999 10.384 19.547001 22.605 25.663"
                 y="0"
                 sodipodi:role="line"
                 id="tspan330">Dim. 2</tspan></text>
</g><g
             id="g332" /><g
             id="g334" /><g
             id="g336" /><g
             id="g338" /><g
             id="g340" /><g
             id="g342"><text
               transform="matrix(1,0,0,-1,34.05,356.3)"
               style="font-variant:normal;font-weight:normal;font-size:13px;font-family:Helvetica;-inkscape-font-specification:Helvetica;writing-mode:lr-tb;fill:#000000;fill-opacity:1;fill-rule:nonzero;stroke:none"
               id="text344"><tspan
                 x="0 8.6709995 15.899 23.127001 33.956001 41.183998 48.411999 52.026001 55.639999 59.254002 67.925003 71.539001 75.867996 83.096001 90.323997 93.938004 101.166 112.723"
                 y="0"
                 sodipodi:role="line"
                 id="tspan346">Segment IV (15.0%)</tspan></text>
</g><g
             id="g348" /><g
             id="g350" /><g
             id="g352" /><g
             id="g354" /></g></g></g></g></svg>