<?xml version="1.0" encoding="UTF-8" standalone="no"?>
<!-- Created with Inkscape (http://www.inkscape.org/) -->

<svg
   xmlns:dc="http://purl.org/dc/elements/1.1/"
   xmlns:cc="http://creativecommons.org/ns#"
   xmlns:rdf="http://www.w3.org/1999/02/22-rdf-syntax-ns#"
   xmlns:svg="http://www.w3.org/2000/svg"
   xmlns="http://www.w3.org/2000/svg"
   xmlns:sodipodi="http://sodipodi.sourceforge.net/DTD/sodipodi-0.dtd"
   xmlns:inkscape="http://www.inkscape.org/namespaces/inkscape"
   id="svg2"
   version="1.1"
   inkscape:version="0.91 r13725"
   xml:space="preserve"
   width="577.5"
   height="333.75"
   viewBox="0 0 577.5 333.75"
   sodipodi:docname="Paper-biplots-6-edit2.svg"><metadata
     id="metadata8"><rdf:RDF><cc:Work
         rdf:about=""><dc:format>image/svg+xml</dc:format><dc:type
           rdf:resource="http://purl.org/dc/dcmitype/StillImage" /><dc:title></dc:title></cc:Work></rdf:RDF></metadata><defs
     id="defs6"><clipPath
       clipPathUnits="userSpaceOnUse"
       id="clipPath18"><path
         d="M 0,0 468,0 468,468 0,468 0,0 Z"
         id="path20"
         inkscape:connector-curvature="0" /></clipPath><clipPath
       clipPathUnits="userSpaceOnUse"
       id="clipPath48"><path
         d="m 0,96.89 468,0 0,274.23 -468,0 0,-274.23 z"
         id="path50"
         inkscape:connector-curvature="0" /></clipPath><clipPath
       clipPathUnits="userSpaceOnUse"
       id="clipPath60"><path
         d="m 34.05,127.14 428.47,0 0,219.95 -428.47,0 0,-219.95 z"
         id="path62"
         inkscape:connector-curvature="0" /></clipPath></defs><sodipodi:namedview
     pagecolor="#ffffff"
     bordercolor="#666666"
     borderopacity="1"
     objecttolerance="10"
     gridtolerance="10"
     guidetolerance="10"
     inkscape:pageopacity="0"
     inkscape:pageshadow="2"
     inkscape:window-width="1873"
     inkscape:window-height="1056"
     id="namedview4"
     showgrid="false"
     inkscape:zoom="2.4727273"
     inkscape:cx="252.72609"
     inkscape:cy="179.24634"
     inkscape:window-x="47"
     inkscape:window-y="24"
     inkscape:window-maximized="1"
     inkscape:current-layer="g10" /><g
     id="g10"
     inkscape:groupmode="layer"
     inkscape:label="Paper-biplots-6"
     transform="matrix(1.25,0,0,-1.25,0,333.75)"><g
       id="g12"
       transform="translate(-1,-99)"><g
         id="g14"><g
           id="g16"
           clip-path="url(#clipPath18)"><g
             id="g22" /><g
             id="g24" /><g
             id="g26" /><g
             id="g28" /><g
             id="g30" /><g
             id="g32" /><g
             id="g34" /><g
             id="g36" /><g
             id="g38" /><g
             id="g40" /><g
             id="g42" /><g
             id="g44"><g
               id="g46"
               clip-path="url(#clipPath48)"><path
                 d="m 0,96.89 468,0 0,274.23 -468,0 0,-274.23 z"
                 style="fill:#ffffff;fill-opacity:1;fill-rule:nonzero;stroke:#ffffff;stroke-width:1.07000005;stroke-linecap:round;stroke-linejoin:round;stroke-miterlimit:10;stroke-dasharray:none;stroke-opacity:1"
                 id="path52"
                 inkscape:connector-curvature="0" /></g></g><g
             id="g54" /><g
             id="g56"><g
               id="g58"
               clip-path="url(#clipPath60)"><path
                 d="m 34.05,127.14 428.47,0 0,219.95 -428.47,0 0,-219.95 z"
                 style="fill:#ffffff;fill-opacity:1;fill-rule:nonzero;stroke:none"
                 id="path64"
                 inkscape:connector-curvature="0" /><path
                 d="m 275.18,232.61 99.5,36.54"
                 style="fill:none;stroke:#000000;stroke-width:1.07000005;stroke-linecap:butt;stroke-linejoin:round;stroke-miterlimit:10;stroke-dasharray:none;stroke-opacity:1"
                 id="path66"
                 inkscape:connector-curvature="0" /><path
                 d="m 371.96,265.89 2.72,3.26 -4.19,0.73"
                 style="fill:none;stroke:#000000;stroke-width:1.07000005;stroke-linecap:butt;stroke-linejoin:round;stroke-miterlimit:10;stroke-dasharray:none;stroke-opacity:1"
                 id="path68"
                 inkscape:connector-curvature="0" /><path
                 d="m 275.18,232.61 72.39,-19.75"
                 style="fill:none;stroke:#000000;stroke-width:1.07000005;stroke-linecap:butt;stroke-linejoin:round;stroke-miterlimit:10;stroke-dasharray:none;stroke-opacity:1"
                 id="path70"
                 inkscape:connector-curvature="0" /><path
                 d="m 343.46,211.78 4.11,1.08 -2.99,3.02"
                 style="fill:none;stroke:#000000;stroke-width:1.07000005;stroke-linecap:butt;stroke-linejoin:round;stroke-miterlimit:10;stroke-dasharray:none;stroke-opacity:1"
                 id="path72"
                 inkscape:connector-curvature="0" /><path
                 d="m 275.18,232.61 25.85,-47.25"
                 style="fill:none;stroke:#000000;stroke-width:1.07000005;stroke-linecap:butt;stroke-linejoin:round;stroke-miterlimit:10;stroke-dasharray:none;stroke-opacity:1"
                 id="path74"
                 inkscape:connector-curvature="0" /><path
                 d="m 297.4,187.57 3.63,-2.21 0.1,4.25"
                 style="fill:none;stroke:#000000;stroke-width:1.07000005;stroke-linecap:butt;stroke-linejoin:round;stroke-miterlimit:10;stroke-dasharray:none;stroke-opacity:1"
                 id="path76"
                 inkscape:connector-curvature="0" /><path
                 d="M 275.18,232.61 249.03,180.88"
                 style="fill:none;stroke:#000000;stroke-width:1.07000005;stroke-linecap:butt;stroke-linejoin:round;stroke-miterlimit:10;stroke-dasharray:none;stroke-opacity:1"
                 id="path78"
                 inkscape:connector-curvature="0" /><path
                 d="m 248.79,185.13 0.24,-4.25 3.56,2.33"
                 style="fill:none;stroke:#000000;stroke-width:1.07000005;stroke-linecap:butt;stroke-linejoin:round;stroke-miterlimit:10;stroke-dasharray:none;stroke-opacity:1"
                 id="path80"
                 inkscape:connector-curvature="0" /><path
                 d="M 275.18,232.61 217.62,206.14"
                 style="fill:none;stroke:#000000;stroke-width:1.07000005;stroke-linecap:butt;stroke-linejoin:round;stroke-miterlimit:10;stroke-dasharray:none;stroke-opacity:1"
                 id="path82"
                 inkscape:connector-curvature="0" /><path
                 d="m 220.08,209.61 -2.46,-3.47 4.24,-0.4"
                 style="fill:none;stroke:#000000;stroke-width:1.07000005;stroke-linecap:butt;stroke-linejoin:round;stroke-miterlimit:10;stroke-dasharray:none;stroke-opacity:1"
                 id="path84"
                 inkscape:connector-curvature="0" /><path
                 d="m 275.18,232.61 -90.93,19.9"
                 style="fill:none;stroke:#000000;stroke-width:1.07000005;stroke-linecap:butt;stroke-linejoin:round;stroke-miterlimit:10;stroke-dasharray:none;stroke-opacity:1"
                 id="path86"
                 inkscape:connector-curvature="0" /><path
                 d="m 188.3,253.8 -4.05,-1.29 3.14,-2.87"
                 style="fill:none;stroke:#000000;stroke-width:1.07000005;stroke-linecap:butt;stroke-linejoin:round;stroke-miterlimit:10;stroke-dasharray:none;stroke-opacity:1"
                 id="path88"
                 inkscape:connector-curvature="0" /><path
                 d="m 275.18,232.61 -23.13,88.74"
                 style="fill:none;stroke:#000000;stroke-width:1.07000005;stroke-linecap:butt;stroke-linejoin:round;stroke-miterlimit:10;stroke-dasharray:none;stroke-opacity:1"
                 id="path90"
                 inkscape:connector-curvature="0" /><path
                 d="m 255.04,318.32 -2.99,3.03 -1.13,-4.1"
                 style="fill:none;stroke:#000000;stroke-width:1.07000005;stroke-linecap:butt;stroke-linejoin:round;stroke-miterlimit:10;stroke-dasharray:none;stroke-opacity:1"
                 id="path92"
                 inkscape:connector-curvature="0" /><path
                 d="m 296.33,198.2 c 0,2.25 1.84,4.09 4.08,4.09 2.25,0 4.09,-1.84 4.09,-4.09 0,-2.25 -1.84,-4.09 -4.09,-4.09 -2.24,0 -4.08,1.84 -4.08,4.09"
                 style="fill:#d89000;fill-opacity:1;fill-rule:nonzero;stroke:#000000;stroke-width:0.70999998;stroke-linecap:round;stroke-linejoin:round;stroke-miterlimit:10;stroke-dasharray:none;stroke-opacity:1"
                 id="path94"
                 inkscape:connector-curvature="0" /><path
                 d="m 331.88,235.89 7.25,0 0,7.25 -7.25,0 0,-7.25 z"
                 style="fill:#d89000;fill-opacity:1;fill-rule:nonzero;stroke:#000000;stroke-width:0.70999998;stroke-linecap:round;stroke-linejoin:round;stroke-miterlimit:10;stroke-dasharray:none;stroke-opacity:1"
                 id="path96"
                 inkscape:connector-curvature="0" /><path
                 d="m 298.13,239.39 c 0,2.25 1.84,4.09 4.09,4.09 2.25,0 4.09,-1.84 4.09,-4.09 0,-2.25 -1.84,-4.09 -4.09,-4.09 -2.25,0 -4.09,1.84 -4.09,4.09"
                 style="fill:#ff62bc;fill-opacity:1;fill-rule:nonzero;stroke:#000000;stroke-width:0.70999998;stroke-linecap:round;stroke-linejoin:round;stroke-miterlimit:10;stroke-dasharray:none;stroke-opacity:1"
                 id="path98"
                 inkscape:connector-curvature="0" /><path
                 d="m 277.76,210.69 7.25,0 0,7.25 -7.25,0 0,-7.25 z"
                 style="fill:#ff62bc;fill-opacity:1;fill-rule:nonzero;stroke:#000000;stroke-width:0.70999998;stroke-linecap:round;stroke-linejoin:round;stroke-miterlimit:10;stroke-dasharray:none;stroke-opacity:1"
                 id="path100"
                 inkscape:connector-curvature="0" /><path
                 d="m 271.27,217.03 5.13,5.13 -5.13,5.12 -5.12,-5.12 5.12,-5.13 z"
                 style="fill:#ff62bc;fill-opacity:1;fill-rule:nonzero;stroke:#000000;stroke-width:0.70999998;stroke-linecap:round;stroke-linejoin:round;stroke-miterlimit:10;stroke-dasharray:none;stroke-opacity:1"
                 id="path102"
                 inkscape:connector-curvature="0" /><path
                 d="m 359.72,285.13 c 0,2.25 1.84,4.09 4.09,4.09 2.25,0 4.09,-1.84 4.09,-4.09 0,-2.25 -1.84,-4.09 -4.09,-4.09 -2.25,0 -4.09,1.84 -4.09,4.09"
                 style="fill:#00bfc4;fill-opacity:1;fill-rule:nonzero;stroke:#000000;stroke-width:0.70999998;stroke-linecap:round;stroke-linejoin:round;stroke-miterlimit:10;stroke-dasharray:none;stroke-opacity:1"
                 id="path104"
                 inkscape:connector-curvature="0" /><path
                 d="m 317.07,281.48 7.25,0 0,7.25 -7.25,0 0,-7.25 z"
                 style="fill:#00bfc4;fill-opacity:1;fill-rule:nonzero;stroke:#000000;stroke-width:0.70999998;stroke-linecap:round;stroke-linejoin:round;stroke-miterlimit:10;stroke-dasharray:none;stroke-opacity:1"
                 id="path106"
                 inkscape:connector-curvature="0" /><path
                 d="m 315.17,258.23 c 0,2.25 1.84,4.09 4.09,4.09 2.25,0 4.09,-1.84 4.09,-4.09 0,-2.25 -1.84,-4.09 -4.09,-4.09 -2.25,0 -4.09,1.84 -4.09,4.09"
                 style="fill:#9590ff;fill-opacity:1;fill-rule:nonzero;stroke:#000000;stroke-width:0.70999998;stroke-linecap:round;stroke-linejoin:round;stroke-miterlimit:10;stroke-dasharray:none;stroke-opacity:1"
                 id="path108"
                 inkscape:connector-curvature="0" /><path
                 d="m 283.51,221.11 7.25,0 0,7.25 -7.25,0 0,-7.25 z"
                 style="fill:#9590ff;fill-opacity:1;fill-rule:nonzero;stroke:#000000;stroke-width:0.70999998;stroke-linecap:round;stroke-linejoin:round;stroke-miterlimit:10;stroke-dasharray:none;stroke-opacity:1"
                 id="path110"
                 inkscape:connector-curvature="0" /><path
                 d="m 309.51,231.56 c 0,2.25 1.84,4.09 4.08,4.09 2.25,0 4.09,-1.84 4.09,-4.09 0,-2.25 -1.84,-4.09 -4.09,-4.09 -2.24,0 -4.08,1.84 -4.08,4.09"
                 style="fill:#39b600;fill-opacity:1;fill-rule:nonzero;stroke:#000000;stroke-width:0.70999998;stroke-linecap:round;stroke-linejoin:round;stroke-miterlimit:10;stroke-dasharray:none;stroke-opacity:1"
                 id="path112"
                 inkscape:connector-curvature="0" /><path
                 d="m 331.6,264.22 7.25,0 0,7.25 -7.25,0 0,-7.25 z"
                 style="fill:#39b600;fill-opacity:1;fill-rule:nonzero;stroke:#000000;stroke-width:0.70999998;stroke-linecap:round;stroke-linejoin:round;stroke-miterlimit:10;stroke-dasharray:none;stroke-opacity:1"
                 id="path114"
                 inkscape:connector-curvature="0" /><path
                 d="m 308.45,211.1 c 0,2.25 1.84,4.09 4.09,4.09 2.25,0 4.09,-1.84 4.09,-4.09 0,-2.25 -1.84,-4.09 -4.09,-4.09 -2.25,0 -4.09,1.84 -4.09,4.09"
                 style="fill:#f8766d;fill-opacity:1;fill-rule:nonzero;stroke:#000000;stroke-width:0.70999998;stroke-linecap:round;stroke-linejoin:round;stroke-miterlimit:10;stroke-dasharray:none;stroke-opacity:1"
                 id="path116"
                 inkscape:connector-curvature="0" /><path
                 d="m 309.7,200.33 7.25,0 0,7.25 -7.25,0 0,-7.25 z"
                 style="fill:#f8766d;fill-opacity:1;fill-rule:nonzero;stroke:#000000;stroke-width:0.70999998;stroke-linecap:round;stroke-linejoin:round;stroke-miterlimit:10;stroke-dasharray:none;stroke-opacity:1"
                 id="path118"
                 inkscape:connector-curvature="0" /><path
                 d="m 224.85,195.36 c 0,2.25 1.84,4.09 4.09,4.09 2.25,0 4.09,-1.84 4.09,-4.09 0,-2.25 -1.84,-4.09 -4.09,-4.09 -2.25,0 -4.09,1.84 -4.09,4.09"
                 style="fill:#00bf7d;fill-opacity:1;fill-rule:nonzero;stroke:#000000;stroke-width:0.70999998;stroke-linecap:round;stroke-linejoin:round;stroke-miterlimit:10;stroke-dasharray:none;stroke-opacity:1"
                 id="path120"
                 inkscape:connector-curvature="0" /><path
                 d="m 249.31,196.89 7.25,0 0,7.25 -7.25,0 0,-7.25 z"
                 style="fill:#00bf7d;fill-opacity:1;fill-rule:nonzero;stroke:#000000;stroke-width:0.70999998;stroke-linecap:round;stroke-linejoin:round;stroke-miterlimit:10;stroke-dasharray:none;stroke-opacity:1"
                 id="path122"
                 inkscape:connector-curvature="0" /><path
                 d="m 216.57,231.51 c 0,2.25 1.84,4.09 4.09,4.09 2.25,0 4.09,-1.84 4.09,-4.09 0,-2.25 -1.84,-4.09 -4.09,-4.09 -2.25,0 -4.09,1.84 -4.09,4.09"
                 style="fill:#00b0f6;fill-opacity:1;fill-rule:nonzero;stroke:#000000;stroke-width:0.70999998;stroke-linecap:round;stroke-linejoin:round;stroke-miterlimit:10;stroke-dasharray:none;stroke-opacity:1"
                 id="path124"
                 inkscape:connector-curvature="0" /><path
                 d="m 244.45,213.39 7.25,0 0,7.25 -7.25,0 0,-7.25 z"
                 style="fill:#00b0f6;fill-opacity:1;fill-rule:nonzero;stroke:#000000;stroke-width:0.70999998;stroke-linecap:round;stroke-linejoin:round;stroke-miterlimit:10;stroke-dasharray:none;stroke-opacity:1"
                 id="path126"
                 inkscape:connector-curvature="0" /><path
                 d="m 198.59,235.82 c 0,2.24 1.84,4.08 4.09,4.08 2.25,0 4.09,-1.84 4.09,-4.08 0,-2.25 -1.84,-4.09 -4.09,-4.09 -2.25,0 -4.09,1.84 -4.09,4.09"
                 style="fill:#a3a500;fill-opacity:1;fill-rule:nonzero;stroke:#000000;stroke-width:0.70999998;stroke-linecap:round;stroke-linejoin:round;stroke-miterlimit:10;stroke-dasharray:none;stroke-opacity:1"
                 id="path128"
                 inkscape:connector-curvature="0" /><path
                 d="m 203.88,213.31 7.25,0 0,7.25 -7.25,0 0,-7.25 z"
                 style="fill:#a3a500;fill-opacity:1;fill-rule:nonzero;stroke:#000000;stroke-width:0.70999998;stroke-linecap:round;stroke-linejoin:round;stroke-miterlimit:10;stroke-dasharray:none;stroke-opacity:1"
                 id="path130"
                 inkscape:connector-curvature="0" /><path
                 d="m 203.51,248.87 c 0,2.25 1.84,4.09 4.09,4.09 2.25,0 4.09,-1.84 4.09,-4.09 0,-2.25 -1.84,-4.09 -4.09,-4.09 -2.25,0 -4.09,1.84 -4.09,4.09"
                 style="fill:#e76bf3;fill-opacity:1;fill-rule:nonzero;stroke:#000000;stroke-width:0.70999998;stroke-linecap:round;stroke-linejoin:round;stroke-miterlimit:10;stroke-dasharray:none;stroke-opacity:1"
                 id="path132"
                 inkscape:connector-curvature="0" /><path
                 d="m 150.33,253.88 7.25,0 0,7.25 -7.25,0 0,-7.25 z"
                 style="fill:#e76bf3;fill-opacity:1;fill-rule:nonzero;stroke:#000000;stroke-width:0.70999998;stroke-linecap:round;stroke-linejoin:round;stroke-miterlimit:10;stroke-dasharray:none;stroke-opacity:1"
                 id="path134"
                 inkscape:connector-curvature="0" /><text
                 transform="scale(1,-1)"
                 style="font-variant:normal;font-weight:normal;font-size:11px;font-family:Helvetica;-inkscape-font-specification:Helvetica;writing-mode:lr-tb;fill:#000000;fill-opacity:1;fill-rule:nonzero;stroke:none"
                 id="text136"
                 x="344.31006"
                 y="-236.20996"><tspan
                   x="344.31006 351.64706 358.98407"
                   y="-236.20996"
                   sodipodi:role="line"
                   id="tspan138">BE2</tspan></text>
<text
                 transform="matrix(1,0,0,-1,353.11,293.03)"
                 style="font-variant:normal;font-weight:normal;font-size:11px;font-family:Helvetica;-inkscape-font-specification:Helvetica;writing-mode:lr-tb;fill:#000000;fill-opacity:1;fill-rule:nonzero;stroke:none"
                 id="text140"><tspan
                   x="0 7.3369999 15.279"
                   y="0"
                   sodipodi:role="line"
                   id="tspan142">SD1</tspan></text>
<text
                 transform="scale(1,-1)"
                 style="font-variant:normal;font-weight:normal;font-size:11px;font-family:Helvetica;-inkscape-font-specification:Helvetica;writing-mode:lr-tb;fill:#000000;fill-opacity:1;fill-rule:nonzero;stroke:none"
                 id="text144"
                 x="292.38995"
                 y="-282.11005"><tspan
                   x="292.38995 299.72693 307.66895"
                   y="-282.11005"
                   sodipodi:role="line"
                   id="tspan146">SD2</tspan></text>
<text
                 transform="scale(1,-1)"
                 style="font-variant:normal;font-weight:normal;font-size:11px;font-family:Helvetica;-inkscape-font-specification:Helvetica;writing-mode:lr-tb;fill:#000000;fill-opacity:1;fill-rule:nonzero;stroke:none"
                 id="text148"
                 x="326.12"
                 y="-274.45007"><tspan
                   x="326.12 334.06201 341.39902"
                   y="-274.45007"
                   sodipodi:role="line"
                   id="tspan150">HE2</tspan></text>
<text
                 transform="matrix(1,0,0,-1,217.93,179.57)"
                 style="font-variant:normal;font-weight:normal;font-size:11px;font-family:Helvetica;-inkscape-font-specification:Helvetica;writing-mode:lr-tb;fill:#000000;fill-opacity:1;fill-rule:nonzero;stroke:none"
                 id="text152"><tspan
                   x="0 7.3369999 15.895"
                   y="0"
                   sodipodi:role="line"
                   id="tspan154">PO1</tspan></text>
<text
                 transform="scale(1,-1)"
                 style="font-variant:normal;font-weight:normal;font-size:11px;font-family:Helvetica;-inkscape-font-specification:Helvetica;writing-mode:lr-tb;fill:#000000;fill-opacity:1;fill-rule:nonzero;stroke:none"
                 id="text156"
                 x="173.76993"
                 y="-232.82004"><tspan
                   x="173.76993 181.71193 190.26993"
                   y="-232.82004"
                   sodipodi:role="line"
                   id="tspan158">CO1</tspan></text>
<text
                 transform="scale(1,-1)"
                 style="font-variant:normal;font-weight:normal;font-size:11px;font-family:Helvetica;-inkscape-font-specification:Helvetica;writing-mode:lr-tb;fill:#000000;fill-opacity:1;fill-rule:nonzero;stroke:none"
                 id="text160"
                 x="176.98993"
                 y="-213.94005"><tspan
                   x="176.98993 184.93193 193.48993"
                   y="-213.94005"
                   sodipodi:role="line"
                   id="tspan162">CO2</tspan></text>
<text
                 transform="scale(1,-1)"
                 style="font-variant:normal;font-weight:normal;font-size:11px;font-family:Helvetica;-inkscape-font-specification:Helvetica;writing-mode:lr-tb;fill:#000000;fill-opacity:1;fill-rule:nonzero;stroke:none"
                 id="text164"
                 x="213.21007"
                 y="-247.47005"><tspan
                   x="213.21007 219.93106 227.87306"
                   y="-247.47005"
                   sodipodi:role="line"
                   id="tspan166">TR1</tspan></text>
<text
                 transform="matrix(1,0,0,-1,143.56,241.71)"
                 style="font-variant:normal;font-weight:normal;font-size:11px;font-family:Helvetica;-inkscape-font-specification:Helvetica;writing-mode:lr-tb;fill:#000000;fill-opacity:1;fill-rule:nonzero;stroke:none"
                 id="text168"><tspan
                   x="0 6.7210002 14.663"
                   y="0"
                   sodipodi:role="line"
                   id="tspan170">TR2</tspan></text>
<text
                 transform="scale(1,-1)"
                 style="font-variant:normal;font-weight:normal;font-size:9px;font-family:Helvetica;-inkscape-font-specification:Helvetica;writing-mode:lr-tb;fill:#000000;fill-opacity:1;fill-rule:nonzero;stroke:none"
                 id="text172"
                 x="354.7001"
                 y="-274.01001"><tspan
                   x="354.7001 359.98309 364.98709 368.25409 372.75409 375.2561 382.66309 387.66708 392.16708 397.17108 399.6731 401.67108 403.6691 407.98911 412.9931 415.49509 422.9921"
                   y="-274.01001"
                   sodipodi:role="line"
                   id="tspan174">Very much like me</tspan></text>
<text
                 transform="matrix(1,0,0,-1,341.31,203.17)"
                 style="font-variant:normal;font-weight:normal;font-size:9px;font-family:Helvetica;-inkscape-font-specification:Helvetica;writing-mode:lr-tb;fill:#000000;fill-opacity:1;fill-rule:nonzero;stroke:none"
                 id="text176"><tspan
                   x="0 5.0040002 7.0019999 11.322 16.326 18.827999 26.325001"
                   y="0"
                   sodipodi:role="line"
                   id="tspan178">Like me</tspan></text>
<text
                 transform="matrix(1,0,0,-1,282.74,175.67)"
                 style="font-variant:normal;font-weight:normal;font-size:9px;font-family:Helvetica;-inkscape-font-specification:Helvetica;writing-mode:lr-tb;fill:#000000;fill-opacity:1;fill-rule:nonzero;stroke:none"
                 id="text180"><tspan
                   x="0 6.0029998 11.007 18.504 23.327999 29.826 34.830002 39.834 42.335999 44.838001 46.835999 48.834 53.153999 58.158001 60.66 68.156998"
                   y="0"
                   sodipodi:role="line"
                   id="tspan182">Somewhat like me</tspan></text>
<text
                 transform="matrix(1,0,0,-1,199.23,171.19)"
                 style="font-variant:normal;font-weight:normal;font-size:9px;font-family:Helvetica;-inkscape-font-specification:Helvetica;writing-mode:lr-tb;fill:#000000;fill-opacity:1;fill-rule:nonzero;stroke:none"
                 id="text184"><tspan
                   x="0 6.0029998 8.5050001 10.503 12.501 15.003 17.504999 19.503 24.507 27.009001 29.007 31.004999 35.325001 40.328999 42.831001 50.327999"
                   y="0"
                   sodipodi:role="line"
                   id="tspan186">A little like me</tspan></text>
<text
                 transform="matrix(1,0,0,-1,177.28,196.44)"
                 style="font-variant:normal;font-weight:normal;font-size:9px;font-family:Helvetica;-inkscape-font-specification:Helvetica;writing-mode:lr-tb;fill:#000000;fill-opacity:1;fill-rule:nonzero;stroke:none"
                 id="text188"><tspan
                   x="0 6.4980001 11.502 14.004 16.506001 18.504 20.502001 24.822001 29.826 32.327999 39.825001"
                   y="0"
                   sodipodi:role="line"
                   id="tspan190">Not like me</tspan></text>
<text
                 transform="scale(1,-1)"
                 style="font-variant:normal;font-weight:normal;font-size:9px;font-family:Helvetica;-inkscape-font-specification:Helvetica;writing-mode:lr-tb;fill:#000000;fill-opacity:1;fill-rule:nonzero;stroke:none"
                 id="text192"
                 x="159.08002"
                 y="-258.94"><tspan
                   x="159.08002 165.57802 170.58203 173.08403 175.58603 177.58403 179.58203 183.90202 188.90602 191.40802 198.90503 203.90903 206.41103 211.41502 213.91702 216.41902 221.42302 223.42102"
                   y="-258.94"
                   sodipodi:role="line"
                   id="tspan194">Not like me at all</tspan></text>
<text
                 transform="matrix(1,0,0,-1,230.59,324.58)"
                 style="font-variant:normal;font-weight:normal;font-size:9px;font-family:Helvetica;-inkscape-font-specification:Helvetica;writing-mode:lr-tb;fill:#000000;fill-opacity:1;fill-rule:nonzero;stroke:none"
                 id="text196"><tspan
                   x="0 6.4980001 11.502 14.004 19.007999 24.011999 28.511999 34.919998 39.924"
                   y="0"
                   sodipodi:role="line"
                   id="tspan198">No answer</tspan></text>
<path
                 d="m 34.05,127.14 428.47,0 0,219.95 -428.47,0 0,-219.95 z"
                 style="fill:none;stroke:#333333;stroke-width:1.07000005;stroke-linecap:round;stroke-linejoin:round;stroke-miterlimit:10;stroke-dasharray:none;stroke-opacity:1"
                 id="path200"
                 inkscape:connector-curvature="0" /></g></g><g
             id="g202" /><g
             id="g204" /><g
             id="g206" /><g
             id="g208" /><g
             id="g210" /><g
             id="g212" /><g
             id="g214" /><g
             id="g216" /><g
             id="g218" /><g
             id="g220" /><g
             id="g222" /><g
             id="g224" /><g
             id="g226" /><g
             id="g228" /><g
             id="g230" /><g
             id="g232"><text
               transform="matrix(1,0,0,-1,18.86,170.65)"
               style="font-variant:normal;font-weight:normal;font-size:9px;font-family:Helvetica;-inkscape-font-specification:Helvetica;writing-mode:lr-tb;fill:#4d4d4d;fill-opacity:1;fill-rule:nonzero;stroke:none"
               id="text234"><tspan
                 x="0 5.256"
                 y="0"
                 sodipodi:role="line"
                 id="tspan236">−1</tspan></text>
<text
               transform="matrix(1,0,0,-1,24.11,229.38)"
               style="font-variant:normal;font-weight:normal;font-size:9px;font-family:Helvetica;-inkscape-font-specification:Helvetica;writing-mode:lr-tb;fill:#4d4d4d;fill-opacity:1;fill-rule:nonzero;stroke:none"
               id="text238"><tspan
                 x="0"
                 y="0"
                 id="tspan240">0</tspan></text>
<text
               transform="matrix(1,0,0,-1,24.11,288.1)"
               style="font-variant:normal;font-weight:normal;font-size:9px;font-family:Helvetica;-inkscape-font-specification:Helvetica;writing-mode:lr-tb;fill:#4d4d4d;fill-opacity:1;fill-rule:nonzero;stroke:none"
               id="text242"><tspan
                 x="0"
                 y="0"
                 id="tspan244">1</tspan></text>
</g><g
             id="g246" /><g
             id="g248"><path
               d="m 31.31,173.88 2.74,0"
               style="fill:none;stroke:#333333;stroke-width:1.07000005;stroke-linecap:butt;stroke-linejoin:round;stroke-miterlimit:10;stroke-dasharray:none;stroke-opacity:1"
               id="path250"
               inkscape:connector-curvature="0" /><path
               d="m 31.31,232.61 2.74,0"
               style="fill:none;stroke:#333333;stroke-width:1.07000005;stroke-linecap:butt;stroke-linejoin:round;stroke-miterlimit:10;stroke-dasharray:none;stroke-opacity:1"
               id="path252"
               inkscape:connector-curvature="0" /><path
               d="m 31.31,291.33 2.74,0"
               style="fill:none;stroke:#333333;stroke-width:1.07000005;stroke-linecap:butt;stroke-linejoin:round;stroke-miterlimit:10;stroke-dasharray:none;stroke-opacity:1"
               id="path254"
               inkscape:connector-curvature="0" /></g><g
             id="g256" /><g
             id="g258" /><g
             id="g260" /><g
             id="g262" /><g
             id="g264" /><g
             id="g266" /><g
             id="g268" /><g
             id="g270" /><g
             id="g272" /><g
             id="g274"><path
               d="m 40.27,124.4 0,2.74"
               style="fill:none;stroke:#333333;stroke-width:1.07000005;stroke-linecap:butt;stroke-linejoin:round;stroke-miterlimit:10;stroke-dasharray:none;stroke-opacity:1"
               id="path276"
               inkscape:connector-curvature="0" /><path
               d="m 157.72,124.4 0,2.74"
               style="fill:none;stroke:#333333;stroke-width:1.07000005;stroke-linecap:butt;stroke-linejoin:round;stroke-miterlimit:10;stroke-dasharray:none;stroke-opacity:1"
               id="path278"
               inkscape:connector-curvature="0" /><path
               d="m 275.18,124.4 0,2.74"
               style="fill:none;stroke:#333333;stroke-width:1.07000005;stroke-linecap:butt;stroke-linejoin:round;stroke-miterlimit:10;stroke-dasharray:none;stroke-opacity:1"
               id="path280"
               inkscape:connector-curvature="0" /><path
               d="m 392.63,124.4 0,2.74"
               style="fill:none;stroke:#333333;stroke-width:1.07000005;stroke-linecap:butt;stroke-linejoin:round;stroke-miterlimit:10;stroke-dasharray:none;stroke-opacity:1"
               id="path282"
               inkscape:connector-curvature="0" /></g><g
             id="g284" /><g
             id="g286"><text
               transform="matrix(1,0,0,-1,35.14,115.74)"
               style="font-variant:normal;font-weight:normal;font-size:9px;font-family:Helvetica;-inkscape-font-specification:Helvetica;writing-mode:lr-tb;fill:#4d4d4d;fill-opacity:1;fill-rule:nonzero;stroke:none"
               id="text288"><tspan
                 x="0 5.256"
                 y="0"
                 sodipodi:role="line"
                 id="tspan290">−4</tspan></text>
<text
               transform="matrix(1,0,0,-1,152.59,115.74)"
               style="font-variant:normal;font-weight:normal;font-size:9px;font-family:Helvetica;-inkscape-font-specification:Helvetica;writing-mode:lr-tb;fill:#4d4d4d;fill-opacity:1;fill-rule:nonzero;stroke:none"
               id="text292"><tspan
                 x="0 5.256"
                 y="0"
                 sodipodi:role="line"
                 id="tspan294">−2</tspan></text>
<text
               transform="matrix(1,0,0,-1,272.67,115.74)"
               style="font-variant:normal;font-weight:normal;font-size:9px;font-family:Helvetica;-inkscape-font-specification:Helvetica;writing-mode:lr-tb;fill:#4d4d4d;fill-opacity:1;fill-rule:nonzero;stroke:none"
               id="text296"><tspan
                 x="0"
                 y="0"
                 id="tspan298">0</tspan></text>
<text
               transform="matrix(1,0,0,-1,390.13,115.74)"
               style="font-variant:normal;font-weight:normal;font-size:9px;font-family:Helvetica;-inkscape-font-specification:Helvetica;writing-mode:lr-tb;fill:#4d4d4d;fill-opacity:1;fill-rule:nonzero;stroke:none"
               id="text300"><tspan
                 x="0"
                 y="0"
                 id="tspan302">2</tspan></text>
</g><g
             id="g304" /><g
             id="g306" /><g
             id="g308" /><g
             id="g310" /><g
             id="g312" /><g
             id="g314"><text
               transform="matrix(1,0,0,-1,232.39,102.37)"
               style="font-variant:normal;font-weight:normal;font-size:11px;font-family:Helvetica;-inkscape-font-specification:Helvetica;writing-mode:lr-tb;fill:#000000;fill-opacity:1;fill-rule:nonzero;stroke:none"
               id="text316"><tspan
                 x="0 7.9419999 10.384 19.547001 22.605 25.663"
                 y="0"
                 sodipodi:role="line"
                 id="tspan318">Dim. 1</tspan></text>
</g><g
             id="g320" /><g
             id="g322"><text
               transform="matrix(0,1,1,0,13.38,221.22)"
               style="font-variant:normal;font-weight:normal;font-size:11px;font-family:Helvetica;-inkscape-font-specification:Helvetica;writing-mode:lr-tb;fill:#000000;fill-opacity:1;fill-rule:nonzero;stroke:none"
               id="text324"><tspan
                 x="0 7.9419999 10.384 19.547001 22.605 25.663"
                 y="0"
                 sodipodi:role="line"
                 id="tspan326">Dim. 2</tspan></text>
</g><g
             id="g328" /><g
             id="g330" /><g
             id="g332" /><g
             id="g334" /><g
             id="g336" /><g
             id="g338"><text
               transform="matrix(1,0,0,-1,34.05,356.3)"
               style="font-variant:normal;font-weight:normal;font-size:13px;font-family:Helvetica;-inkscape-font-specification:Helvetica;writing-mode:lr-tb;fill:#000000;fill-opacity:1;fill-rule:nonzero;stroke:none"
               id="text340"><tspan
                 x="0 8.6709995 15.899 23.127001 33.956001 41.183998 48.411999 52.026001 55.639999 64.310997 67.925003 71.539001 75.867996 83.096001 90.323997 93.938004 101.166 112.723"
                 y="0"
                 sodipodi:role="line"
                 id="tspan342">Segment VI (14.3%)</tspan></text>
</g><g
             id="g344" /><g
             id="g346" /><g
             id="g348" /><g
             id="g350" /></g></g></g></g></svg>