<?xml version="1.0" encoding="UTF-8" standalone="no"?>
<!-- Created with Inkscape (http://www.inkscape.org/) -->

<svg
   xmlns:dc="http://purl.org/dc/elements/1.1/"
   xmlns:cc="http://creativecommons.org/ns#"
   xmlns:rdf="http://www.w3.org/1999/02/22-rdf-syntax-ns#"
   xmlns:svg="http://www.w3.org/2000/svg"
   xmlns="http://www.w3.org/2000/svg"
   xmlns:sodipodi="http://sodipodi.sourceforge.net/DTD/sodipodi-0.dtd"
   xmlns:inkscape="http://www.inkscape.org/namespaces/inkscape"
   id="svg3357"
   version="1.1"
   inkscape:version="0.48.4 r9939"
   width="558.75"
   height="320"
   xml:space="preserve"
   sodipodi:docname="Paper-biplots-2.pdf"><metadata
     id="metadata3363"><rdf:RDF><cc:Work
         rdf:about=""><dc:format>image/svg+xml</dc:format><dc:type
           rdf:resource="http://purl.org/dc/dcmitype/StillImage" /><dc:title></dc:title></cc:Work></rdf:RDF></metadata><defs
     id="defs3361"><clipPath
       clipPathUnits="userSpaceOnUse"
       id="clipPath3373"><path
         d="M 0,0 468,0 468,468 0,468 0,0 z"
         id="path3375" /></clipPath><clipPath
       clipPathUnits="userSpaceOnUse"
       id="clipPath3385"><path
         d="m 0,93.76 468,0 0,280.48 -468,0 0,-280.48 z"
         id="path3387" /></clipPath><clipPath
       clipPathUnits="userSpaceOnUse"
       id="clipPath3401"><path
         d="m 41.5,131.04 412.1,0 0,211.54 -412.1,0 0,-211.54 z"
         id="path3403" /></clipPath></defs><sodipodi:namedview
     pagecolor="#ffffff"
     bordercolor="#666666"
     borderopacity="1"
     objecttolerance="10"
     gridtolerance="10"
     guidetolerance="10"
     inkscape:pageopacity="0"
     inkscape:pageshadow="2"
     inkscape:window-width="1873"
     inkscape:window-height="1056"
     id="namedview3359"
     showgrid="false"
     inkscape:zoom="1.7767837"
     inkscape:cx="328.81304"
     inkscape:cy="183.92138"
     inkscape:window-x="1967"
     inkscape:window-y="24"
     inkscape:window-maximized="1"
     inkscape:current-layer="g3365" /><g
     id="g3365"
     inkscape:groupmode="layer"
     inkscape:label="Paper-biplots-2"
     transform="matrix(1.25,0,0,-1.25,0,320)"><g
       id="g3367"
       transform="translate(-7,-101)"><g
         id="g3369"><g
           id="g3371"
           clip-path="url(#clipPath3373)"><g
             id="g3377" /><g
             id="g3379" /><g
             id="g3381"><g
               id="g3383"
               clip-path="url(#clipPath3385)"><path
                 d="m 0,93.76 468,0 0,280.48 -468,0 0,-280.48 z"
                 style="fill:#ffffff;fill-opacity:1;fill-rule:nonzero;stroke:#ffffff;stroke-opacity:1;stroke-width:1.06;stroke-linecap:round;stroke-linejoin:round;stroke-miterlimit:10;stroke-dasharray:none"
                 id="path3389" /></g></g><g
             id="g3391" /><g
             id="g3393" /><g
             id="g3395" /><g
             id="g3397"><g
               id="g3399"
               clip-path="url(#clipPath3401)"><path
                 d="m 41.5,131.04 412.1,0 0,211.54 -412.1,0 0,-211.54 z"
                 style="fill:#ffffff;fill-opacity:1;fill-rule:nonzero;stroke:none"
                 id="path3405" /><path
                 d="m 273.42,232.48 95.7,35.15"
                 style="fill:none;stroke:#000000;stroke-opacity:1;stroke-width:1.06;stroke-linecap:butt;stroke-linejoin:round;stroke-miterlimit:10;stroke-dasharray:none"
                 id="path3407" /><path
                 d="m 366.39,264.37 2.73,3.26 -4.19,0.73"
                 style="fill:none;stroke:#000000;stroke-opacity:1;stroke-width:1.06;stroke-linecap:butt;stroke-linejoin:round;stroke-miterlimit:10;stroke-dasharray:none"
                 id="path3409" /><path
                 d="m 273.42,232.48 69.62,-18.99"
                 style="fill:none;stroke:#000000;stroke-opacity:1;stroke-width:1.06;stroke-linecap:butt;stroke-linejoin:round;stroke-miterlimit:10;stroke-dasharray:none"
                 id="path3411" /><path
                 d="m 338.93,212.41 4.11,1.08 -2.99,3.02"
                 style="fill:none;stroke:#000000;stroke-opacity:1;stroke-width:1.06;stroke-linecap:butt;stroke-linejoin:round;stroke-miterlimit:10;stroke-dasharray:none"
                 id="path3413" /><path
                 d="m 273.42,232.48 24.86,-45.44"
                 style="fill:none;stroke:#000000;stroke-opacity:1;stroke-width:1.06;stroke-linecap:butt;stroke-linejoin:round;stroke-miterlimit:10;stroke-dasharray:none"
                 id="path3415" /><path
                 d="m 294.65,189.25 3.63,-2.21 0.1,4.25"
                 style="fill:none;stroke:#000000;stroke-opacity:1;stroke-width:1.06;stroke-linecap:butt;stroke-linejoin:round;stroke-miterlimit:10;stroke-dasharray:none"
                 id="path3417" /><path
                 d="M 273.42,232.48 248.27,182.74"
                 style="fill:none;stroke:#000000;stroke-opacity:1;stroke-width:1.06;stroke-linecap:butt;stroke-linejoin:round;stroke-miterlimit:10;stroke-dasharray:none"
                 id="path3419" /><path
                 d="m 248.03,186.98 0.24,-4.24 3.55,2.32"
                 style="fill:none;stroke:#000000;stroke-opacity:1;stroke-width:1.06;stroke-linecap:butt;stroke-linejoin:round;stroke-miterlimit:10;stroke-dasharray:none"
                 id="path3421" /><path
                 d="M 273.42,232.48 218.06,207.02"
                 style="fill:none;stroke:#000000;stroke-opacity:1;stroke-width:1.06;stroke-linecap:butt;stroke-linejoin:round;stroke-miterlimit:10;stroke-dasharray:none"
                 id="path3423" /><path
                 d="m 220.52,210.49 -2.46,-3.47 4.24,-0.39"
                 style="fill:none;stroke:#000000;stroke-opacity:1;stroke-width:1.06;stroke-linecap:butt;stroke-linejoin:round;stroke-miterlimit:10;stroke-dasharray:none"
                 id="path3425" /><path
                 d="m 273.42,232.48 -87.46,19.14"
                 style="fill:none;stroke:#000000;stroke-opacity:1;stroke-width:1.06;stroke-linecap:butt;stroke-linejoin:round;stroke-miterlimit:10;stroke-dasharray:none"
                 id="path3427" /><path
                 d="m 190.02,252.91 -4.06,-1.29 3.15,-2.86"
                 style="fill:none;stroke:#000000;stroke-opacity:1;stroke-width:1.06;stroke-linecap:butt;stroke-linejoin:round;stroke-miterlimit:10;stroke-dasharray:none"
                 id="path3429" /><path
                 d="m 273.42,232.48 -22.25,85.35"
                 style="fill:none;stroke:#000000;stroke-opacity:1;stroke-width:1.06;stroke-linecap:butt;stroke-linejoin:round;stroke-miterlimit:10;stroke-dasharray:none"
                 id="path3431" /><path
                 d="m 254.16,314.81 -2.99,3.02 -1.12,-4.1"
                 style="fill:none;stroke:#000000;stroke-opacity:1;stroke-width:1.06;stroke-linecap:butt;stroke-linejoin:round;stroke-miterlimit:10;stroke-dasharray:none"
                 id="path3433" /><path
                 d="m 312.84,241.55 c 0,2.05 1.67,3.72 3.72,3.72 2.04,0 3.72,-1.67 3.72,-3.72 0,-2.04 -1.68,-3.72 -3.72,-3.72 -2.05,0 -3.72,1.68 -3.72,3.72"
                 style="fill:#d89000;fill-opacity:1;fill-rule:nonzero;stroke:#000000;stroke-opacity:1;stroke-width:0.75;stroke-linecap:round;stroke-linejoin:round;stroke-miterlimit:10;stroke-dasharray:none"
                 id="path3435" /><path
                 d="m 362.87,225.3 6.59,0 0,6.59 -6.59,0 0,-6.59 z"
                 style="fill:#d89000;fill-opacity:1;fill-rule:nonzero;stroke:#000000;stroke-opacity:1;stroke-width:0.75;stroke-linecap:round;stroke-linejoin:round;stroke-miterlimit:10;stroke-dasharray:none"
                 id="path3437" /><path
                 d="m 319.92,267.39 c 0,2.05 1.68,3.73 3.72,3.73 2.05,0 3.72,-1.68 3.72,-3.73 0,-2.04 -1.67,-3.72 -3.72,-3.72 -2.04,0 -3.72,1.68 -3.72,3.72"
                 style="fill:#ff62bc;fill-opacity:1;fill-rule:nonzero;stroke:#000000;stroke-opacity:1;stroke-width:0.75;stroke-linecap:round;stroke-linejoin:round;stroke-miterlimit:10;stroke-dasharray:none"
                 id="path3439" /><path
                 d="m 301.8,199.26 6.59,0 0,6.59 -6.59,0 0,-6.59 z"
                 style="fill:#ff62bc;fill-opacity:1;fill-rule:nonzero;stroke:#000000;stroke-opacity:1;stroke-width:0.75;stroke-linecap:round;stroke-linejoin:round;stroke-miterlimit:10;stroke-dasharray:none"
                 id="path3441" /><path
                 d="m 304.58,258.14 4.66,4.66 -4.66,4.66 -4.67,-4.66 4.67,-4.66 z"
                 style="fill:#ff62bc;fill-opacity:1;fill-rule:nonzero;stroke:#000000;stroke-opacity:1;stroke-width:0.75;stroke-linecap:round;stroke-linejoin:round;stroke-miterlimit:10;stroke-dasharray:none"
                 id="path3443" /><path
                 d="m 328.97,277.15 c 0,2.05 1.67,3.72 3.72,3.72 2.05,0 3.72,-1.67 3.72,-3.72 0,-2.04 -1.67,-3.72 -3.72,-3.72 -2.05,0 -3.72,1.68 -3.72,3.72"
                 style="fill:#00bfc4;fill-opacity:1;fill-rule:nonzero;stroke:#000000;stroke-opacity:1;stroke-width:0.75;stroke-linecap:round;stroke-linejoin:round;stroke-miterlimit:10;stroke-dasharray:none"
                 id="path3445" /><path
                 d="m 269.57,267.98 6.59,0 0,6.59 -6.59,0 0,-6.59 z"
                 style="fill:#00bfc4;fill-opacity:1;fill-rule:nonzero;stroke:#000000;stroke-opacity:1;stroke-width:0.75;stroke-linecap:round;stroke-linejoin:round;stroke-miterlimit:10;stroke-dasharray:none"
                 id="path3447" /><path
                 d="m 234.7,234.34 c 0,2.05 1.67,3.72 3.72,3.72 2.05,0 3.72,-1.67 3.72,-3.72 0,-2.04 -1.67,-3.72 -3.72,-3.72 -2.05,0 -3.72,1.68 -3.72,3.72"
                 style="fill:#9590ff;fill-opacity:1;fill-rule:nonzero;stroke:#000000;stroke-opacity:1;stroke-width:0.75;stroke-linecap:round;stroke-linejoin:round;stroke-miterlimit:10;stroke-dasharray:none"
                 id="path3449" /><path
                 d="m 156.02,178.41 6.59,0 0,6.59 -6.59,0 0,-6.59 z"
                 style="fill:#9590ff;fill-opacity:1;fill-rule:nonzero;stroke:#000000;stroke-opacity:1;stroke-width:0.75;stroke-linecap:round;stroke-linejoin:round;stroke-miterlimit:10;stroke-dasharray:none"
                 id="path3451" /><path
                 d="m 256.58,210.82 c 0,2.05 1.68,3.72 3.72,3.72 2.05,0 3.72,-1.67 3.72,-3.72 0,-2.04 -1.67,-3.72 -3.72,-3.72 -2.04,0 -3.72,1.68 -3.72,3.72"
                 style="fill:#39b600;fill-opacity:1;fill-rule:nonzero;stroke:#000000;stroke-opacity:1;stroke-width:0.75;stroke-linecap:round;stroke-linejoin:round;stroke-miterlimit:10;stroke-dasharray:none"
                 id="path3453" /><path
                 d="m 272.07,242.72 6.59,0 0,6.59 -6.59,0 0,-6.59 z"
                 style="fill:#39b600;fill-opacity:1;fill-rule:nonzero;stroke:#000000;stroke-opacity:1;stroke-width:0.75;stroke-linecap:round;stroke-linejoin:round;stroke-miterlimit:10;stroke-dasharray:none"
                 id="path3455" /><path
                 d="m 277.52,195.73 c 0,2.05 1.67,3.72 3.72,3.72 2.04,0 3.72,-1.67 3.72,-3.72 0,-2.05 -1.68,-3.72 -3.72,-3.72 -2.05,0 -3.72,1.67 -3.72,3.72"
                 style="fill:#f8766d;fill-opacity:1;fill-rule:nonzero;stroke:#000000;stroke-opacity:1;stroke-width:0.75;stroke-linecap:round;stroke-linejoin:round;stroke-miterlimit:10;stroke-dasharray:none"
                 id="path3457" /><path
                 d="m 294.92,173.53 6.59,0 0,6.59 -6.59,0 0,-6.59 z"
                 style="fill:#f8766d;fill-opacity:1;fill-rule:nonzero;stroke:#000000;stroke-opacity:1;stroke-width:0.75;stroke-linecap:round;stroke-linejoin:round;stroke-miterlimit:10;stroke-dasharray:none"
                 id="path3459" /><path
                 d="m 160.66,213.08 c 0,2.04 1.68,3.72 3.72,3.72 2.05,0 3.72,-1.68 3.72,-3.72 0,-2.05 -1.67,-3.72 -3.72,-3.72 -2.04,0 -3.72,1.67 -3.72,3.72"
                 style="fill:#00bf7d;fill-opacity:1;fill-rule:nonzero;stroke:#000000;stroke-opacity:1;stroke-width:0.75;stroke-linecap:round;stroke-linejoin:round;stroke-miterlimit:10;stroke-dasharray:none"
                 id="path3461" /><path
                 d="m 259.05,203.42 6.59,0 0,6.59 -6.59,0 0,-6.59 z"
                 style="fill:#00bf7d;fill-opacity:1;fill-rule:nonzero;stroke:#000000;stroke-opacity:1;stroke-width:0.75;stroke-linecap:round;stroke-linejoin:round;stroke-miterlimit:10;stroke-dasharray:none"
                 id="path3463" /><path
                 d="m 288.4,255.35 c 0,2.05 1.67,3.73 3.72,3.73 2.04,0 3.72,-1.68 3.72,-3.73 0,-2.04 -1.68,-3.72 -3.72,-3.72 -2.05,0 -3.72,1.68 -3.72,3.72"
                 style="fill:#00b0f6;fill-opacity:1;fill-rule:nonzero;stroke:#000000;stroke-opacity:1;stroke-width:0.75;stroke-linecap:round;stroke-linejoin:round;stroke-miterlimit:10;stroke-dasharray:none"
                 id="path3465" /><path
                 d="m 293.61,240.23 6.59,0 0,6.59 -6.59,0 0,-6.59 z"
                 style="fill:#00b0f6;fill-opacity:1;fill-rule:nonzero;stroke:#000000;stroke-opacity:1;stroke-width:0.75;stroke-linecap:round;stroke-linejoin:round;stroke-miterlimit:10;stroke-dasharray:none"
                 id="path3467" /><path
                 d="m 257.89,241.22 c 0,2.05 1.68,3.72 3.72,3.72 2.05,0 3.72,-1.67 3.72,-3.72 0,-2.04 -1.67,-3.72 -3.72,-3.72 -2.04,0 -3.72,1.68 -3.72,3.72"
                 style="fill:#a3a500;fill-opacity:1;fill-rule:nonzero;stroke:#000000;stroke-opacity:1;stroke-width:0.75;stroke-linecap:round;stroke-linejoin:round;stroke-miterlimit:10;stroke-dasharray:none"
                 id="path3469" /><path
                 d="m 288.69,218.35 6.59,0 0,6.59 -6.59,0 0,-6.59 z"
                 style="fill:#a3a500;fill-opacity:1;fill-rule:nonzero;stroke:#000000;stroke-opacity:1;stroke-width:0.75;stroke-linecap:round;stroke-linejoin:round;stroke-miterlimit:10;stroke-dasharray:none"
                 id="path3471" /><path
                 d="m 247.34,266.84 c 0,2.05 1.68,3.72 3.72,3.72 2.05,0 3.72,-1.67 3.72,-3.72 0,-2.04 -1.67,-3.72 -3.72,-3.72 -2.04,0 -3.72,1.68 -3.72,3.72"
                 style="fill:#e76bf3;fill-opacity:1;fill-rule:nonzero;stroke:#000000;stroke-opacity:1;stroke-width:0.75;stroke-linecap:round;stroke-linejoin:round;stroke-miterlimit:10;stroke-dasharray:none"
                 id="path3473" /><path
                 d="m 183.54,233.69 6.59,0 0,6.59 -6.59,0 0,-6.59 z"
                 style="fill:#e76bf3;fill-opacity:1;fill-rule:nonzero;stroke:#000000;stroke-opacity:1;stroke-width:0.75;stroke-linecap:round;stroke-linejoin:round;stroke-miterlimit:10;stroke-dasharray:none"
                 id="path3475" /><text
                 transform="matrix(1,0,0,-1,306.16,225.76)"
                 id="text3477"><tspan
                   style="fill:#000000;fill-opacity:1;fill-rule:nonzero;stroke:none;font-family:Helvetica;font-variant:normal;font-weight:normal;font-size:11;writing-mode:lr;-inkscape-font-specification:Helvetica"
                   x="0 7.337 14.674"
                   y="0"
                   sodipodi:role="line"
                   id="tspan3479">BE1</tspan></text>
<text
                 transform="matrix(1,0,0,-1,355.78,212.8)"
                 id="text3481"><tspan
                   style="fill:#000000;fill-opacity:1;fill-rule:nonzero;stroke:none;font-family:Helvetica;font-variant:normal;font-weight:normal;font-size:11;writing-mode:lr;-inkscape-font-specification:Helvetica"
                   x="0 7.337 14.674"
                   y="0"
                   sodipodi:role="line"
                   id="tspan3483">BE2</tspan></text>
<text
                 transform="scale(1,-1)"
                 id="text3485"
                 x="327.92206"
                 y="-260.9921"><tspan
                   style="font-size:11px;font-variant:normal;font-weight:normal;writing-mode:lr-tb;fill:#000000;fill-opacity:1;fill-rule:nonzero;stroke:none;font-family:Helvetica;-inkscape-font-specification:Helvetica"
                   x="327.92206 335.86404 343.80606"
                   y="-260.9921"
                   sodipodi:role="line"
                   id="tspan3487">UN1</tspan></text>
<text
                 transform="scale(1,-1)"
                 id="text3489"
                 x="310.32718"
                 y="-195.03778"><tspan
                   style="font-size:11px;font-variant:normal;font-weight:normal;writing-mode:lr-tb;fill:#000000;fill-opacity:1;fill-rule:nonzero;stroke:none;font-family:Helvetica;-inkscape-font-specification:Helvetica"
                   x="310.32718 318.2692 326.21118"
                   y="-195.03778"
                   sodipodi:role="line"
                   id="tspan3491">UN2</tspan></text>
<text
                 transform="scale(1,-1)"
                 id="text3493"
                 x="289.60031"
                 y="-271.03738"><tspan
                   style="font-size:11px;font-variant:normal;font-weight:normal;writing-mode:lr-tb;fill:#000000;fill-opacity:1;fill-rule:nonzero;stroke:none;font-family:Helvetica;-inkscape-font-specification:Helvetica"
                   x="289.60031 297.5423 305.48431"
                   y="-271.03738"
                   sodipodi:role="line"
                   id="tspan3495">UN3</tspan></text>
<text
                 transform="matrix(1,0,0,-1,321.99,285.05)"
                 id="text3497"><tspan
                   style="fill:#000000;fill-opacity:1;fill-rule:nonzero;stroke:none;font-family:Helvetica;font-variant:normal;font-weight:normal;font-size:11;writing-mode:lr;-inkscape-font-specification:Helvetica"
                   x="0 7.337 15.279"
                   y="0"
                   sodipodi:role="line"
                   id="tspan3499">SD1</tspan></text>
<text
                 transform="scale(1,-1)"
                 id="text3501"
                 x="262.64755"
                 y="-279.03983"><tspan
                   style="font-size:11px;font-variant:normal;font-weight:normal;writing-mode:lr-tb;fill:#000000;fill-opacity:1;fill-rule:nonzero;stroke:none;font-family:Helvetica;-inkscape-font-specification:Helvetica"
                   x="262.64755 269.98456 277.92657"
                   y="-279.03983"
                   sodipodi:role="line"
                   id="tspan3503">SD2</tspan></text>
<text
                 transform="matrix(1,0,0,-1,149.23,165.91)"
                 id="text3505"><tspan
                   style="fill:#000000;fill-opacity:1;fill-rule:nonzero;stroke:none;font-family:Helvetica;font-variant:normal;font-weight:normal;font-size:11;writing-mode:lr;-inkscape-font-specification:Helvetica"
                   x="0 7.337 14.058"
                   y="0"
                   sodipodi:role="line"
                   id="tspan3507">ST2</tspan></text>
<text
                 transform="matrix(1,0,0,-1,287.68,161.03)"
                 id="text3509"><tspan
                   style="fill:#000000;fill-opacity:1;fill-rule:nonzero;stroke:none;font-family:Helvetica;font-variant:normal;font-weight:normal;font-size:11;writing-mode:lr;-inkscape-font-specification:Helvetica"
                   x="0 7.007 14.949"
                   y="0"
                   sodipodi:role="line"
                   id="tspan3511">AC2</tspan></text>
<text
                 transform="scale(1,-1)"
                 id="text3513"
                 x="137.77957"
                 y="-208.74153"><tspan
                   style="font-size:11px;font-variant:normal;font-weight:normal;writing-mode:lr-tb;fill:#000000;fill-opacity:1;fill-rule:nonzero;stroke:none;font-family:Helvetica;-inkscape-font-specification:Helvetica"
                   x="137.77957 145.11658 153.67458"
                   y="-208.74153"
                   sodipodi:role="line"
                   id="tspan3515">PO1</tspan></text>
<text
                 transform="matrix(1,0,0,-1,240.67,251.05)"
                 id="text3517"><tspan
                   style="fill:#000000;fill-opacity:1;fill-rule:nonzero;stroke:none;font-family:Helvetica;font-variant:normal;font-weight:normal;font-size:11;writing-mode:lr;-inkscape-font-specification:Helvetica"
                   x="0 6.721 14.663"
                   y="0"
                   sodipodi:role="line"
                   id="tspan3519">TR1</tspan></text>
<text
                 transform="matrix(1,0,0,-1,176.45,221.19)"
                 id="text3521"><tspan
                   style="fill:#000000;fill-opacity:1;fill-rule:nonzero;stroke:none;font-family:Helvetica;font-variant:normal;font-weight:normal;font-size:11;writing-mode:lr;-inkscape-font-specification:Helvetica"
                   x="0 6.721 14.663"
                   y="0"
                   sodipodi:role="line"
                   id="tspan3523">TR2</tspan></text>
<text
                 transform="scale(1,-1)"
                 id="text3525"
                 x="339.54004"
                 y="-274.09"><tspan
                   style="font-size:9px;font-variant:normal;font-weight:normal;writing-mode:lr-tb;fill:#000000;fill-opacity:1;fill-rule:nonzero;stroke:none;font-family:Helvetica;-inkscape-font-specification:Helvetica"
                   x="339.54004 344.82306 349.82706 353.09406 357.59406 360.09604 367.50305 372.50705 377.00705 382.01105 384.51306 386.51105 388.50906 392.82904 397.83304 400.33505 407.83206"
                   y="-274.09"
                   sodipodi:role="line"
                   id="tspan3527">Very much like me</tspan></text>
<text
                 transform="matrix(1,0,0,-1,336.78,203.8)"
                 id="text3529"><tspan
                   style="fill:#000000;fill-opacity:1;fill-rule:nonzero;stroke:none;font-family:Helvetica;font-variant:normal;font-weight:normal;font-size:9;writing-mode:lr;-inkscape-font-specification:Helvetica"
                   x="0 5.004 7.002 11.322 16.326 18.828 26.325"
                   y="0"
                   sodipodi:role="line"
                   id="tspan3531">Like me</tspan></text>
<text
                 transform="scale(1,-1)"
                 id="text3533"
                 x="302.39008"
                 y="-182.15001"><tspan
                   style="font-size:9px;font-variant:normal;font-weight:normal;writing-mode:lr-tb;fill:#000000;fill-opacity:1;fill-rule:nonzero;stroke:none;font-family:Helvetica;-inkscape-font-specification:Helvetica"
                   x="302.39008 308.3931 313.39709 320.89407 325.71808 332.21609 337.22009 342.22409 344.72607 347.22809 349.22607 351.22409 355.5441 360.5481 363.05008 370.54709"
                   y="-182.15001"
                   sodipodi:role="line"
                   id="tspan3535">Somewhat like me</tspan></text>
<text
                 transform="matrix(1,0,0,-1,198.47,173.04)"
                 id="text3537"><tspan
                   style="fill:#000000;fill-opacity:1;fill-rule:nonzero;stroke:none;font-family:Helvetica;font-variant:normal;font-weight:normal;font-size:9;writing-mode:lr;-inkscape-font-specification:Helvetica"
                   x="0 6.003 8.505 10.503 12.501 15.003 17.505 19.503 24.507 27.009 29.007 31.005 35.325 40.329 42.831 50.328"
                   y="0"
                   sodipodi:role="line"
                   id="tspan3539">A little like me</tspan></text>
<text
                 transform="matrix(1,0,0,-1,177.72,197.33)"
                 id="text3541"><tspan
                   style="fill:#000000;fill-opacity:1;fill-rule:nonzero;stroke:none;font-family:Helvetica;font-variant:normal;font-weight:normal;font-size:9;writing-mode:lr;-inkscape-font-specification:Helvetica"
                   x="0 6.498 11.502 14.004 16.506 18.504 20.502 24.822 29.826 32.328 39.825"
                   y="0"
                   sodipodi:role="line"
                   id="tspan3543">Not like me</tspan></text>
<text
                 transform="matrix(1,0,0,-1,152.79,254.85)"
                 id="text3545"><tspan
                   style="fill:#000000;fill-opacity:1;fill-rule:nonzero;stroke:none;font-family:Helvetica;font-variant:normal;font-weight:normal;font-size:9;writing-mode:lr;-inkscape-font-specification:Helvetica"
                   x="0 6.498 11.502 14.004 16.506 18.504 20.502 24.822 29.826 32.328 39.825 44.829 47.331 52.335 54.837 57.339 62.343 64.341"
                   y="0"
                   sodipodi:role="line"
                   id="tspan3547">Not like me at all</tspan></text>
<text
                 transform="matrix(1,0,0,-1,229.71,321.06)"
                 id="text3549"><tspan
                   style="fill:#000000;fill-opacity:1;fill-rule:nonzero;stroke:none;font-family:Helvetica;font-variant:normal;font-weight:normal;font-size:9;writing-mode:lr;-inkscape-font-specification:Helvetica"
                   x="0 6.498 11.502 14.004 19.008 24.012 28.512 34.92 39.924"
                   y="0"
                   sodipodi:role="line"
                   id="tspan3551">No answer</tspan></text>
<path
                 d="m 41.5,131.04 412.1,0 0,211.54 -412.1,0 0,-211.54 z"
                 style="fill:none;stroke:#7f7f7f;stroke-opacity:1;stroke-width:1.06;stroke-linecap:round;stroke-linejoin:round;stroke-miterlimit:10;stroke-dasharray:none"
                 id="path3553" /></g></g><g
             id="g3555" /><g
             id="g3557" /><g
             id="g3559"><text
               transform="matrix(1,0,0,-1,23.02,172.41)"
               id="text3561"><tspan
                 style="fill:#000000;fill-opacity:1;fill-rule:nonzero;stroke:none;font-family:Helvetica;font-variant:normal;font-weight:normal;font-size:10;writing-mode:lr;-inkscape-font-specification:Helvetica"
                 x="0 5.84"
                 y="0"
                 sodipodi:role="line"
                 id="tspan3563">−1</tspan></text>
<text
               transform="matrix(1,0,0,-1,28.86,228.89)"
               id="text3565"><tspan
                 style="fill:#000000;fill-opacity:1;fill-rule:nonzero;stroke:none;font-family:Helvetica;font-variant:normal;font-weight:normal;font-size:10;writing-mode:lr;-inkscape-font-specification:Helvetica"
                 x="0"
                 y="0"
                 id="tspan3567">0</tspan></text>
<text
               transform="matrix(1,0,0,-1,28.86,285.38)"
               id="text3569"><tspan
                 style="fill:#000000;fill-opacity:1;fill-rule:nonzero;stroke:none;font-family:Helvetica;font-variant:normal;font-weight:normal;font-size:10;writing-mode:lr;-inkscape-font-specification:Helvetica"
                 x="0"
                 y="0"
                 id="tspan3571">1</tspan></text>
</g><g
             id="g3573" /><g
             id="g3575"><path
               d="m 37.25,176 4.25,0"
               style="fill:none;stroke:#000000;stroke-opacity:1;stroke-width:1.06;stroke-linecap:butt;stroke-linejoin:round;stroke-miterlimit:10;stroke-dasharray:none"
               id="path3577" /><path
               d="m 37.25,232.48 4.25,0"
               style="fill:none;stroke:#000000;stroke-opacity:1;stroke-width:1.06;stroke-linecap:butt;stroke-linejoin:round;stroke-miterlimit:10;stroke-dasharray:none"
               id="path3579" /><path
               d="m 37.25,288.97 4.25,0"
               style="fill:none;stroke:#000000;stroke-opacity:1;stroke-width:1.06;stroke-linecap:butt;stroke-linejoin:round;stroke-miterlimit:10;stroke-dasharray:none"
               id="path3581" /></g><g
             id="g3583" /><g
             id="g3585" /><g
             id="g3587" /><g
             id="g3589" /><g
             id="g3591" /><g
             id="g3593"><path
               d="m 47.48,126.79 0,4.25"
               style="fill:none;stroke:#000000;stroke-opacity:1;stroke-width:1.06;stroke-linecap:butt;stroke-linejoin:round;stroke-miterlimit:10;stroke-dasharray:none"
               id="path3595" /><path
               d="m 160.45,126.79 0,4.25"
               style="fill:none;stroke:#000000;stroke-opacity:1;stroke-width:1.06;stroke-linecap:butt;stroke-linejoin:round;stroke-miterlimit:10;stroke-dasharray:none"
               id="path3597" /><path
               d="m 273.42,126.79 0,4.25"
               style="fill:none;stroke:#000000;stroke-opacity:1;stroke-width:1.06;stroke-linecap:butt;stroke-linejoin:round;stroke-miterlimit:10;stroke-dasharray:none"
               id="path3599" /><path
               d="m 386.38,126.79 0,4.25"
               style="fill:none;stroke:#000000;stroke-opacity:1;stroke-width:1.06;stroke-linecap:butt;stroke-linejoin:round;stroke-miterlimit:10;stroke-dasharray:none"
               id="path3601" /></g><g
             id="g3603" /><g
             id="g3605"><text
               transform="matrix(1,0,0,-1,41.78,116.78)"
               id="text3607"><tspan
                 style="fill:#000000;fill-opacity:1;fill-rule:nonzero;stroke:none;font-family:Helvetica;font-variant:normal;font-weight:normal;font-size:10;writing-mode:lr;-inkscape-font-specification:Helvetica"
                 x="0 5.84"
                 y="0"
                 sodipodi:role="line"
                 id="tspan3609">−4</tspan></text>
<text
               transform="matrix(1,0,0,-1,154.75,116.78)"
               id="text3611"><tspan
                 style="fill:#000000;fill-opacity:1;fill-rule:nonzero;stroke:none;font-family:Helvetica;font-variant:normal;font-weight:normal;font-size:10;writing-mode:lr;-inkscape-font-specification:Helvetica"
                 x="0 5.84"
                 y="0"
                 sodipodi:role="line"
                 id="tspan3613">−2</tspan></text>
<text
               transform="matrix(1,0,0,-1,270.64,116.78)"
               id="text3615"><tspan
                 style="fill:#000000;fill-opacity:1;fill-rule:nonzero;stroke:none;font-family:Helvetica;font-variant:normal;font-weight:normal;font-size:10;writing-mode:lr;-inkscape-font-specification:Helvetica"
                 x="0"
                 y="0"
                 id="tspan3617">0</tspan></text>
<text
               transform="matrix(1,0,0,-1,383.6,116.78)"
               id="text3619"><tspan
                 style="fill:#000000;fill-opacity:1;fill-rule:nonzero;stroke:none;font-family:Helvetica;font-variant:normal;font-weight:normal;font-size:10;writing-mode:lr;-inkscape-font-specification:Helvetica"
                 x="0"
                 y="0"
                 id="tspan3621">2</tspan></text>
</g><g
             id="g3623" /><g
             id="g3625" /><g
             id="g3627" /><g
             id="g3629" /><g
             id="g3631"><text
               transform="matrix(1,0,0,-1,230.22,104.56)"
               id="text3633"><tspan
                 style="fill:#000000;fill-opacity:1;fill-rule:nonzero;stroke:none;font-family:Helvetica;font-variant:normal;font-weight:normal;font-size:12;writing-mode:lr;-inkscape-font-specification:Helvetica"
                 x="0 8.664 11.328 21.324 24.66 27.996"
                 y="0"
                 sodipodi:role="line"
                 id="tspan3635">Dim. 1</tspan></text>
</g><g
             id="g3637" /><g
             id="g3639"><text
               transform="matrix(0,1,1,0,19.42,219.48)"
               id="text3641"><tspan
                 style="fill:#000000;fill-opacity:1;fill-rule:nonzero;stroke:none;font-family:Helvetica;font-variant:normal;font-weight:normal;font-size:12;writing-mode:lr;-inkscape-font-specification:Helvetica"
                 x="0 8.664 11.328 21.324 24.66 27.996"
                 y="0"
                 sodipodi:role="line"
                 id="tspan3643">Dim. 2</tspan></text>
</g><g
             id="g3645" /><g
             id="g3647"><text
               transform="matrix(1,0,0,-1,187.93,346.19)"
               id="text3649"><tspan
                 style="fill:#000000;fill-opacity:1;fill-rule:nonzero;stroke:none;font-family:Helvetica;font-variant:normal;font-weight:normal;font-size:14;writing-mode:lr;-inkscape-font-specification:Helvetica"
                 x="0 7.784 11.676 15.568 24.906 32.69 39.69 47.474 52.346 55.454 59.346 66.346 70.238 74.9 82.684 90.468 94.36 102.144 114.59"
                 y="0"
                 sodipodi:role="line"
                 id="tspan3651">2: Security (18.6%)</tspan></text>
</g><g
             id="g3653" /><g
             id="g3655" /></g></g></g></g></svg>