<?xml version="1.0" encoding="UTF-8" standalone="no"?>
<!-- Created with Inkscape (http://www.inkscape.org/) -->

<svg
   xmlns:dc="http://purl.org/dc/elements/1.1/"
   xmlns:cc="http://creativecommons.org/ns#"
   xmlns:rdf="http://www.w3.org/1999/02/22-rdf-syntax-ns#"
   xmlns:svg="http://www.w3.org/2000/svg"
   xmlns="http://www.w3.org/2000/svg"
   xmlns:sodipodi="http://sodipodi.sourceforge.net/DTD/sodipodi-0.dtd"
   xmlns:inkscape="http://www.inkscape.org/namespaces/inkscape"
   id="svg4067"
   version="1.1"
   inkscape:version="0.48.4 r9939"
   width="558.75"
   height="320"
   xml:space="preserve"
   sodipodi:docname="Paper-biplots-4.pdf"><metadata
     id="metadata4073"><rdf:RDF><cc:Work
         rdf:about=""><dc:format>image/svg+xml</dc:format><dc:type
           rdf:resource="http://purl.org/dc/dcmitype/StillImage" /><dc:title></dc:title></cc:Work></rdf:RDF></metadata><defs
     id="defs4071"><clipPath
       clipPathUnits="userSpaceOnUse"
       id="clipPath4083"><path
         d="M 0,0 468,0 468,468 0,468 0,0 z"
         id="path4085" /></clipPath><clipPath
       clipPathUnits="userSpaceOnUse"
       id="clipPath4095"><path
         d="m 0,93.76 468,0 0,280.48 -468,0 0,-280.48 z"
         id="path4097" /></clipPath><clipPath
       clipPathUnits="userSpaceOnUse"
       id="clipPath4111"><path
         d="m 41.5,131.04 412.1,0 0,211.54 -412.1,0 0,-211.54 z"
         id="path4113" /></clipPath></defs><sodipodi:namedview
     pagecolor="#ffffff"
     bordercolor="#666666"
     borderopacity="1"
     objecttolerance="10"
     gridtolerance="10"
     guidetolerance="10"
     inkscape:pageopacity="0"
     inkscape:pageshadow="2"
     inkscape:window-width="1873"
     inkscape:window-height="1056"
     id="namedview4069"
     showgrid="false"
     inkscape:zoom="1.7767837"
     inkscape:cx="431.49303"
     inkscape:cy="259.20435"
     inkscape:window-x="1967"
     inkscape:window-y="24"
     inkscape:window-maximized="1"
     inkscape:current-layer="g4075" /><g
     id="g4075"
     inkscape:groupmode="layer"
     inkscape:label="Paper-biplots-4"
     transform="matrix(1.25,0,0,-1.25,0,320)"><g
       id="g4077"
       transform="translate(-7,-101)"><g
         id="g4079"><g
           id="g4081"
           clip-path="url(#clipPath4083)"><g
             id="g4087" /><g
             id="g4089" /><g
             id="g4091"><g
               id="g4093"
               clip-path="url(#clipPath4095)"><path
                 d="m 0,93.76 468,0 0,280.48 -468,0 0,-280.48 z"
                 style="fill:#ffffff;fill-opacity:1;fill-rule:nonzero;stroke:#ffffff;stroke-opacity:1;stroke-width:1.06;stroke-linecap:round;stroke-linejoin:round;stroke-miterlimit:10;stroke-dasharray:none"
                 id="path4099" /></g></g><g
             id="g4101" /><g
             id="g4103" /><g
             id="g4105" /><g
             id="g4107"><g
               id="g4109"
               clip-path="url(#clipPath4111)"><path
                 d="m 41.5,131.04 412.1,0 0,211.54 -412.1,0 0,-211.54 z"
                 style="fill:#ffffff;fill-opacity:1;fill-rule:nonzero;stroke:none"
                 id="path4115" /><path
                 d="m 273.42,232.48 95.7,35.15"
                 style="fill:none;stroke:#000000;stroke-opacity:1;stroke-width:1.06;stroke-linecap:butt;stroke-linejoin:round;stroke-miterlimit:10;stroke-dasharray:none"
                 id="path4117" /><path
                 d="m 366.39,264.37 2.73,3.26 -4.19,0.73"
                 style="fill:none;stroke:#000000;stroke-opacity:1;stroke-width:1.06;stroke-linecap:butt;stroke-linejoin:round;stroke-miterlimit:10;stroke-dasharray:none"
                 id="path4119" /><path
                 d="m 273.42,232.48 69.62,-18.99"
                 style="fill:none;stroke:#000000;stroke-opacity:1;stroke-width:1.06;stroke-linecap:butt;stroke-linejoin:round;stroke-miterlimit:10;stroke-dasharray:none"
                 id="path4121" /><path
                 d="m 338.93,212.41 4.11,1.08 -2.99,3.02"
                 style="fill:none;stroke:#000000;stroke-opacity:1;stroke-width:1.06;stroke-linecap:butt;stroke-linejoin:round;stroke-miterlimit:10;stroke-dasharray:none"
                 id="path4123" /><path
                 d="m 273.42,232.48 24.86,-45.44"
                 style="fill:none;stroke:#000000;stroke-opacity:1;stroke-width:1.06;stroke-linecap:butt;stroke-linejoin:round;stroke-miterlimit:10;stroke-dasharray:none"
                 id="path4125" /><path
                 d="m 294.65,189.25 3.63,-2.21 0.1,4.25"
                 style="fill:none;stroke:#000000;stroke-opacity:1;stroke-width:1.06;stroke-linecap:butt;stroke-linejoin:round;stroke-miterlimit:10;stroke-dasharray:none"
                 id="path4127" /><path
                 d="M 273.42,232.48 248.27,182.74"
                 style="fill:none;stroke:#000000;stroke-opacity:1;stroke-width:1.06;stroke-linecap:butt;stroke-linejoin:round;stroke-miterlimit:10;stroke-dasharray:none"
                 id="path4129" /><path
                 d="m 248.03,186.98 0.24,-4.24 3.55,2.32"
                 style="fill:none;stroke:#000000;stroke-opacity:1;stroke-width:1.06;stroke-linecap:butt;stroke-linejoin:round;stroke-miterlimit:10;stroke-dasharray:none"
                 id="path4131" /><path
                 d="M 273.42,232.48 218.06,207.02"
                 style="fill:none;stroke:#000000;stroke-opacity:1;stroke-width:1.06;stroke-linecap:butt;stroke-linejoin:round;stroke-miterlimit:10;stroke-dasharray:none"
                 id="path4133" /><path
                 d="m 220.52,210.49 -2.46,-3.47 4.24,-0.39"
                 style="fill:none;stroke:#000000;stroke-opacity:1;stroke-width:1.06;stroke-linecap:butt;stroke-linejoin:round;stroke-miterlimit:10;stroke-dasharray:none"
                 id="path4135" /><path
                 d="m 273.42,232.48 -87.46,19.14"
                 style="fill:none;stroke:#000000;stroke-opacity:1;stroke-width:1.06;stroke-linecap:butt;stroke-linejoin:round;stroke-miterlimit:10;stroke-dasharray:none"
                 id="path4137" /><path
                 d="m 190.02,252.91 -4.06,-1.29 3.15,-2.86"
                 style="fill:none;stroke:#000000;stroke-opacity:1;stroke-width:1.06;stroke-linecap:butt;stroke-linejoin:round;stroke-miterlimit:10;stroke-dasharray:none"
                 id="path4139" /><path
                 d="m 273.42,232.48 -22.25,85.35"
                 style="fill:none;stroke:#000000;stroke-opacity:1;stroke-width:1.06;stroke-linecap:butt;stroke-linejoin:round;stroke-miterlimit:10;stroke-dasharray:none"
                 id="path4141" /><path
                 d="m 254.16,314.81 -2.99,3.02 -1.12,-4.1"
                 style="fill:none;stroke:#000000;stroke-opacity:1;stroke-width:1.06;stroke-linecap:butt;stroke-linejoin:round;stroke-miterlimit:10;stroke-dasharray:none"
                 id="path4143" /><path
                 d="m 335.62,231.93 c 0,2.04 1.68,3.72 3.72,3.72 2.05,0 3.72,-1.68 3.72,-3.72 0,-2.05 -1.67,-3.72 -3.72,-3.72 -2.04,0 -3.72,1.67 -3.72,3.72"
                 style="fill:#d89000;fill-opacity:1;fill-rule:nonzero;stroke:#000000;stroke-opacity:1;stroke-width:0.75;stroke-linecap:round;stroke-linejoin:round;stroke-miterlimit:10;stroke-dasharray:none"
                 id="path4145" /><path
                 d="m 352.4,230.57 6.59,0 0,6.59 -6.59,0 0,-6.59 z"
                 style="fill:#d89000;fill-opacity:1;fill-rule:nonzero;stroke:#000000;stroke-opacity:1;stroke-width:0.75;stroke-linecap:round;stroke-linejoin:round;stroke-miterlimit:10;stroke-dasharray:none"
                 id="path4147" /><path
                 d="m 349.91,299.15 c 0,2.04 1.67,3.72 3.72,3.72 2.05,0 3.72,-1.68 3.72,-3.72 0,-2.05 -1.67,-3.72 -3.72,-3.72 -2.05,0 -3.72,1.67 -3.72,3.72"
                 style="fill:#ff62bc;fill-opacity:1;fill-rule:nonzero;stroke:#000000;stroke-opacity:1;stroke-width:0.75;stroke-linecap:round;stroke-linejoin:round;stroke-miterlimit:10;stroke-dasharray:none"
                 id="path4149" /><path
                 d="m 361.44,227.95 6.59,0 0,6.59 -6.59,0 0,-6.59 z"
                 style="fill:#ff62bc;fill-opacity:1;fill-rule:nonzero;stroke:#000000;stroke-opacity:1;stroke-width:0.75;stroke-linecap:round;stroke-linejoin:round;stroke-miterlimit:10;stroke-dasharray:none"
                 id="path4151" /><path
                 d="m 346.15,258.71 4.66,4.66 -4.66,4.66 -4.66,-4.66 4.66,-4.66 z"
                 style="fill:#ff62bc;fill-opacity:1;fill-rule:nonzero;stroke:#000000;stroke-opacity:1;stroke-width:0.75;stroke-linecap:round;stroke-linejoin:round;stroke-miterlimit:10;stroke-dasharray:none"
                 id="path4153" /><path
                 d="m 423.46,256.19 c 0,2.05 1.67,3.72 3.72,3.72 2.05,0 3.72,-1.67 3.72,-3.72 0,-2.04 -1.67,-3.72 -3.72,-3.72 -2.05,0 -3.72,1.68 -3.72,3.72"
                 style="fill:#00bfc4;fill-opacity:1;fill-rule:nonzero;stroke:#000000;stroke-opacity:1;stroke-width:0.75;stroke-linecap:round;stroke-linejoin:round;stroke-miterlimit:10;stroke-dasharray:none"
                 id="path4155" /><path
                 d="m 335.83,288.21 6.59,0 0,6.59 -6.59,0 0,-6.59 z"
                 style="fill:#00bfc4;fill-opacity:1;fill-rule:nonzero;stroke:#000000;stroke-opacity:1;stroke-width:0.75;stroke-linecap:round;stroke-linejoin:round;stroke-miterlimit:10;stroke-dasharray:none"
                 id="path4157" /><path
                 d="m 313.74,265.64 c 0,2.04 1.68,3.72 3.72,3.72 2.05,0 3.72,-1.68 3.72,-3.72 0,-2.05 -1.67,-3.72 -3.72,-3.72 -2.04,0 -3.72,1.67 -3.72,3.72"
                 style="fill:#9590ff;fill-opacity:1;fill-rule:nonzero;stroke:#000000;stroke-opacity:1;stroke-width:0.75;stroke-linecap:round;stroke-linejoin:round;stroke-miterlimit:10;stroke-dasharray:none"
                 id="path4159" /><path
                 d="m 257.8,204.81 6.59,0 0,6.59 -6.59,0 0,-6.59 z"
                 style="fill:#9590ff;fill-opacity:1;fill-rule:nonzero;stroke:#000000;stroke-opacity:1;stroke-width:0.75;stroke-linecap:round;stroke-linejoin:round;stroke-miterlimit:10;stroke-dasharray:none"
                 id="path4161" /><path
                 d="m 252.31,216.25 c 0,2.05 1.67,3.73 3.72,3.73 2.05,0 3.72,-1.68 3.72,-3.73 0,-2.04 -1.67,-3.72 -3.72,-3.72 -2.05,0 -3.72,1.68 -3.72,3.72"
                 style="fill:#39b600;fill-opacity:1;fill-rule:nonzero;stroke:#000000;stroke-opacity:1;stroke-width:0.75;stroke-linecap:round;stroke-linejoin:round;stroke-miterlimit:10;stroke-dasharray:none"
                 id="path4163" /><path
                 d="m 292.09,250.44 6.59,0 0,6.59 -6.59,0 0,-6.59 z"
                 style="fill:#39b600;fill-opacity:1;fill-rule:nonzero;stroke:#000000;stroke-opacity:1;stroke-width:0.75;stroke-linecap:round;stroke-linejoin:round;stroke-miterlimit:10;stroke-dasharray:none"
                 id="path4165" /><path
                 d="m 231.52,184.44 c 0,2.04 1.67,3.72 3.72,3.72 2.04,0 3.72,-1.68 3.72,-3.72 0,-2.05 -1.68,-3.72 -3.72,-3.72 -2.05,0 -3.72,1.67 -3.72,3.72"
                 style="fill:#f8766d;fill-opacity:1;fill-rule:nonzero;stroke:#000000;stroke-opacity:1;stroke-width:0.75;stroke-linecap:round;stroke-linejoin:round;stroke-miterlimit:10;stroke-dasharray:none"
                 id="path4167" /><path
                 d="m 232.51,183.91 6.59,0 0,6.59 -6.59,0 0,-6.59 z"
                 style="fill:#f8766d;fill-opacity:1;fill-rule:nonzero;stroke:#000000;stroke-opacity:1;stroke-width:0.75;stroke-linecap:round;stroke-linejoin:round;stroke-miterlimit:10;stroke-dasharray:none"
                 id="path4169" /><path
                 d="m 106.82,217.18 c 0,2.05 1.68,3.72 3.72,3.72 2.05,0 3.73,-1.67 3.73,-3.72 0,-2.04 -1.68,-3.72 -3.73,-3.72 -2.04,0 -3.72,1.68 -3.72,3.72"
                 style="fill:#00bf7d;fill-opacity:1;fill-rule:nonzero;stroke:#000000;stroke-opacity:1;stroke-width:0.75;stroke-linecap:round;stroke-linejoin:round;stroke-miterlimit:10;stroke-dasharray:none"
                 id="path4171" /><path
                 d="m 196.97,178.86 6.59,0 0,6.59 -6.59,0 0,-6.59 z"
                 style="fill:#00bf7d;fill-opacity:1;fill-rule:nonzero;stroke:#000000;stroke-opacity:1;stroke-width:0.75;stroke-linecap:round;stroke-linejoin:round;stroke-miterlimit:10;stroke-dasharray:none"
                 id="path4173" /><path
                 d="m 206.25,218.59 c 0,2.04 1.67,3.72 3.72,3.72 2.04,0 3.72,-1.68 3.72,-3.72 0,-2.05 -1.68,-3.72 -3.72,-3.72 -2.05,0 -3.72,1.67 -3.72,3.72"
                 style="fill:#00b0f6;fill-opacity:1;fill-rule:nonzero;stroke:#000000;stroke-opacity:1;stroke-width:0.75;stroke-linecap:round;stroke-linejoin:round;stroke-miterlimit:10;stroke-dasharray:none"
                 id="path4175" /><path
                 d="m 233.14,201.55 6.59,0 0,6.59 -6.59,0 0,-6.59 z"
                 style="fill:#00b0f6;fill-opacity:1;fill-rule:nonzero;stroke:#000000;stroke-opacity:1;stroke-width:0.75;stroke-linecap:round;stroke-linejoin:round;stroke-miterlimit:10;stroke-dasharray:none"
                 id="path4177" /><path
                 d="m 208.36,235.85 c 0,2.04 1.68,3.72 3.72,3.72 2.05,0 3.72,-1.68 3.72,-3.72 0,-2.05 -1.67,-3.72 -3.72,-3.72 -2.04,0 -3.72,1.67 -3.72,3.72"
                 style="fill:#a3a500;fill-opacity:1;fill-rule:nonzero;stroke:#000000;stroke-opacity:1;stroke-width:0.75;stroke-linecap:round;stroke-linejoin:round;stroke-miterlimit:10;stroke-dasharray:none"
                 id="path4179" /><path
                 d="m 220.74,214.38 6.59,0 0,6.59 -6.59,0 0,-6.59 z"
                 style="fill:#a3a500;fill-opacity:1;fill-rule:nonzero;stroke:#000000;stroke-opacity:1;stroke-width:0.75;stroke-linecap:round;stroke-linejoin:round;stroke-miterlimit:10;stroke-dasharray:none"
                 id="path4181" /><path
                 d="m 212.44,248.44 c 0,2.05 1.68,3.72 3.72,3.72 2.05,0 3.72,-1.67 3.72,-3.72 0,-2.04 -1.67,-3.72 -3.72,-3.72 -2.04,0 -3.72,1.68 -3.72,3.72"
                 style="fill:#e76bf3;fill-opacity:1;fill-rule:nonzero;stroke:#000000;stroke-opacity:1;stroke-width:0.75;stroke-linecap:round;stroke-linejoin:round;stroke-miterlimit:10;stroke-dasharray:none"
                 id="path4183" /><path
                 d="m 202.03,231.45 6.59,0 0,6.59 -6.59,0 0,-6.59 z"
                 style="fill:#e76bf3;fill-opacity:1;fill-rule:nonzero;stroke:#000000;stroke-opacity:1;stroke-width:0.75;stroke-linecap:round;stroke-linejoin:round;stroke-miterlimit:10;stroke-dasharray:none"
                 id="path4185" /><text
                 transform="scale(1,-1)"
                 id="text4187"
                 x="358.83099"
                 y="-238.74542"><tspan
                   style="font-size:11px;font-variant:normal;font-weight:normal;writing-mode:lr-tb;fill:#000000;fill-opacity:1;fill-rule:nonzero;stroke:none;font-family:Helvetica;-inkscape-font-specification:Helvetica"
                   x="358.83099 366.16797 373.50497"
                   y="-238.74542"
                   sodipodi:role="line"
                   id="tspan4189">BE2</tspan></text>
<text
                 transform="scale(1,-1)"
                 id="text4191"
                 x="342.15244"
                 y="-304.99957"><tspan
                   style="font-size:11px;font-variant:normal;font-weight:normal;writing-mode:lr-tb;fill:#000000;fill-opacity:1;fill-rule:nonzero;stroke:none;font-family:Helvetica;-inkscape-font-specification:Helvetica"
                   x="342.15244 350.09442 358.03644"
                   y="-304.99957"
                   sodipodi:role="line"
                   id="tspan4193">UN1</tspan></text>
<text
                 transform="matrix(1,0,0,-1,353.74,215.45)"
                 id="text4195"><tspan
                   style="fill:#000000;fill-opacity:1;fill-rule:nonzero;stroke:none;font-family:Helvetica;font-variant:normal;font-weight:normal;font-size:11;writing-mode:lr;-inkscape-font-specification:Helvetica"
                   x="0 7.942 15.884"
                   y="0"
                   sodipodi:role="line"
                   id="tspan4197">UN2</tspan></text>
<text
                 transform="scale(1,-1)"
                 id="text4199"
                 x="352.2673"
                 y="-252.25653"><tspan
                   style="font-size:11px;font-variant:normal;font-weight:normal;writing-mode:lr-tb;fill:#000000;fill-opacity:1;fill-rule:nonzero;stroke:none;font-family:Helvetica;-inkscape-font-specification:Helvetica"
                   x="352.2673 360.20929 368.15131"
                   y="-252.25653"
                   sodipodi:role="line"
                   id="tspan4201">UN3</tspan></text>
<text
                 transform="matrix(1,0,0,-1,416.48,240.4)"
                 id="text4203"><tspan
                   style="fill:#000000;fill-opacity:1;fill-rule:nonzero;stroke:none;font-family:Helvetica;font-variant:normal;font-weight:normal;font-size:11;writing-mode:lr;-inkscape-font-specification:Helvetica"
                   x="0 7.337 15.279"
                   y="0"
                   sodipodi:role="line"
                   id="tspan4205">SD1</tspan></text>
<text
                 transform="scale(1,-1)"
                 id="text4207"
                 x="310.76013"
                 y="-288.28586"><tspan
                   style="font-size:11px;font-variant:normal;font-weight:normal;writing-mode:lr-tb;fill:#000000;fill-opacity:1;fill-rule:nonzero;stroke:none;font-family:Helvetica;-inkscape-font-specification:Helvetica"
                   x="310.76013 318.09714 326.03912"
                   y="-288.28586"
                   sodipodi:role="line"
                   id="tspan4209">SD2</tspan></text>
<text
                 transform="matrix(1,0,0,-1,99.54,201.39)"
                 id="text4211"><tspan
                   style="fill:#000000;fill-opacity:1;fill-rule:nonzero;stroke:none;font-family:Helvetica;font-variant:normal;font-weight:normal;font-size:11;writing-mode:lr;-inkscape-font-specification:Helvetica"
                   x="0 7.337 15.895"
                   y="0"
                   sodipodi:role="line"
                   id="tspan4213">PO1</tspan></text>
<text
                 transform="matrix(1,0,0,-1,189.26,166.36)"
                 id="text4215"><tspan
                   style="fill:#000000;fill-opacity:1;fill-rule:nonzero;stroke:none;font-family:Helvetica;font-variant:normal;font-weight:normal;font-size:11;writing-mode:lr;-inkscape-font-specification:Helvetica"
                   x="0 7.337 15.895"
                   y="0"
                   sodipodi:role="line"
                   id="tspan4217">PO2</tspan></text>
<text
                 transform="scale(1,-1)"
                 id="text4219"
                 x="184.26144"
                 y="-211.56992"><tspan
                   style="font-size:11px;font-variant:normal;font-weight:normal;writing-mode:lr-tb;fill:#000000;fill-opacity:1;fill-rule:nonzero;stroke:none;font-family:Helvetica;-inkscape-font-specification:Helvetica"
                   x="184.26144 191.59845 198.93544"
                   y="-211.56992"
                   sodipodi:role="line"
                   id="tspan4221">SE1</tspan></text>
<text
                 transform="scale(1,-1)"
                 id="text4223"
                 x="179.40633"
                 y="-227.50478"><tspan
                   style="font-size:11px;font-variant:normal;font-weight:normal;writing-mode:lr-tb;fill:#000000;fill-opacity:1;fill-rule:nonzero;stroke:none;font-family:Helvetica;-inkscape-font-specification:Helvetica"
                   x="179.40633 186.12732 194.06932"
                   y="-227.50478"
                   sodipodi:role="line"
                   id="tspan4225">TR2</tspan></text>
<text
                 transform="matrix(1,0,0,-1,325.14,274.09)"
                 id="text4227"><tspan
                   style="fill:#000000;fill-opacity:1;fill-rule:nonzero;stroke:none;font-family:Helvetica;font-variant:normal;font-weight:normal;font-size:9;writing-mode:lr;-inkscape-font-specification:Helvetica"
                   x="0 5.283 10.287 13.554 18.054 20.556 27.963 32.967 37.467 42.471 44.973 46.971 48.969 53.289 58.293 60.795 68.292"
                   y="0"
                   sodipodi:role="line"
                   id="tspan4229">Very much like me</tspan></text>
<text
                 transform="matrix(1,0,0,-1,336.78,203.8)"
                 id="text4231"><tspan
                   style="fill:#000000;fill-opacity:1;fill-rule:nonzero;stroke:none;font-family:Helvetica;font-variant:normal;font-weight:normal;font-size:9;writing-mode:lr;-inkscape-font-specification:Helvetica"
                   x="0 5.004 7.002 11.322 16.326 18.828 26.325"
                   y="0"
                   sodipodi:role="line"
                   id="tspan4233">Like me</tspan></text>
<text
                 transform="matrix(1,0,0,-1,279.99,177.35)"
                 id="text4235"><tspan
                   style="fill:#000000;fill-opacity:1;fill-rule:nonzero;stroke:none;font-family:Helvetica;font-variant:normal;font-weight:normal;font-size:9;writing-mode:lr;-inkscape-font-specification:Helvetica"
                   x="0 6.003 11.007 18.504 23.328 29.826 34.83 39.834 42.336 44.838 46.836 48.834 53.154 58.158 60.66 68.157"
                   y="0"
                   sodipodi:role="line"
                   id="tspan4237">Somewhat like me</tspan></text>
<text
                 transform="scale(1,-1)"
                 id="text4239"
                 x="215.57956"
                 y="-171.01387"><tspan
                   style="font-size:9px;font-variant:normal;font-weight:normal;writing-mode:lr-tb;fill:#000000;fill-opacity:1;fill-rule:nonzero;stroke:none;font-family:Helvetica;-inkscape-font-specification:Helvetica"
                   x="215.57956 221.58257 224.08456 226.08257 228.08057 230.58257 233.08456 235.08257 240.08656 242.58856 244.58656 246.58456 250.90457 255.90857 258.41055 265.90756"
                   y="-171.01387"
                   sodipodi:role="line"
                   id="tspan4241">A little like me</tspan></text>
<text
                 transform="matrix(1,0,0,-1,177.72,197.33)"
                 id="text4243"><tspan
                   style="fill:#000000;fill-opacity:1;fill-rule:nonzero;stroke:none;font-family:Helvetica;font-variant:normal;font-weight:normal;font-size:9;writing-mode:lr;-inkscape-font-specification:Helvetica"
                   x="0 6.498 11.502 14.004 16.506 18.504 20.502 24.822 29.826 32.328 39.825"
                   y="0"
                   sodipodi:role="line"
                   id="tspan4245">Not like me</tspan></text>
<text
                 transform="matrix(1,0,0,-1,152.79,254.85)"
                 id="text4247"><tspan
                   style="fill:#000000;fill-opacity:1;fill-rule:nonzero;stroke:none;font-family:Helvetica;font-variant:normal;font-weight:normal;font-size:9;writing-mode:lr;-inkscape-font-specification:Helvetica"
                   x="0 6.498 11.502 14.004 16.506 18.504 20.502 24.822 29.826 32.328 39.825 44.829 47.331 52.335 54.837 57.339 62.343 64.341"
                   y="0"
                   sodipodi:role="line"
                   id="tspan4249">Not like me at all</tspan></text>
<text
                 transform="matrix(1,0,0,-1,229.71,321.06)"
                 id="text4251"><tspan
                   style="fill:#000000;fill-opacity:1;fill-rule:nonzero;stroke:none;font-family:Helvetica;font-variant:normal;font-weight:normal;font-size:9;writing-mode:lr;-inkscape-font-specification:Helvetica"
                   x="0 6.498 11.502 14.004 19.008 24.012 28.512 34.92 39.924"
                   y="0"
                   sodipodi:role="line"
                   id="tspan4253">No answer</tspan></text>
<path
                 d="m 41.5,131.04 412.1,0 0,211.54 -412.1,0 0,-211.54 z"
                 style="fill:none;stroke:#7f7f7f;stroke-opacity:1;stroke-width:1.06;stroke-linecap:round;stroke-linejoin:round;stroke-miterlimit:10;stroke-dasharray:none"
                 id="path4255" /></g></g><g
             id="g4257" /><g
             id="g4259" /><g
             id="g4261"><text
               transform="matrix(1,0,0,-1,23.02,172.41)"
               id="text4263"><tspan
                 style="fill:#000000;fill-opacity:1;fill-rule:nonzero;stroke:none;font-family:Helvetica;font-variant:normal;font-weight:normal;font-size:10;writing-mode:lr;-inkscape-font-specification:Helvetica"
                 x="0 5.84"
                 y="0"
                 sodipodi:role="line"
                 id="tspan4265">−1</tspan></text>
<text
               transform="matrix(1,0,0,-1,28.86,228.89)"
               id="text4267"><tspan
                 style="fill:#000000;fill-opacity:1;fill-rule:nonzero;stroke:none;font-family:Helvetica;font-variant:normal;font-weight:normal;font-size:10;writing-mode:lr;-inkscape-font-specification:Helvetica"
                 x="0"
                 y="0"
                 id="tspan4269">0</tspan></text>
<text
               transform="matrix(1,0,0,-1,28.86,285.38)"
               id="text4271"><tspan
                 style="fill:#000000;fill-opacity:1;fill-rule:nonzero;stroke:none;font-family:Helvetica;font-variant:normal;font-weight:normal;font-size:10;writing-mode:lr;-inkscape-font-specification:Helvetica"
                 x="0"
                 y="0"
                 id="tspan4273">1</tspan></text>
</g><g
             id="g4275" /><g
             id="g4277"><path
               d="m 37.25,176 4.25,0"
               style="fill:none;stroke:#000000;stroke-opacity:1;stroke-width:1.06;stroke-linecap:butt;stroke-linejoin:round;stroke-miterlimit:10;stroke-dasharray:none"
               id="path4279" /><path
               d="m 37.25,232.48 4.25,0"
               style="fill:none;stroke:#000000;stroke-opacity:1;stroke-width:1.06;stroke-linecap:butt;stroke-linejoin:round;stroke-miterlimit:10;stroke-dasharray:none"
               id="path4281" /><path
               d="m 37.25,288.97 4.25,0"
               style="fill:none;stroke:#000000;stroke-opacity:1;stroke-width:1.06;stroke-linecap:butt;stroke-linejoin:round;stroke-miterlimit:10;stroke-dasharray:none"
               id="path4283" /></g><g
             id="g4285" /><g
             id="g4287" /><g
             id="g4289" /><g
             id="g4291" /><g
             id="g4293" /><g
             id="g4295"><path
               d="m 47.48,126.79 0,4.25"
               style="fill:none;stroke:#000000;stroke-opacity:1;stroke-width:1.06;stroke-linecap:butt;stroke-linejoin:round;stroke-miterlimit:10;stroke-dasharray:none"
               id="path4297" /><path
               d="m 160.45,126.79 0,4.25"
               style="fill:none;stroke:#000000;stroke-opacity:1;stroke-width:1.06;stroke-linecap:butt;stroke-linejoin:round;stroke-miterlimit:10;stroke-dasharray:none"
               id="path4299" /><path
               d="m 273.42,126.79 0,4.25"
               style="fill:none;stroke:#000000;stroke-opacity:1;stroke-width:1.06;stroke-linecap:butt;stroke-linejoin:round;stroke-miterlimit:10;stroke-dasharray:none"
               id="path4301" /><path
               d="m 386.38,126.79 0,4.25"
               style="fill:none;stroke:#000000;stroke-opacity:1;stroke-width:1.06;stroke-linecap:butt;stroke-linejoin:round;stroke-miterlimit:10;stroke-dasharray:none"
               id="path4303" /></g><g
             id="g4305" /><g
             id="g4307"><text
               transform="matrix(1,0,0,-1,41.78,116.78)"
               id="text4309"><tspan
                 style="fill:#000000;fill-opacity:1;fill-rule:nonzero;stroke:none;font-family:Helvetica;font-variant:normal;font-weight:normal;font-size:10;writing-mode:lr;-inkscape-font-specification:Helvetica"
                 x="0 5.84"
                 y="0"
                 sodipodi:role="line"
                 id="tspan4311">−4</tspan></text>
<text
               transform="matrix(1,0,0,-1,154.75,116.78)"
               id="text4313"><tspan
                 style="fill:#000000;fill-opacity:1;fill-rule:nonzero;stroke:none;font-family:Helvetica;font-variant:normal;font-weight:normal;font-size:10;writing-mode:lr;-inkscape-font-specification:Helvetica"
                 x="0 5.84"
                 y="0"
                 sodipodi:role="line"
                 id="tspan4315">−2</tspan></text>
<text
               transform="matrix(1,0,0,-1,270.64,116.78)"
               id="text4317"><tspan
                 style="fill:#000000;fill-opacity:1;fill-rule:nonzero;stroke:none;font-family:Helvetica;font-variant:normal;font-weight:normal;font-size:10;writing-mode:lr;-inkscape-font-specification:Helvetica"
                 x="0"
                 y="0"
                 id="tspan4319">0</tspan></text>
<text
               transform="matrix(1,0,0,-1,383.6,116.78)"
               id="text4321"><tspan
                 style="fill:#000000;fill-opacity:1;fill-rule:nonzero;stroke:none;font-family:Helvetica;font-variant:normal;font-weight:normal;font-size:10;writing-mode:lr;-inkscape-font-specification:Helvetica"
                 x="0"
                 y="0"
                 id="tspan4323">2</tspan></text>
</g><g
             id="g4325" /><g
             id="g4327" /><g
             id="g4329" /><g
             id="g4331" /><g
             id="g4333"><text
               transform="matrix(1,0,0,-1,230.22,104.56)"
               id="text4335"><tspan
                 style="fill:#000000;fill-opacity:1;fill-rule:nonzero;stroke:none;font-family:Helvetica;font-variant:normal;font-weight:normal;font-size:12;writing-mode:lr;-inkscape-font-specification:Helvetica"
                 x="0 8.664 11.328 21.324 24.66 27.996"
                 y="0"
                 sodipodi:role="line"
                 id="tspan4337">Dim. 1</tspan></text>
</g><g
             id="g4339" /><g
             id="g4341"><text
               transform="matrix(0,1,1,0,19.42,219.48)"
               id="text4343"><tspan
                 style="fill:#000000;fill-opacity:1;fill-rule:nonzero;stroke:none;font-family:Helvetica;font-variant:normal;font-weight:normal;font-size:12;writing-mode:lr;-inkscape-font-specification:Helvetica"
                 x="0 8.664 11.328 21.324 24.66 27.996"
                 y="0"
                 sodipodi:role="line"
                 id="tspan4345">Dim. 2</tspan></text>
</g><g
             id="g4347" /><g
             id="g4349"><text
               transform="matrix(1,0,0,-1,173.82,346.19)"
               id="text4351"><tspan
                 style="fill:#000000;fill-opacity:1;fill-rule:nonzero;stroke:none;font-family:Helvetica;font-variant:normal;font-weight:normal;font-size:14;writing-mode:lr;-inkscape-font-specification:Helvetica"
                 x="0 7.784 11.676 15.568 25.676 33.46 36.568 43.218 51.002 55.664 62.664 70.448 73.556 76.664 83.664 87.556 94.556 98.448 103.11 110.894 118.678 122.57 130.354 142.8"
                 y="0"
                 sodipodi:role="line"
                 id="tspan4353">4: Universalists (15.0%)</tspan></text>
</g><g
             id="g4355" /><g
             id="g4357" /></g></g></g></g></svg>