<?xml version="1.0" encoding="UTF-8" standalone="no"?>
<!-- Created with Inkscape (http://www.inkscape.org/) -->

<svg
   xmlns:dc="http://purl.org/dc/elements/1.1/"
   xmlns:cc="http://creativecommons.org/ns#"
   xmlns:rdf="http://www.w3.org/1999/02/22-rdf-syntax-ns#"
   xmlns:svg="http://www.w3.org/2000/svg"
   xmlns="http://www.w3.org/2000/svg"
   xmlns:sodipodi="http://sodipodi.sourceforge.net/DTD/sodipodi-0.dtd"
   xmlns:inkscape="http://www.inkscape.org/namespaces/inkscape"
   id="svg3004"
   version="1.1"
   inkscape:version="0.48.4 r9939"
   width="558.75"
   height="320"
   xml:space="preserve"
   sodipodi:docname="Paper-biplots-1.pdf"><metadata
     id="metadata3010"><rdf:RDF><cc:Work
         rdf:about=""><dc:format>image/svg+xml</dc:format><dc:type
           rdf:resource="http://purl.org/dc/dcmitype/StillImage" /><dc:title></dc:title></cc:Work></rdf:RDF></metadata><defs
     id="defs3008"><clipPath
       clipPathUnits="userSpaceOnUse"
       id="clipPath3020"><path
         d="M 0,0 468,0 468,468 0,468 0,0 z"
         id="path3022" /></clipPath><clipPath
       clipPathUnits="userSpaceOnUse"
       id="clipPath3032"><path
         d="m 0,93.76 468,0 0,280.48 -468,0 0,-280.48 z"
         id="path3034" /></clipPath><clipPath
       clipPathUnits="userSpaceOnUse"
       id="clipPath3048"><path
         d="m 41.5,131.04 412.1,0 0,211.54 -412.1,0 0,-211.54 z"
         id="path3050" /></clipPath></defs><sodipodi:namedview
     pagecolor="#ffffff"
     bordercolor="#666666"
     borderopacity="1"
     objecttolerance="10"
     gridtolerance="10"
     guidetolerance="10"
     inkscape:pageopacity="0"
     inkscape:pageshadow="2"
     inkscape:window-width="1873"
     inkscape:window-height="1056"
     id="namedview3006"
     showgrid="false"
     inkscape:zoom="8.0345008"
     inkscape:cx="260.50025"
     inkscape:cy="143.45186"
     inkscape:window-x="1967"
     inkscape:window-y="24"
     inkscape:window-maximized="1"
     inkscape:current-layer="g3012" /><g
     id="g3012"
     inkscape:groupmode="layer"
     inkscape:label="Paper-biplots-1"
     transform="matrix(1.25,0,0,-1.25,0,320)"><g
       id="g3014"
       transform="translate(-7,-101)"><g
         id="g3016"><g
           id="g3018"
           clip-path="url(#clipPath3020)"><g
             id="g3024" /><g
             id="g3026" /><g
             id="g3028"><g
               id="g3030"
               clip-path="url(#clipPath3032)"><path
                 d="m 0,93.76 468,0 0,280.48 -468,0 0,-280.48 z"
                 style="fill:#ffffff;fill-opacity:1;fill-rule:nonzero;stroke:#ffffff;stroke-opacity:1;stroke-width:1.06;stroke-linecap:round;stroke-linejoin:round;stroke-miterlimit:10;stroke-dasharray:none"
                 id="path3036" /></g></g><g
             id="g3038" /><g
             id="g3040" /><g
             id="g3042" /><g
             id="g3044"><g
               id="g3046"
               clip-path="url(#clipPath3048)"><path
                 d="m 41.5,131.04 412.1,0 0,211.54 -412.1,0 0,-211.54 z"
                 style="fill:#ffffff;fill-opacity:1;fill-rule:nonzero;stroke:none"
                 id="path3052" /><path
                 d="m 273.42,232.48 95.7,35.15"
                 style="fill:none;stroke:#000000;stroke-opacity:1;stroke-width:1.06;stroke-linecap:butt;stroke-linejoin:round;stroke-miterlimit:10;stroke-dasharray:none"
                 id="path3054" /><path
                 d="m 366.39,264.37 2.73,3.26 -4.19,0.73"
                 style="fill:none;stroke:#000000;stroke-opacity:1;stroke-width:1.06;stroke-linecap:butt;stroke-linejoin:round;stroke-miterlimit:10;stroke-dasharray:none"
                 id="path3056" /><path
                 d="m 273.42,232.48 69.62,-18.99"
                 style="fill:none;stroke:#000000;stroke-opacity:1;stroke-width:1.06;stroke-linecap:butt;stroke-linejoin:round;stroke-miterlimit:10;stroke-dasharray:none"
                 id="path3058" /><path
                 d="m 338.93,212.41 4.11,1.08 -2.99,3.02"
                 style="fill:none;stroke:#000000;stroke-opacity:1;stroke-width:1.06;stroke-linecap:butt;stroke-linejoin:round;stroke-miterlimit:10;stroke-dasharray:none"
                 id="path3060" /><path
                 d="m 273.42,232.48 24.86,-45.44"
                 style="fill:none;stroke:#000000;stroke-opacity:1;stroke-width:1.06;stroke-linecap:butt;stroke-linejoin:round;stroke-miterlimit:10;stroke-dasharray:none"
                 id="path3062" /><path
                 d="m 294.65,189.25 3.63,-2.21 0.1,4.25"
                 style="fill:none;stroke:#000000;stroke-opacity:1;stroke-width:1.06;stroke-linecap:butt;stroke-linejoin:round;stroke-miterlimit:10;stroke-dasharray:none"
                 id="path3064" /><path
                 d="M 273.42,232.48 248.27,182.74"
                 style="fill:none;stroke:#000000;stroke-opacity:1;stroke-width:1.06;stroke-linecap:butt;stroke-linejoin:round;stroke-miterlimit:10;stroke-dasharray:none"
                 id="path3066" /><path
                 d="m 248.03,186.98 0.24,-4.24 3.55,2.32"
                 style="fill:none;stroke:#000000;stroke-opacity:1;stroke-width:1.06;stroke-linecap:butt;stroke-linejoin:round;stroke-miterlimit:10;stroke-dasharray:none"
                 id="path3068" /><path
                 d="M 273.42,232.48 218.06,207.02"
                 style="fill:none;stroke:#000000;stroke-opacity:1;stroke-width:1.06;stroke-linecap:butt;stroke-linejoin:round;stroke-miterlimit:10;stroke-dasharray:none"
                 id="path3070" /><path
                 d="m 220.52,210.49 -2.46,-3.47 4.24,-0.39"
                 style="fill:none;stroke:#000000;stroke-opacity:1;stroke-width:1.06;stroke-linecap:butt;stroke-linejoin:round;stroke-miterlimit:10;stroke-dasharray:none"
                 id="path3072" /><path
                 d="m 273.42,232.48 -87.46,19.14"
                 style="fill:none;stroke:#000000;stroke-opacity:1;stroke-width:1.06;stroke-linecap:butt;stroke-linejoin:round;stroke-miterlimit:10;stroke-dasharray:none"
                 id="path3074" /><path
                 d="m 190.02,252.91 -4.06,-1.29 3.15,-2.86"
                 style="fill:none;stroke:#000000;stroke-opacity:1;stroke-width:1.06;stroke-linecap:butt;stroke-linejoin:round;stroke-miterlimit:10;stroke-dasharray:none"
                 id="path3076" /><path
                 d="m 273.42,232.48 -22.25,85.35"
                 style="fill:none;stroke:#000000;stroke-opacity:1;stroke-width:1.06;stroke-linecap:butt;stroke-linejoin:round;stroke-miterlimit:10;stroke-dasharray:none"
                 id="path3078" /><path
                 d="m 254.16,314.81 -2.99,3.02 -1.12,-4.1"
                 style="fill:none;stroke:#000000;stroke-opacity:1;stroke-width:1.06;stroke-linecap:butt;stroke-linejoin:round;stroke-miterlimit:10;stroke-dasharray:none"
                 id="path3080" /><path
                 d="m 361.69,244.6 c 0,2.04 1.67,3.72 3.72,3.72 2.05,0 3.72,-1.68 3.72,-3.72 0,-2.05 -1.67,-3.72 -3.72,-3.72 -2.05,0 -3.72,1.67 -3.72,3.72"
                 style="fill:#d89000;fill-opacity:1;fill-rule:nonzero;stroke:#000000;stroke-opacity:1;stroke-width:0.75;stroke-linecap:round;stroke-linejoin:round;stroke-miterlimit:10;stroke-dasharray:none"
                 id="path3082" /><path
                 d="m 369.42,239.14 6.59,0 0,6.59 -6.59,0 0,-6.59 z"
                 style="fill:#d89000;fill-opacity:1;fill-rule:nonzero;stroke:#000000;stroke-opacity:1;stroke-width:0.75;stroke-linecap:round;stroke-linejoin:round;stroke-miterlimit:10;stroke-dasharray:none"
                 id="path3084" /><path
                 d="m 378.91,269.42 c 0,2.05 1.68,3.72 3.72,3.72 2.05,0 3.72,-1.67 3.72,-3.72 0,-2.04 -1.67,-3.72 -3.72,-3.72 -2.04,0 -3.72,1.68 -3.72,3.72"
                 style="fill:#ff62bc;fill-opacity:1;fill-rule:nonzero;stroke:#000000;stroke-opacity:1;stroke-width:0.75;stroke-linecap:round;stroke-linejoin:round;stroke-miterlimit:10;stroke-dasharray:none"
                 id="path3086" /><path
                 d="m 360.35,203.08 6.59,0 0,6.59 -6.59,0 0,-6.59 z"
                 style="fill:#ff62bc;fill-opacity:1;fill-rule:nonzero;stroke:#000000;stroke-opacity:1;stroke-width:0.75;stroke-linecap:round;stroke-linejoin:round;stroke-miterlimit:10;stroke-dasharray:none"
                 id="path3088" /><path
                 d="m 361.12,242.68 4.66,4.66 -4.66,4.67 -4.67,-4.67 4.67,-4.66 z"
                 style="fill:#ff62bc;fill-opacity:1;fill-rule:nonzero;stroke:#000000;stroke-opacity:1;stroke-width:0.75;stroke-linecap:round;stroke-linejoin:round;stroke-miterlimit:10;stroke-dasharray:none"
                 id="path3090" /><path
                 d="m 339.88,253.04 c 0,2.05 1.68,3.72 3.72,3.72 2.05,0 3.72,-1.67 3.72,-3.72 0,-2.04 -1.67,-3.72 -3.72,-3.72 -2.04,0 -3.72,1.68 -3.72,3.72"
                 style="fill:#00bfc4;fill-opacity:1;fill-rule:nonzero;stroke:#000000;stroke-opacity:1;stroke-width:0.75;stroke-linecap:round;stroke-linejoin:round;stroke-miterlimit:10;stroke-dasharray:none"
                 id="path3092" /><path
                 d="m 298.94,240.62 6.59,0 0,6.59 -6.59,0 0,-6.59 z"
                 style="fill:#00bfc4;fill-opacity:1;fill-rule:nonzero;stroke:#000000;stroke-opacity:1;stroke-width:0.75;stroke-linecap:round;stroke-linejoin:round;stroke-miterlimit:10;stroke-dasharray:none"
                 id="path3094" /><path
                 d="m 261.31,227.76 c 0,2.05 1.68,3.72 3.72,3.72 2.05,0 3.72,-1.67 3.72,-3.72 0,-2.05 -1.67,-3.72 -3.72,-3.72 -2.04,0 -3.72,1.67 -3.72,3.72"
                 style="fill:#9590ff;fill-opacity:1;fill-rule:nonzero;stroke:#000000;stroke-opacity:1;stroke-width:0.75;stroke-linecap:round;stroke-linejoin:round;stroke-miterlimit:10;stroke-dasharray:none"
                 id="path3096" /><path
                 d="m 154.69,205.6 6.59,0 0,6.59 -6.59,0 0,-6.59 z"
                 style="fill:#9590ff;fill-opacity:1;fill-rule:nonzero;stroke:#000000;stroke-opacity:1;stroke-width:0.75;stroke-linecap:round;stroke-linejoin:round;stroke-miterlimit:10;stroke-dasharray:none"
                 id="path3098" /><path
                 d="m 232.9,213.65 c 0,2.05 1.67,3.72 3.72,3.72 2.05,0 3.72,-1.67 3.72,-3.72 0,-2.05 -1.67,-3.72 -3.72,-3.72 -2.05,0 -3.72,1.67 -3.72,3.72"
                 style="fill:#39b600;fill-opacity:1;fill-rule:nonzero;stroke:#000000;stroke-opacity:1;stroke-width:0.75;stroke-linecap:round;stroke-linejoin:round;stroke-miterlimit:10;stroke-dasharray:none"
                 id="path3100" /><path
                 d="m 291.39,233.12 6.59,0 0,6.59 -6.59,0 0,-6.59 z"
                 style="fill:#39b600;fill-opacity:1;fill-rule:nonzero;stroke:#000000;stroke-opacity:1;stroke-width:0.75;stroke-linecap:round;stroke-linejoin:round;stroke-miterlimit:10;stroke-dasharray:none"
                 id="path3102" /><path
                 d="m 175.03,222.59 c 0,2.05 1.68,3.72 3.72,3.72 2.05,0 3.72,-1.67 3.72,-3.72 0,-2.04 -1.67,-3.72 -3.72,-3.72 -2.04,0 -3.72,1.68 -3.72,3.72"
                 style="fill:#f8766d;fill-opacity:1;fill-rule:nonzero;stroke:#000000;stroke-opacity:1;stroke-width:0.75;stroke-linecap:round;stroke-linejoin:round;stroke-miterlimit:10;stroke-dasharray:none"
                 id="path3104" /><path
                 d="m 176.95,178.07 6.59,0 0,6.59 -6.59,0 0,-6.59 z"
                 style="fill:#f8766d;fill-opacity:1;fill-rule:nonzero;stroke:#000000;stroke-opacity:1;stroke-width:0.75;stroke-linecap:round;stroke-linejoin:round;stroke-miterlimit:10;stroke-dasharray:none"
                 id="path3106" /><path
                 d="m 66.67,238.65 c 0,2.05 1.67,3.72 3.72,3.72 2.04,0 3.72,-1.67 3.72,-3.72 0,-2.04 -1.68,-3.72 -3.72,-3.72 -2.05,0 -3.72,1.68 -3.72,3.72"
                 style="fill:#00bf7d;fill-opacity:1;fill-rule:nonzero;stroke:#000000;stroke-opacity:1;stroke-width:0.75;stroke-linecap:round;stroke-linejoin:round;stroke-miterlimit:10;stroke-dasharray:none"
                 id="path3108" /><path
                 d="m 189.24,217.04 6.59,0 0,6.59 -6.59,0 0,-6.59 z"
                 style="fill:#00bf7d;fill-opacity:1;fill-rule:nonzero;stroke:#000000;stroke-opacity:1;stroke-width:0.75;stroke-linecap:round;stroke-linejoin:round;stroke-miterlimit:10;stroke-dasharray:none"
                 id="path3110" /><path
                 d="m 268.82,241.42 c 0,2.04 1.67,3.72 3.72,3.72 2.04,0 3.72,-1.68 3.72,-3.72 0,-2.05 -1.68,-3.72 -3.72,-3.72 -2.05,0 -3.72,1.67 -3.72,3.72"
                 style="fill:#00b0f6;fill-opacity:1;fill-rule:nonzero;stroke:#000000;stroke-opacity:1;stroke-width:0.75;stroke-linecap:round;stroke-linejoin:round;stroke-miterlimit:10;stroke-dasharray:none"
                 id="path3112" /><path
                 d="m 284.29,218.38 6.59,0 0,6.59 -6.59,0 0,-6.59 z"
                 style="fill:#00b0f6;fill-opacity:1;fill-rule:nonzero;stroke:#000000;stroke-opacity:1;stroke-width:0.75;stroke-linecap:round;stroke-linejoin:round;stroke-miterlimit:10;stroke-dasharray:none"
                 id="path3114" /><path
                 d="m 269.42,242.09 c 0,2.05 1.68,3.73 3.72,3.73 2.05,0 3.72,-1.68 3.72,-3.73 0,-2.04 -1.67,-3.72 -3.72,-3.72 -2.04,0 -3.72,1.68 -3.72,3.72"
                 style="fill:#a3a500;fill-opacity:1;fill-rule:nonzero;stroke:#000000;stroke-opacity:1;stroke-width:0.75;stroke-linecap:round;stroke-linejoin:round;stroke-miterlimit:10;stroke-dasharray:none"
                 id="path3116" /><path
                 d="m 285.01,225.44 6.59,0 0,6.59 -6.59,0 0,-6.59 z"
                 style="fill:#a3a500;fill-opacity:1;fill-rule:nonzero;stroke:#000000;stroke-opacity:1;stroke-width:0.75;stroke-linecap:round;stroke-linejoin:round;stroke-miterlimit:10;stroke-dasharray:none"
                 id="path3118" /><path
                 d="m 282.17,260.24 c 0,2.05 1.68,3.72 3.72,3.72 2.05,0 3.72,-1.67 3.72,-3.72 0,-2.05 -1.67,-3.72 -3.72,-3.72 -2.04,0 -3.72,1.67 -3.72,3.72"
                 style="fill:#e76bf3;fill-opacity:1;fill-rule:nonzero;stroke:#000000;stroke-opacity:1;stroke-width:0.75;stroke-linecap:round;stroke-linejoin:round;stroke-miterlimit:10;stroke-dasharray:none"
                 id="path3120" /><path
                 d="m 263.34,227.87 6.59,0 0,6.59 -6.59,0 0,-6.59 z"
                 style="fill:#e76bf3;fill-opacity:1;fill-rule:nonzero;stroke:#000000;stroke-opacity:1;stroke-width:0.75;stroke-linecap:round;stroke-linejoin:round;stroke-miterlimit:10;stroke-dasharray:none"
                 id="path3122" /><text
                 transform="scale(1,-1)"
                 id="text3124"
                 x="349.42001"
                 y="-228.8"><tspan
                   style="font-size:11px;font-variant:normal;font-weight:normal;writing-mode:lr-tb;fill:#000000;fill-opacity:1;fill-rule:nonzero;stroke:none;font-family:Helvetica;-inkscape-font-specification:Helvetica"
                   x="349.42001 356.75702 364.09402"
                   y="-228.8"
                   sodipodi:role="line"
                   id="tspan3126">BE1</tspan></text>
<text
                 transform="scale(1,-1)"
                 id="text3128"
                 x="381.11002"
                 y="-238.11"><tspan
                   style="font-size:11px;font-variant:normal;font-weight:normal;writing-mode:lr-tb;fill:#000000;fill-opacity:1;fill-rule:nonzero;stroke:none;font-family:Helvetica;-inkscape-font-specification:Helvetica"
                   x="381.11002 388.44702 395.78403"
                   y="-238.11"
                   sodipodi:role="line"
                   id="tspan3130">BE2</tspan></text>
<text
                 transform="scale(1,-1)"
                 id="text3132"
                 x="387.56131"
                 y="-260.50037"><tspan
                   style="font-size:11px;font-variant:normal;font-weight:normal;writing-mode:lr-tb;fill:#000000;fill-opacity:1;fill-rule:nonzero;stroke:none;font-family:Helvetica;-inkscape-font-specification:Helvetica"
                   x="387.56131 395.5033 403.44528"
                   y="-260.50037"
                   sodipodi:role="line"
                   id="tspan3134">UN1</tspan></text>
<text
                 transform="matrix(1,0,0,-1,352.65,190.59)"
                 id="text3136"><tspan
                   style="fill:#000000;fill-opacity:1;fill-rule:nonzero;stroke:none;font-family:Helvetica;font-variant:normal;font-weight:normal;font-size:11;writing-mode:lr;-inkscape-font-specification:Helvetica"
                   x="0 7.942 15.884"
                   y="0"
                   sodipodi:role="line"
                   id="tspan3138">UN2</tspan></text>
<text
                 transform="scale(1,-1)"
                 id="text3140"
                 x="359.28049"
                 y="-253.44772"><tspan
                   style="font-size:11px;font-variant:normal;font-weight:normal;writing-mode:lr-tb;fill:#000000;fill-opacity:1;fill-rule:nonzero;stroke:none;font-family:Helvetica;-inkscape-font-specification:Helvetica"
                   x="359.28049 367.2225 375.16449"
                   y="-253.44772"
                   sodipodi:role="line"
                   id="tspan3142">UN3</tspan></text>
<text
                 transform="matrix(1,0,0,-1,327.56,237.25)"
                 id="text3144"><tspan
                   style="fill:#000000;fill-opacity:1;fill-rule:nonzero;stroke:none;font-family:Helvetica;font-variant:normal;font-weight:normal;font-size:11;writing-mode:lr;-inkscape-font-specification:Helvetica"
                   x="0 7.337 15.279"
                   y="0"
                   sodipodi:role="line"
                   id="tspan3146">SD1</tspan></text>
<text
                 transform="matrix(1,0,0,-1,147.9,193.1)"
                 id="text3148"><tspan
                   style="fill:#000000;fill-opacity:1;fill-rule:nonzero;stroke:none;font-family:Helvetica;font-variant:normal;font-weight:normal;font-size:11;writing-mode:lr;-inkscape-font-specification:Helvetica"
                   x="0 7.337 14.058"
                   y="0"
                   sodipodi:role="line"
                   id="tspan3150">ST2</tspan></text>
<text
                 transform="matrix(1,0,0,-1,168.22,230.49)"
                 id="text3152"><tspan
                   style="fill:#000000;fill-opacity:1;fill-rule:nonzero;stroke:none;font-family:Helvetica;font-variant:normal;font-weight:normal;font-size:11;writing-mode:lr;-inkscape-font-specification:Helvetica"
                   x="0 7.007 14.949"
                   y="0"
                   sodipodi:role="line"
                   id="tspan3154">AC1</tspan></text>
<text
                 transform="matrix(1,0,0,-1,169.72,165.57)"
                 id="text3156"><tspan
                   style="fill:#000000;fill-opacity:1;fill-rule:nonzero;stroke:none;font-family:Helvetica;font-variant:normal;font-weight:normal;font-size:11;writing-mode:lr;-inkscape-font-specification:Helvetica"
                   x="0 7.007 14.949"
                   y="0"
                   sodipodi:role="line"
                   id="tspan3158">AC2</tspan></text>
<text
                 transform="matrix(1,0,0,-1,59.38,222.86)"
                 id="text3160"><tspan
                   style="fill:#000000;fill-opacity:1;fill-rule:nonzero;stroke:none;font-family:Helvetica;font-variant:normal;font-weight:normal;font-size:11;writing-mode:lr;-inkscape-font-specification:Helvetica"
                   x="0 7.337 15.895"
                   y="0"
                   sodipodi:role="line"
                   id="tspan3162">PO1</tspan></text>
<text
                 transform="scale(1,-1)"
                 id="text3164"
                 x="198.55656"
                 y="-216.68761"><tspan
                   style="font-size:11px;font-variant:normal;font-weight:normal;writing-mode:lr-tb;fill:#000000;fill-opacity:1;fill-rule:nonzero;stroke:none;font-family:Helvetica;-inkscape-font-specification:Helvetica"
                   x="198.55656 205.89357 214.45157"
                   y="-216.68761"
                   sodipodi:role="line"
                   id="tspan3166">PO2</tspan></text>
<text
                 transform="matrix(1,0,0,-1,325.14,274.09)"
                 id="text3168"><tspan
                   style="fill:#000000;fill-opacity:1;fill-rule:nonzero;stroke:none;font-family:Helvetica;font-variant:normal;font-weight:normal;font-size:9;writing-mode:lr;-inkscape-font-specification:Helvetica"
                   x="0 5.283 10.287 13.554 18.054 20.556 27.963 32.967 37.467 42.471 44.973 46.971 48.969 53.289 58.293 60.795 68.292"
                   y="0"
                   sodipodi:role="line"
                   id="tspan3170">Very much like me</tspan></text>
<text
                 transform="scale(1,-1)"
                 id="text3172"
                 x="325.57996"
                 y="-203.8"><tspan
                   style="font-size:9px;font-variant:normal;font-weight:normal;writing-mode:lr-tb;fill:#000000;fill-opacity:1;fill-rule:nonzero;stroke:none;font-family:Helvetica;-inkscape-font-specification:Helvetica"
                   x="325.57996 330.58395 332.58197 336.90198 341.90598 344.40796 351.90497"
                   y="-203.8"
                   sodipodi:role="line"
                   id="tspan3174">Like me</tspan></text>
<text
                 transform="matrix(1,0,0,-1,279.99,177.35)"
                 id="text3176"><tspan
                   style="fill:#000000;fill-opacity:1;fill-rule:nonzero;stroke:none;font-family:Helvetica;font-variant:normal;font-weight:normal;font-size:9;writing-mode:lr;-inkscape-font-specification:Helvetica"
                   x="0 6.003 11.007 18.504 23.328 29.826 34.83 39.834 42.336 44.838 46.836 48.834 53.154 58.158 60.66 68.157"
                   y="0"
                   sodipodi:role="line"
                   id="tspan3178">Somewhat like me</tspan></text>
<text
                 transform="matrix(1,0,0,-1,198.47,173.04)"
                 id="text3180"><tspan
                   style="fill:#000000;fill-opacity:1;fill-rule:nonzero;stroke:none;font-family:Helvetica;font-variant:normal;font-weight:normal;font-size:9;writing-mode:lr;-inkscape-font-specification:Helvetica"
                   x="0 6.003 8.505 10.503 12.501 15.003 17.505 19.503 24.507 27.009 29.007 31.005 35.325 40.329 42.831 50.328"
                   y="0"
                   sodipodi:role="line"
                   id="tspan3182">A little like me</tspan></text>
<text
                 transform="matrix(1,0,0,-1,177.72,197.33)"
                 id="text3184"><tspan
                   style="fill:#000000;fill-opacity:1;fill-rule:nonzero;stroke:none;font-family:Helvetica;font-variant:normal;font-weight:normal;font-size:9;writing-mode:lr;-inkscape-font-specification:Helvetica"
                   x="0 6.498 11.502 14.004 16.506 18.504 20.502 24.822 29.826 32.328 39.825"
                   y="0"
                   sodipodi:role="line"
                   id="tspan3186">Not like me</tspan></text>
<text
                 transform="matrix(1,0,0,-1,152.79,254.85)"
                 id="text3188"><tspan
                   style="fill:#000000;fill-opacity:1;fill-rule:nonzero;stroke:none;font-family:Helvetica;font-variant:normal;font-weight:normal;font-size:9;writing-mode:lr;-inkscape-font-specification:Helvetica"
                   x="0 6.498 11.502 14.004 16.506 18.504 20.502 24.822 29.826 32.328 39.825 44.829 47.331 52.335 54.837 57.339 62.343 64.341"
                   y="0"
                   sodipodi:role="line"
                   id="tspan3190">Not like me at all</tspan></text>
<text
                 transform="matrix(1,0,0,-1,229.71,321.06)"
                 id="text3192"><tspan
                   style="fill:#000000;fill-opacity:1;fill-rule:nonzero;stroke:none;font-family:Helvetica;font-variant:normal;font-weight:normal;font-size:9;writing-mode:lr;-inkscape-font-specification:Helvetica"
                   x="0 6.498 11.502 14.004 19.008 24.012 28.512 34.92 39.924"
                   y="0"
                   sodipodi:role="line"
                   id="tspan3194">No answer</tspan></text>
<path
                 d="m 41.5,131.04 412.1,0 0,211.54 -412.1,0 0,-211.54 z"
                 style="fill:none;stroke:#7f7f7f;stroke-opacity:1;stroke-width:1.06;stroke-linecap:round;stroke-linejoin:round;stroke-miterlimit:10;stroke-dasharray:none"
                 id="path3196" /></g></g><g
             id="g3198" /><g
             id="g3200" /><g
             id="g3202"><text
               transform="matrix(1,0,0,-1,23.02,172.41)"
               id="text3204"><tspan
                 style="fill:#000000;fill-opacity:1;fill-rule:nonzero;stroke:none;font-family:Helvetica;font-variant:normal;font-weight:normal;font-size:10;writing-mode:lr;-inkscape-font-specification:Helvetica"
                 x="0 5.84"
                 y="0"
                 sodipodi:role="line"
                 id="tspan3206">−1</tspan></text>
<text
               transform="matrix(1,0,0,-1,28.86,228.89)"
               id="text3208"><tspan
                 style="fill:#000000;fill-opacity:1;fill-rule:nonzero;stroke:none;font-family:Helvetica;font-variant:normal;font-weight:normal;font-size:10;writing-mode:lr;-inkscape-font-specification:Helvetica"
                 x="0"
                 y="0"
                 id="tspan3210">0</tspan></text>
<text
               transform="matrix(1,0,0,-1,28.86,285.38)"
               id="text3212"><tspan
                 style="fill:#000000;fill-opacity:1;fill-rule:nonzero;stroke:none;font-family:Helvetica;font-variant:normal;font-weight:normal;font-size:10;writing-mode:lr;-inkscape-font-specification:Helvetica"
                 x="0"
                 y="0"
                 id="tspan3214">1</tspan></text>
</g><g
             id="g3216" /><g
             id="g3218"><path
               d="m 37.25,176 4.25,0"
               style="fill:none;stroke:#000000;stroke-opacity:1;stroke-width:1.06;stroke-linecap:butt;stroke-linejoin:round;stroke-miterlimit:10;stroke-dasharray:none"
               id="path3220" /><path
               d="m 37.25,232.48 4.25,0"
               style="fill:none;stroke:#000000;stroke-opacity:1;stroke-width:1.06;stroke-linecap:butt;stroke-linejoin:round;stroke-miterlimit:10;stroke-dasharray:none"
               id="path3222" /><path
               d="m 37.25,288.97 4.25,0"
               style="fill:none;stroke:#000000;stroke-opacity:1;stroke-width:1.06;stroke-linecap:butt;stroke-linejoin:round;stroke-miterlimit:10;stroke-dasharray:none"
               id="path3224" /></g><g
             id="g3226" /><g
             id="g3228" /><g
             id="g3230" /><g
             id="g3232" /><g
             id="g3234" /><g
             id="g3236"><path
               d="m 47.48,126.79 0,4.25"
               style="fill:none;stroke:#000000;stroke-opacity:1;stroke-width:1.06;stroke-linecap:butt;stroke-linejoin:round;stroke-miterlimit:10;stroke-dasharray:none"
               id="path3238" /><path
               d="m 160.45,126.79 0,4.25"
               style="fill:none;stroke:#000000;stroke-opacity:1;stroke-width:1.06;stroke-linecap:butt;stroke-linejoin:round;stroke-miterlimit:10;stroke-dasharray:none"
               id="path3240" /><path
               d="m 273.42,126.79 0,4.25"
               style="fill:none;stroke:#000000;stroke-opacity:1;stroke-width:1.06;stroke-linecap:butt;stroke-linejoin:round;stroke-miterlimit:10;stroke-dasharray:none"
               id="path3242" /><path
               d="m 386.38,126.79 0,4.25"
               style="fill:none;stroke:#000000;stroke-opacity:1;stroke-width:1.06;stroke-linecap:butt;stroke-linejoin:round;stroke-miterlimit:10;stroke-dasharray:none"
               id="path3244" /></g><g
             id="g3246" /><g
             id="g3248"><text
               transform="matrix(1,0,0,-1,41.78,116.78)"
               id="text3250"><tspan
                 style="fill:#000000;fill-opacity:1;fill-rule:nonzero;stroke:none;font-family:Helvetica;font-variant:normal;font-weight:normal;font-size:10;writing-mode:lr;-inkscape-font-specification:Helvetica"
                 x="0 5.84"
                 y="0"
                 sodipodi:role="line"
                 id="tspan3252">−4</tspan></text>
<text
               transform="matrix(1,0,0,-1,154.75,116.78)"
               id="text3254"><tspan
                 style="fill:#000000;fill-opacity:1;fill-rule:nonzero;stroke:none;font-family:Helvetica;font-variant:normal;font-weight:normal;font-size:10;writing-mode:lr;-inkscape-font-specification:Helvetica"
                 x="0 5.84"
                 y="0"
                 sodipodi:role="line"
                 id="tspan3256">−2</tspan></text>
<text
               transform="matrix(1,0,0,-1,270.64,116.78)"
               id="text3258"><tspan
                 style="fill:#000000;fill-opacity:1;fill-rule:nonzero;stroke:none;font-family:Helvetica;font-variant:normal;font-weight:normal;font-size:10;writing-mode:lr;-inkscape-font-specification:Helvetica"
                 x="0"
                 y="0"
                 id="tspan3260">0</tspan></text>
<text
               transform="matrix(1,0,0,-1,383.6,116.78)"
               id="text3262"><tspan
                 style="fill:#000000;fill-opacity:1;fill-rule:nonzero;stroke:none;font-family:Helvetica;font-variant:normal;font-weight:normal;font-size:10;writing-mode:lr;-inkscape-font-specification:Helvetica"
                 x="0"
                 y="0"
                 id="tspan3264">2</tspan></text>
</g><g
             id="g3266" /><g
             id="g3268" /><g
             id="g3270" /><g
             id="g3272" /><g
             id="g3274"><text
               transform="matrix(1,0,0,-1,230.22,104.56)"
               id="text3276"><tspan
                 style="fill:#000000;fill-opacity:1;fill-rule:nonzero;stroke:none;font-family:Helvetica;font-variant:normal;font-weight:normal;font-size:12;writing-mode:lr;-inkscape-font-specification:Helvetica"
                 x="0 8.664 11.328 21.324 24.66 27.996"
                 y="0"
                 sodipodi:role="line"
                 id="tspan3278">Dim. 1</tspan></text>
</g><g
             id="g3280" /><g
             id="g3282"><text
               transform="matrix(0,1,1,0,19.42,219.48)"
               id="text3284"><tspan
                 style="fill:#000000;fill-opacity:1;fill-rule:nonzero;stroke:none;font-family:Helvetica;font-variant:normal;font-weight:normal;font-size:12;writing-mode:lr;-inkscape-font-specification:Helvetica"
                 x="0 8.664 11.328 21.324 24.66 27.996"
                 y="0"
                 sodipodi:role="line"
                 id="tspan3286">Dim. 2</tspan></text>
</g><g
             id="g3288" /><g
             id="g3290"><text
               transform="matrix(1,0,0,-1,176.75,346.19)"
               id="text3292"><tspan
                 style="fill:#000000;fill-opacity:1;fill-rule:nonzero;stroke:none;font-family:Helvetica;font-variant:normal;font-weight:normal;font-size:14;writing-mode:lr;-inkscape-font-specification:Helvetica"
                 x="0 7.784 11.676 15.568 27.23 35.014 38.122 45.906 52.906 56.798 61.46 69.244 77.028 88.69 92.582 97.244 105.028 112.812 116.704 124.488 136.934"
                 y="0"
                 sodipodi:role="line"
                 id="tspan3294">1: Mainstream (22.0%)</tspan></text>
</g><g
             id="g3296" /><g
             id="g3298" /></g></g></g></g></svg>