<?xml version="1.0" encoding="UTF-8" standalone="no"?>
<!-- Created with Inkscape (http://www.inkscape.org/) -->

<svg
   xmlns:dc="http://purl.org/dc/elements/1.1/"
   xmlns:cc="http://creativecommons.org/ns#"
   xmlns:rdf="http://www.w3.org/1999/02/22-rdf-syntax-ns#"
   xmlns:svg="http://www.w3.org/2000/svg"
   xmlns="http://www.w3.org/2000/svg"
   xmlns:sodipodi="http://sodipodi.sourceforge.net/DTD/sodipodi-0.dtd"
   xmlns:inkscape="http://www.inkscape.org/namespaces/inkscape"
   id="svg3714"
   version="1.1"
   inkscape:version="0.48.4 r9939"
   width="558.75"
   height="320"
   xml:space="preserve"
   sodipodi:docname="Paper-biplots-3.pdf"><metadata
     id="metadata3720"><rdf:RDF><cc:Work
         rdf:about=""><dc:format>image/svg+xml</dc:format><dc:type
           rdf:resource="http://purl.org/dc/dcmitype/StillImage" /><dc:title></dc:title></cc:Work></rdf:RDF></metadata><defs
     id="defs3718"><clipPath
       clipPathUnits="userSpaceOnUse"
       id="clipPath3730"><path
         d="M 0,0 468,0 468,468 0,468 0,0 z"
         id="path3732" /></clipPath><clipPath
       clipPathUnits="userSpaceOnUse"
       id="clipPath3742"><path
         d="m 0,93.76 468,0 0,280.48 -468,0 0,-280.48 z"
         id="path3744" /></clipPath><clipPath
       clipPathUnits="userSpaceOnUse"
       id="clipPath3758"><path
         d="m 41.5,131.04 412.1,0 0,211.54 -412.1,0 0,-211.54 z"
         id="path3760" /></clipPath></defs><sodipodi:namedview
     pagecolor="#ffffff"
     bordercolor="#666666"
     borderopacity="1"
     objecttolerance="10"
     gridtolerance="10"
     guidetolerance="10"
     inkscape:pageopacity="0"
     inkscape:pageshadow="2"
     inkscape:window-width="1873"
     inkscape:window-height="1056"
     id="namedview3716"
     showgrid="false"
     inkscape:zoom="1.7767837"
     inkscape:cx="351.86349"
     inkscape:cy="251.4384"
     inkscape:window-x="1967"
     inkscape:window-y="24"
     inkscape:window-maximized="1"
     inkscape:current-layer="g3722" /><g
     id="g3722"
     inkscape:groupmode="layer"
     inkscape:label="Paper-biplots-3"
     transform="matrix(1.25,0,0,-1.25,0,320)"><g
       id="g3724"
       transform="translate(-7,-101)"><g
         id="g3726"><g
           id="g3728"
           clip-path="url(#clipPath3730)"><g
             id="g3734" /><g
             id="g3736" /><g
             id="g3738"><g
               id="g3740"
               clip-path="url(#clipPath3742)"><path
                 d="m 0,93.76 468,0 0,280.48 -468,0 0,-280.48 z"
                 style="fill:#ffffff;fill-opacity:1;fill-rule:nonzero;stroke:#ffffff;stroke-opacity:1;stroke-width:1.06;stroke-linecap:round;stroke-linejoin:round;stroke-miterlimit:10;stroke-dasharray:none"
                 id="path3746" /></g></g><g
             id="g3748" /><g
             id="g3750" /><g
             id="g3752" /><g
             id="g3754"><g
               id="g3756"
               clip-path="url(#clipPath3758)"><path
                 d="m 41.5,131.04 412.1,0 0,211.54 -412.1,0 0,-211.54 z"
                 style="fill:#ffffff;fill-opacity:1;fill-rule:nonzero;stroke:none"
                 id="path3762" /><path
                 d="m 273.42,232.48 95.7,35.15"
                 style="fill:none;stroke:#000000;stroke-opacity:1;stroke-width:1.06;stroke-linecap:butt;stroke-linejoin:round;stroke-miterlimit:10;stroke-dasharray:none"
                 id="path3764" /><path
                 d="m 366.39,264.37 2.73,3.26 -4.19,0.73"
                 style="fill:none;stroke:#000000;stroke-opacity:1;stroke-width:1.06;stroke-linecap:butt;stroke-linejoin:round;stroke-miterlimit:10;stroke-dasharray:none"
                 id="path3766" /><path
                 d="m 273.42,232.48 69.62,-18.99"
                 style="fill:none;stroke:#000000;stroke-opacity:1;stroke-width:1.06;stroke-linecap:butt;stroke-linejoin:round;stroke-miterlimit:10;stroke-dasharray:none"
                 id="path3768" /><path
                 d="m 338.93,212.41 4.11,1.08 -2.99,3.02"
                 style="fill:none;stroke:#000000;stroke-opacity:1;stroke-width:1.06;stroke-linecap:butt;stroke-linejoin:round;stroke-miterlimit:10;stroke-dasharray:none"
                 id="path3770" /><path
                 d="m 273.42,232.48 24.86,-45.44"
                 style="fill:none;stroke:#000000;stroke-opacity:1;stroke-width:1.06;stroke-linecap:butt;stroke-linejoin:round;stroke-miterlimit:10;stroke-dasharray:none"
                 id="path3772" /><path
                 d="m 294.65,189.25 3.63,-2.21 0.1,4.25"
                 style="fill:none;stroke:#000000;stroke-opacity:1;stroke-width:1.06;stroke-linecap:butt;stroke-linejoin:round;stroke-miterlimit:10;stroke-dasharray:none"
                 id="path3774" /><path
                 d="M 273.42,232.48 248.27,182.74"
                 style="fill:none;stroke:#000000;stroke-opacity:1;stroke-width:1.06;stroke-linecap:butt;stroke-linejoin:round;stroke-miterlimit:10;stroke-dasharray:none"
                 id="path3776" /><path
                 d="m 248.03,186.98 0.24,-4.24 3.55,2.32"
                 style="fill:none;stroke:#000000;stroke-opacity:1;stroke-width:1.06;stroke-linecap:butt;stroke-linejoin:round;stroke-miterlimit:10;stroke-dasharray:none"
                 id="path3778" /><path
                 d="M 273.42,232.48 218.06,207.02"
                 style="fill:none;stroke:#000000;stroke-opacity:1;stroke-width:1.06;stroke-linecap:butt;stroke-linejoin:round;stroke-miterlimit:10;stroke-dasharray:none"
                 id="path3780" /><path
                 d="m 220.52,210.49 -2.46,-3.47 4.24,-0.39"
                 style="fill:none;stroke:#000000;stroke-opacity:1;stroke-width:1.06;stroke-linecap:butt;stroke-linejoin:round;stroke-miterlimit:10;stroke-dasharray:none"
                 id="path3782" /><path
                 d="m 273.42,232.48 -87.46,19.14"
                 style="fill:none;stroke:#000000;stroke-opacity:1;stroke-width:1.06;stroke-linecap:butt;stroke-linejoin:round;stroke-miterlimit:10;stroke-dasharray:none"
                 id="path3784" /><path
                 d="m 190.02,252.91 -4.06,-1.29 3.15,-2.86"
                 style="fill:none;stroke:#000000;stroke-opacity:1;stroke-width:1.06;stroke-linecap:butt;stroke-linejoin:round;stroke-miterlimit:10;stroke-dasharray:none"
                 id="path3786" /><path
                 d="m 273.42,232.48 -22.25,85.35"
                 style="fill:none;stroke:#000000;stroke-opacity:1;stroke-width:1.06;stroke-linecap:butt;stroke-linejoin:round;stroke-miterlimit:10;stroke-dasharray:none"
                 id="path3788" /><path
                 d="m 254.16,314.81 -2.99,3.02 -1.12,-4.1"
                 style="fill:none;stroke:#000000;stroke-opacity:1;stroke-width:1.06;stroke-linecap:butt;stroke-linejoin:round;stroke-miterlimit:10;stroke-dasharray:none"
                 id="path3790" /><path
                 d="m 321.66,243.63 c 0,2.05 1.67,3.72 3.72,3.72 2.04,0 3.72,-1.67 3.72,-3.72 0,-2.05 -1.68,-3.72 -3.72,-3.72 -2.05,0 -3.72,1.67 -3.72,3.72"
                 style="fill:#d89000;fill-opacity:1;fill-rule:nonzero;stroke:#000000;stroke-opacity:1;stroke-width:0.75;stroke-linecap:round;stroke-linejoin:round;stroke-miterlimit:10;stroke-dasharray:none"
                 id="path3792" /><path
                 d="m 367.25,218.39 6.59,0 0,6.59 -6.59,0 0,-6.59 z"
                 style="fill:#d89000;fill-opacity:1;fill-rule:nonzero;stroke:#000000;stroke-opacity:1;stroke-width:0.75;stroke-linecap:round;stroke-linejoin:round;stroke-miterlimit:10;stroke-dasharray:none"
                 id="path3794" /><path
                 d="m 351.33,239.92 c 0,2.05 1.68,3.72 3.72,3.72 2.05,0 3.72,-1.67 3.72,-3.72 0,-2.04 -1.67,-3.72 -3.72,-3.72 -2.04,0 -3.72,1.68 -3.72,3.72"
                 style="fill:#ff62bc;fill-opacity:1;fill-rule:nonzero;stroke:#000000;stroke-opacity:1;stroke-width:0.75;stroke-linecap:round;stroke-linejoin:round;stroke-miterlimit:10;stroke-dasharray:none"
                 id="path3796" /><path
                 d="m 313.16,196.81 6.59,0 0,6.59 -6.59,0 0,-6.59 z"
                 style="fill:#ff62bc;fill-opacity:1;fill-rule:nonzero;stroke:#000000;stroke-opacity:1;stroke-width:0.75;stroke-linecap:round;stroke-linejoin:round;stroke-miterlimit:10;stroke-dasharray:none"
                 id="path3798" /><path
                 d="m 357.83,236.7 4.66,4.66 -4.66,4.66 -4.66,-4.66 4.66,-4.66 z"
                 style="fill:#ff62bc;fill-opacity:1;fill-rule:nonzero;stroke:#000000;stroke-opacity:1;stroke-width:0.75;stroke-linecap:round;stroke-linejoin:round;stroke-miterlimit:10;stroke-dasharray:none"
                 id="path3800" /><path
                 d="m 300.05,251.21 c 0,2.05 1.67,3.73 3.72,3.73 2.04,0 3.72,-1.68 3.72,-3.73 0,-2.04 -1.68,-3.72 -3.72,-3.72 -2.05,0 -3.72,1.68 -3.72,3.72"
                 style="fill:#00bfc4;fill-opacity:1;fill-rule:nonzero;stroke:#000000;stroke-opacity:1;stroke-width:0.75;stroke-linecap:round;stroke-linejoin:round;stroke-miterlimit:10;stroke-dasharray:none"
                 id="path3802" /><path
                 d="m 243.51,228.41 6.59,0 0,6.59 -6.59,0 0,-6.59 z"
                 style="fill:#00bfc4;fill-opacity:1;fill-rule:nonzero;stroke:#000000;stroke-opacity:1;stroke-width:0.75;stroke-linecap:round;stroke-linejoin:round;stroke-miterlimit:10;stroke-dasharray:none"
                 id="path3804" /><path
                 d="m 67.17,225.53 6.59,0 0,6.59 -6.59,0 0,-6.59 z"
                 style="fill:#9590ff;fill-opacity:1;fill-rule:nonzero;stroke:#000000;stroke-opacity:1;stroke-width:0.75;stroke-linecap:round;stroke-linejoin:round;stroke-miterlimit:10;stroke-dasharray:none"
                 id="path3808" /><path
                 d="m 218.19,208.36 c 0,2.05 1.67,3.72 3.72,3.72 2.04,0 3.72,-1.67 3.72,-3.72 0,-2.04 -1.68,-3.72 -3.72,-3.72 -2.05,0 -3.72,1.68 -3.72,3.72"
                 style="fill:#39b600;fill-opacity:1;fill-rule:nonzero;stroke:#000000;stroke-opacity:1;stroke-width:0.75;stroke-linecap:round;stroke-linejoin:round;stroke-miterlimit:10;stroke-dasharray:none"
                 id="path3810" /><path
                 d="m 255.49,209.33 6.59,0 0,6.59 -6.59,0 0,-6.59 z"
                 style="fill:#39b600;fill-opacity:1;fill-rule:nonzero;stroke:#000000;stroke-opacity:1;stroke-width:0.75;stroke-linecap:round;stroke-linejoin:round;stroke-miterlimit:10;stroke-dasharray:none"
                 id="path3812" /><path
                 d="m 197.53,222.32 c 0,2.05 1.68,3.72 3.72,3.72 2.05,0 3.72,-1.67 3.72,-3.72 0,-2.04 -1.67,-3.72 -3.72,-3.72 -2.04,0 -3.72,1.68 -3.72,3.72"
                 style="fill:#f8766d;fill-opacity:1;fill-rule:nonzero;stroke:#000000;stroke-opacity:1;stroke-width:0.75;stroke-linecap:round;stroke-linejoin:round;stroke-miterlimit:10;stroke-dasharray:none"
                 id="path3814" /><path
                 d="m 114.44,234.76 c 0,2.05 1.67,3.72 3.72,3.72 2.04,0 3.72,-1.67 3.72,-3.72 0,-2.05 -1.68,-3.72 -3.72,-3.72 -2.05,0 -3.72,1.67 -3.72,3.72"
                 style="fill:#00bf7d;fill-opacity:1;fill-rule:nonzero;stroke:#000000;stroke-opacity:1;stroke-width:0.75;stroke-linecap:round;stroke-linejoin:round;stroke-miterlimit:10;stroke-dasharray:none"
                 id="path3818" /><path
                 d="m 229.64,216.58 6.59,0 0,6.59 -6.59,0 0,-6.59 z"
                 style="fill:#00bf7d;fill-opacity:1;fill-rule:nonzero;stroke:#000000;stroke-opacity:1;stroke-width:0.75;stroke-linecap:round;stroke-linejoin:round;stroke-miterlimit:10;stroke-dasharray:none"
                 id="path3820" /><path
                 d="m 333.05,262.42 c 0,2.04 1.68,3.72 3.72,3.72 2.05,0 3.73,-1.68 3.73,-3.72 0,-2.05 -1.68,-3.72 -3.73,-3.72 -2.04,0 -3.72,1.67 -3.72,3.72"
                 style="fill:#00b0f6;fill-opacity:1;fill-rule:nonzero;stroke:#000000;stroke-opacity:1;stroke-width:0.75;stroke-linecap:round;stroke-linejoin:round;stroke-miterlimit:10;stroke-dasharray:none"
                 id="path3822" /><path
                 d="m 325.56,238.7 6.59,0 0,6.59 -6.59,0 0,-6.59 z"
                 style="fill:#00b0f6;fill-opacity:1;fill-rule:nonzero;stroke:#000000;stroke-opacity:1;stroke-width:0.75;stroke-linecap:round;stroke-linejoin:round;stroke-miterlimit:10;stroke-dasharray:none"
                 id="path3824" /><path
                 d="m 323.15,251.08 c 0,2.05 1.68,3.72 3.72,3.72 2.05,0 3.72,-1.67 3.72,-3.72 0,-2.05 -1.67,-3.72 -3.72,-3.72 -2.04,0 -3.72,1.67 -3.72,3.72"
                 style="fill:#a3a500;fill-opacity:1;fill-rule:nonzero;stroke:#000000;stroke-opacity:1;stroke-width:0.75;stroke-linecap:round;stroke-linejoin:round;stroke-miterlimit:10;stroke-dasharray:none"
                 id="path3826" /><path
                 d="m 351.53,230.22 6.59,0 0,6.59 -6.59,0 0,-6.59 z"
                 style="fill:#a3a500;fill-opacity:1;fill-rule:nonzero;stroke:#000000;stroke-opacity:1;stroke-width:0.75;stroke-linecap:round;stroke-linejoin:round;stroke-miterlimit:10;stroke-dasharray:none"
                 id="path3828" /><path
                 d="m 326.25,264.51 c 0,2.05 1.68,3.72 3.72,3.72 2.05,0 3.72,-1.67 3.72,-3.72 0,-2.04 -1.67,-3.72 -3.72,-3.72 -2.04,0 -3.72,1.68 -3.72,3.72"
                 style="fill:#e76bf3;fill-opacity:1;fill-rule:nonzero;stroke:#000000;stroke-opacity:1;stroke-width:0.75;stroke-linecap:round;stroke-linejoin:round;stroke-miterlimit:10;stroke-dasharray:none"
                 id="path3830" /><path
                 d="m 298.72,238.39 6.59,0 0,6.59 -6.59,0 0,-6.59 z"
                 style="fill:#e76bf3;fill-opacity:1;fill-rule:nonzero;stroke:#000000;stroke-opacity:1;stroke-width:0.75;stroke-linecap:round;stroke-linejoin:round;stroke-miterlimit:10;stroke-dasharray:none"
                 id="path3832" /><text
                 transform="scale(1,-1)"
                 id="text3834"
                 x="377.97906"
                 y="-216.40642"><tspan
                   style="font-size:11px;font-variant:normal;font-weight:normal;writing-mode:lr-tb;fill:#000000;fill-opacity:1;fill-rule:nonzero;stroke:none;font-family:Helvetica;-inkscape-font-specification:Helvetica"
                   x="377.97906 385.31607 392.65305"
                   y="-216.40642"
                   sodipodi:role="line"
                   id="tspan3836">BE2</tspan></text>
<text
                 transform="scale(1,-1)"
                 id="text3838"
                 x="336.3299"
                 y="-245.82941"><tspan
                   style="font-size:11px;font-variant:normal;font-weight:normal;writing-mode:lr-tb;fill:#000000;fill-opacity:1;fill-rule:nonzero;stroke:none;font-family:Helvetica;-inkscape-font-specification:Helvetica"
                   x="336.3299 344.27191 352.2139"
                   y="-245.82941"
                   sodipodi:role="line"
                   id="tspan3840">UN1</tspan></text>
<text
                 transform="scale(1,-1)"
                 id="text3842"
                 x="363.95413"
                 y="-234.42723"><tspan
                   style="font-size:11px;font-variant:normal;font-weight:normal;writing-mode:lr-tb;fill:#000000;fill-opacity:1;fill-rule:nonzero;stroke:none;font-family:Helvetica;-inkscape-font-specification:Helvetica"
                   x="363.95413 371.89612 379.8381"
                   y="-234.42723"
                   sodipodi:role="line"
                   id="tspan3844">UN3</tspan></text>
<text
                 transform="scale(1,-1)"
                 id="text3846"
                 x="173.43991"
                 y="-222.5923"><tspan
                   style="font-size:11px;font-variant:normal;font-weight:normal;writing-mode:lr-tb;fill:#000000;fill-opacity:1;fill-rule:nonzero;stroke:none;font-family:Helvetica;-inkscape-font-specification:Helvetica"
                   x="173.43991 180.77692 187.49791"
                   y="-222.5923"
                   sodipodi:role="line"
                   id="tspan3848">ST1</tspan></text>
<text
                 transform="matrix(1,0,0,-1,60.38,213.03)"
                 id="text3850"><tspan
                   style="fill:#000000;fill-opacity:1;fill-rule:nonzero;stroke:none;font-family:Helvetica;font-variant:normal;font-weight:normal;font-size:11;writing-mode:lr;-inkscape-font-specification:Helvetica"
                   x="0 7.337 14.058"
                   y="0"
                   sodipodi:role="line"
                   id="tspan3852">ST2</tspan></text>
<text
                 transform="matrix(1,0,0,-1,195.99,230.22)"
                 id="text3854"><tspan
                   style="fill:#000000;fill-opacity:1;fill-rule:nonzero;stroke:none;font-family:Helvetica;font-variant:normal;font-weight:normal;font-size:11;writing-mode:lr;-inkscape-font-specification:Helvetica"
                   x="0 7.007 14.949"
                   y="0"
                   sodipodi:role="line"
                   id="tspan3856">AC1</tspan></text>
<text
                 transform="scale(1,-1)"
                 id="text3858"
                 x="163.66226"
                 y="-209.05875"><tspan
                   style="font-size:11px;font-variant:normal;font-weight:normal;writing-mode:lr-tb;fill:#000000;fill-opacity:1;fill-rule:nonzero;stroke:none;font-family:Helvetica;-inkscape-font-specification:Helvetica"
                   x="163.66226 170.66927 178.61127"
                   y="-209.05875"
                   sodipodi:role="line"
                   id="tspan3860">AC2</tspan></text>
<text
                 transform="matrix(1,0,0,-1,107.15,218.96)"
                 id="text3862"><tspan
                   style="fill:#000000;fill-opacity:1;fill-rule:nonzero;stroke:none;font-family:Helvetica;font-variant:normal;font-weight:normal;font-size:11;writing-mode:lr;-inkscape-font-specification:Helvetica"
                   x="0 7.337 15.895"
                   y="0"
                   sodipodi:role="line"
                   id="tspan3864">PO1</tspan></text>
<text
                 transform="scale(1,-1)"
                 id="text3866"
                 x="338.42184"
                 y="-268.94864"><tspan
                   style="font-size:11px;font-variant:normal;font-weight:normal;writing-mode:lr-tb;fill:#000000;fill-opacity:1;fill-rule:nonzero;stroke:none;font-family:Helvetica;-inkscape-font-specification:Helvetica"
                   x="338.42184 345.75885 353.09586"
                   y="-268.94864"
                   sodipodi:role="line"
                   id="tspan3868">SE1</tspan></text>
<text
                 transform="scale(1,-1)"
                 id="text3870"
                 x="330.46658"
                 y="-220.58539"><tspan
                   style="font-size:11px;font-variant:normal;font-weight:normal;writing-mode:lr-tb;fill:#000000;fill-opacity:1;fill-rule:nonzero;stroke:none;font-family:Helvetica;-inkscape-font-specification:Helvetica"
                   x="330.46658 338.40857 346.96658"
                   y="-220.58539"
                   sodipodi:role="line"
                   id="tspan3872">CO2</tspan></text>
<text
                 transform="scale(1,-1)"
                 id="text3874"
                 x="305.32864"
                 y="-263.03638"><tspan
                   style="font-size:11px;font-variant:normal;font-weight:normal;writing-mode:lr-tb;fill:#000000;fill-opacity:1;fill-rule:nonzero;stroke:none;font-family:Helvetica;-inkscape-font-specification:Helvetica"
                   x="305.32864 312.04965 319.99164"
                   y="-263.03638"
                   sodipodi:role="line"
                   id="tspan3876">TR1</tspan></text>
<text
                 transform="scale(1,-1)"
                 id="text3878"
                 x="365.66266"
                 y="-272.5141"><tspan
                   style="font-size:9px;font-variant:normal;font-weight:normal;writing-mode:lr-tb;fill:#000000;fill-opacity:1;fill-rule:nonzero;stroke:none;font-family:Helvetica;-inkscape-font-specification:Helvetica"
                   x="365.66266 370.94565 375.94965 379.21664 383.71664 386.21866 393.62564 398.62964 403.12964 408.13364 410.63565 412.63364 414.63165 418.95166 423.95566 426.45764 433.95465"
                   y="-272.5141"
                   sodipodi:role="line"
                   id="tspan3880">Very much like me</tspan></text>
<text
                 transform="matrix(1,0,0,-1,336.78,203.8)"
                 id="text3882"><tspan
                   style="fill:#000000;fill-opacity:1;fill-rule:nonzero;stroke:none;font-family:Helvetica;font-variant:normal;font-weight:normal;font-size:9;writing-mode:lr;-inkscape-font-specification:Helvetica"
                   x="0 5.004 7.002 11.322 16.326 18.828 26.325"
                   y="0"
                   sodipodi:role="line"
                   id="tspan3884">Like me</tspan></text>
<text
                 transform="matrix(1,0,0,-1,279.99,177.35)"
                 id="text3886"><tspan
                   style="fill:#000000;fill-opacity:1;fill-rule:nonzero;stroke:none;font-family:Helvetica;font-variant:normal;font-weight:normal;font-size:9;writing-mode:lr;-inkscape-font-specification:Helvetica"
                   x="0 6.003 11.007 18.504 23.328 29.826 34.83 39.834 42.336 44.838 46.836 48.834 53.154 58.158 60.66 68.157"
                   y="0"
                   sodipodi:role="line"
                   id="tspan3888">Somewhat like me</tspan></text>
<text
                 transform="matrix(1,0,0,-1,198.47,173.04)"
                 id="text3890"><tspan
                   style="fill:#000000;fill-opacity:1;fill-rule:nonzero;stroke:none;font-family:Helvetica;font-variant:normal;font-weight:normal;font-size:9;writing-mode:lr;-inkscape-font-specification:Helvetica"
                   x="0 6.003 8.505 10.503 12.501 15.003 17.505 19.503 24.507 27.009 29.007 31.005 35.325 40.329 42.831 50.328"
                   y="0"
                   sodipodi:role="line"
                   id="tspan3892">A little like me</tspan></text>
<text
                 transform="matrix(1,0,0,-1,177.72,197.33)"
                 id="text3894"><tspan
                   style="fill:#000000;fill-opacity:1;fill-rule:nonzero;stroke:none;font-family:Helvetica;font-variant:normal;font-weight:normal;font-size:9;writing-mode:lr;-inkscape-font-specification:Helvetica"
                   x="0 6.498 11.502 14.004 16.506 18.504 20.502 24.822 29.826 32.328 39.825"
                   y="0"
                   sodipodi:role="line"
                   id="tspan3896">Not like me</tspan></text>
<text
                 transform="matrix(1,0,0,-1,152.79,254.85)"
                 id="text3898"><tspan
                   style="fill:#000000;fill-opacity:1;fill-rule:nonzero;stroke:none;font-family:Helvetica;font-variant:normal;font-weight:normal;font-size:9;writing-mode:lr;-inkscape-font-specification:Helvetica"
                   x="0 6.498 11.502 14.004 16.506 18.504 20.502 24.822 29.826 32.328 39.825 44.829 47.331 52.335 54.837 57.339 62.343 64.341"
                   y="0"
                   sodipodi:role="line"
                   id="tspan3900">Not like me at all</tspan></text>
<text
                 transform="matrix(1,0,0,-1,229.71,321.06)"
                 id="text3902"><tspan
                   style="fill:#000000;fill-opacity:1;fill-rule:nonzero;stroke:none;font-family:Helvetica;font-variant:normal;font-weight:normal;font-size:9;writing-mode:lr;-inkscape-font-specification:Helvetica"
                   x="0 6.498 11.502 14.004 19.008 24.012 28.512 34.92 39.924"
                   y="0"
                   sodipodi:role="line"
                   id="tspan3904">No answer</tspan></text>
<path
                 d="m 41.5,131.04 412.1,0 0,211.54 -412.1,0 0,-211.54 z"
                 style="fill:none;stroke:#7f7f7f;stroke-opacity:1;stroke-width:1.06;stroke-linecap:round;stroke-linejoin:round;stroke-miterlimit:10;stroke-dasharray:none"
                 id="path3906" /><path
                 d="m 187.91,211.96 6.59,0 0,6.59 -6.59,0 0,-6.59 z"
                 style="fill:#f8766d;fill-opacity:1;fill-rule:nonzero;stroke:#000000;stroke-opacity:1;stroke-width:0.75;stroke-linecap:round;stroke-linejoin:round;stroke-miterlimit:10;stroke-dasharray:none"
                 id="path3816" /><path
                 d="m 188.13,215.27 c 0,2.05 1.68,3.73 3.72,3.73 2.05,0 3.72,-1.68 3.72,-3.73 0,-2.04 -1.67,-3.72 -3.72,-3.72 -2.04,0 -3.72,1.68 -3.72,3.72"
                 style="fill:#9590ff;fill-opacity:1;fill-rule:nonzero;stroke:#000000;stroke-opacity:1;stroke-width:0.75;stroke-linecap:round;stroke-linejoin:round;stroke-miterlimit:10;stroke-dasharray:none"
                 id="path3806" /></g></g><g
             id="g3908" /><g
             id="g3910" /><g
             id="g3912"><text
               transform="matrix(1,0,0,-1,23.02,172.41)"
               id="text3914"><tspan
                 style="fill:#000000;fill-opacity:1;fill-rule:nonzero;stroke:none;font-family:Helvetica;font-variant:normal;font-weight:normal;font-size:10;writing-mode:lr;-inkscape-font-specification:Helvetica"
                 x="0 5.84"
                 y="0"
                 sodipodi:role="line"
                 id="tspan3916">−1</tspan></text>
<text
               transform="matrix(1,0,0,-1,28.86,228.89)"
               id="text3918"><tspan
                 style="fill:#000000;fill-opacity:1;fill-rule:nonzero;stroke:none;font-family:Helvetica;font-variant:normal;font-weight:normal;font-size:10;writing-mode:lr;-inkscape-font-specification:Helvetica"
                 x="0"
                 y="0"
                 id="tspan3920">0</tspan></text>
<text
               transform="matrix(1,0,0,-1,28.86,285.38)"
               id="text3922"><tspan
                 style="fill:#000000;fill-opacity:1;fill-rule:nonzero;stroke:none;font-family:Helvetica;font-variant:normal;font-weight:normal;font-size:10;writing-mode:lr;-inkscape-font-specification:Helvetica"
                 x="0"
                 y="0"
                 id="tspan3924">1</tspan></text>
</g><g
             id="g3926" /><g
             id="g3928"><path
               d="m 37.25,176 4.25,0"
               style="fill:none;stroke:#000000;stroke-opacity:1;stroke-width:1.06;stroke-linecap:butt;stroke-linejoin:round;stroke-miterlimit:10;stroke-dasharray:none"
               id="path3930" /><path
               d="m 37.25,232.48 4.25,0"
               style="fill:none;stroke:#000000;stroke-opacity:1;stroke-width:1.06;stroke-linecap:butt;stroke-linejoin:round;stroke-miterlimit:10;stroke-dasharray:none"
               id="path3932" /><path
               d="m 37.25,288.97 4.25,0"
               style="fill:none;stroke:#000000;stroke-opacity:1;stroke-width:1.06;stroke-linecap:butt;stroke-linejoin:round;stroke-miterlimit:10;stroke-dasharray:none"
               id="path3934" /></g><g
             id="g3936" /><g
             id="g3938" /><g
             id="g3940" /><g
             id="g3942" /><g
             id="g3944" /><g
             id="g3946"><path
               d="m 47.48,126.79 0,4.25"
               style="fill:none;stroke:#000000;stroke-opacity:1;stroke-width:1.06;stroke-linecap:butt;stroke-linejoin:round;stroke-miterlimit:10;stroke-dasharray:none"
               id="path3948" /><path
               d="m 160.45,126.79 0,4.25"
               style="fill:none;stroke:#000000;stroke-opacity:1;stroke-width:1.06;stroke-linecap:butt;stroke-linejoin:round;stroke-miterlimit:10;stroke-dasharray:none"
               id="path3950" /><path
               d="m 273.42,126.79 0,4.25"
               style="fill:none;stroke:#000000;stroke-opacity:1;stroke-width:1.06;stroke-linecap:butt;stroke-linejoin:round;stroke-miterlimit:10;stroke-dasharray:none"
               id="path3952" /><path
               d="m 386.38,126.79 0,4.25"
               style="fill:none;stroke:#000000;stroke-opacity:1;stroke-width:1.06;stroke-linecap:butt;stroke-linejoin:round;stroke-miterlimit:10;stroke-dasharray:none"
               id="path3954" /></g><g
             id="g3956" /><g
             id="g3958"><text
               transform="matrix(1,0,0,-1,41.78,116.78)"
               id="text3960"><tspan
                 style="fill:#000000;fill-opacity:1;fill-rule:nonzero;stroke:none;font-family:Helvetica;font-variant:normal;font-weight:normal;font-size:10;writing-mode:lr;-inkscape-font-specification:Helvetica"
                 x="0 5.84"
                 y="0"
                 sodipodi:role="line"
                 id="tspan3962">−4</tspan></text>
<text
               transform="matrix(1,0,0,-1,154.75,116.78)"
               id="text3964"><tspan
                 style="fill:#000000;fill-opacity:1;fill-rule:nonzero;stroke:none;font-family:Helvetica;font-variant:normal;font-weight:normal;font-size:10;writing-mode:lr;-inkscape-font-specification:Helvetica"
                 x="0 5.84"
                 y="0"
                 sodipodi:role="line"
                 id="tspan3966">−2</tspan></text>
<text
               transform="matrix(1,0,0,-1,270.64,116.78)"
               id="text3968"><tspan
                 style="fill:#000000;fill-opacity:1;fill-rule:nonzero;stroke:none;font-family:Helvetica;font-variant:normal;font-weight:normal;font-size:10;writing-mode:lr;-inkscape-font-specification:Helvetica"
                 x="0"
                 y="0"
                 id="tspan3970">0</tspan></text>
<text
               transform="matrix(1,0,0,-1,383.6,116.78)"
               id="text3972"><tspan
                 style="fill:#000000;fill-opacity:1;fill-rule:nonzero;stroke:none;font-family:Helvetica;font-variant:normal;font-weight:normal;font-size:10;writing-mode:lr;-inkscape-font-specification:Helvetica"
                 x="0"
                 y="0"
                 id="tspan3974">2</tspan></text>
</g><g
             id="g3976" /><g
             id="g3978" /><g
             id="g3980" /><g
             id="g3982" /><g
             id="g3984"><text
               transform="matrix(1,0,0,-1,230.22,104.56)"
               id="text3986"><tspan
                 style="fill:#000000;fill-opacity:1;fill-rule:nonzero;stroke:none;font-family:Helvetica;font-variant:normal;font-weight:normal;font-size:12;writing-mode:lr;-inkscape-font-specification:Helvetica"
                 x="0 8.664 11.328 21.324 24.66 27.996"
                 y="0"
                 sodipodi:role="line"
                 id="tspan3988">Dim. 1</tspan></text>
</g><g
             id="g3990" /><g
             id="g3992"><text
               transform="matrix(0,1,1,0,19.42,219.48)"
               id="text3994"><tspan
                 style="fill:#000000;fill-opacity:1;fill-rule:nonzero;stroke:none;font-family:Helvetica;font-variant:normal;font-weight:normal;font-size:12;writing-mode:lr;-inkscape-font-specification:Helvetica"
                 x="0 8.664 11.328 21.324 24.66 27.996"
                 y="0"
                 sodipodi:role="line"
                 id="tspan3996">Dim. 2</tspan></text>
</g><g
             id="g3998" /><g
             id="g4000"><text
               transform="matrix(1,0,0,-1,171.05,346.19)"
               id="text4002"><tspan
                 style="fill:#000000;fill-opacity:1;fill-rule:nonzero;stroke:none;font-family:Helvetica;font-variant:normal;font-weight:normal;font-size:14;writing-mode:lr;-inkscape-font-specification:Helvetica"
                 x="0 7.784 11.676 15.568 22.442 26.964 34.748 42.532 45.64 49.532 52.64 60.424 68.208 75.992 79.1 82.208 89.208 93.1 100.1 103.992 108.654 116.438 124.222 128.114 135.898 148.344"
                 y="0"
                 sodipodi:role="line"
                 id="tspan4004">3: Traditionalists (14.5%)</tspan></text>
</g><g
             id="g4006" /><g
             id="g4008" /></g></g></g></g></svg>