<?xml version="1.0" encoding="UTF-8" standalone="no"?>
<!-- Created with Inkscape (http://www.inkscape.org/) -->

<svg
   xmlns:dc="http://purl.org/dc/elements/1.1/"
   xmlns:cc="http://creativecommons.org/ns#"
   xmlns:rdf="http://www.w3.org/1999/02/22-rdf-syntax-ns#"
   xmlns:svg="http://www.w3.org/2000/svg"
   xmlns="http://www.w3.org/2000/svg"
   xmlns:sodipodi="http://sodipodi.sourceforge.net/DTD/sodipodi-0.dtd"
   xmlns:inkscape="http://www.inkscape.org/namespaces/inkscape"
   id="svg4416"
   version="1.1"
   inkscape:version="0.48.4 r9939"
   width="558.75"
   height="320"
   xml:space="preserve"
   sodipodi:docname="New document 19"><metadata
     id="metadata4422"><rdf:RDF><cc:Work
         rdf:about=""><dc:format>image/svg+xml</dc:format><dc:type
           rdf:resource="http://purl.org/dc/dcmitype/StillImage" /><dc:title></dc:title></cc:Work></rdf:RDF></metadata><defs
     id="defs4420"><clipPath
       clipPathUnits="userSpaceOnUse"
       id="clipPath4432"><path
         d="M 0,0 468,0 468,468 0,468 0,0 z"
         id="path4434" /></clipPath><clipPath
       clipPathUnits="userSpaceOnUse"
       id="clipPath4444"><path
         d="m 0,93.76 468,0 0,280.48 -468,0 0,-280.48 z"
         id="path4446" /></clipPath><clipPath
       clipPathUnits="userSpaceOnUse"
       id="clipPath4460"><path
         d="m 41.5,131.04 412.1,0 0,211.54 -412.1,0 0,-211.54 z"
         id="path4462" /></clipPath></defs><sodipodi:namedview
     pagecolor="#ffffff"
     bordercolor="#666666"
     borderopacity="1"
     objecttolerance="10"
     gridtolerance="10"
     guidetolerance="10"
     inkscape:pageopacity="0"
     inkscape:pageshadow="2"
     inkscape:window-width="1873"
     inkscape:window-height="1056"
     id="namedview4418"
     showgrid="false"
     inkscape:zoom="1.7767837"
     inkscape:cx="445.0482"
     inkscape:cy="275.68594"
     inkscape:window-x="1967"
     inkscape:window-y="24"
     inkscape:window-maximized="1"
     inkscape:current-layer="g4424" /><g
     id="g4424"
     inkscape:groupmode="layer"
     inkscape:label="Paper-biplots-5"
     transform="matrix(1.25,0,0,-1.25,0,320)"><g
       id="g4426"
       transform="translate(-7,-101)"><g
         id="g4428"><g
           id="g4430"
           clip-path="url(#clipPath4432)"><g
             id="g4436" /><g
             id="g4438" /><g
             id="g4440"><g
               id="g4442"
               clip-path="url(#clipPath4444)"><path
                 d="m 0,93.76 468,0 0,280.48 -468,0 0,-280.48 z"
                 style="fill:#ffffff;fill-opacity:1;fill-rule:nonzero;stroke:#ffffff;stroke-opacity:1;stroke-width:1.06;stroke-linecap:round;stroke-linejoin:round;stroke-miterlimit:10;stroke-dasharray:none"
                 id="path4448" /></g></g><g
             id="g4450" /><g
             id="g4452" /><g
             id="g4454" /><g
             id="g4456"><g
               id="g4458"
               clip-path="url(#clipPath4460)"><path
                 d="m 41.5,131.04 412.1,0 0,211.54 -412.1,0 0,-211.54 z"
                 style="fill:#ffffff;fill-opacity:1;fill-rule:nonzero;stroke:none"
                 id="path4464" /><path
                 d="m 273.42,232.48 95.7,35.15"
                 style="fill:none;stroke:#000000;stroke-opacity:1;stroke-width:1.06;stroke-linecap:butt;stroke-linejoin:round;stroke-miterlimit:10;stroke-dasharray:none"
                 id="path4466" /><path
                 d="m 366.39,264.37 2.73,3.26 -4.19,0.73"
                 style="fill:none;stroke:#000000;stroke-opacity:1;stroke-width:1.06;stroke-linecap:butt;stroke-linejoin:round;stroke-miterlimit:10;stroke-dasharray:none"
                 id="path4468" /><path
                 d="m 273.42,232.48 69.62,-18.99"
                 style="fill:none;stroke:#000000;stroke-opacity:1;stroke-width:1.06;stroke-linecap:butt;stroke-linejoin:round;stroke-miterlimit:10;stroke-dasharray:none"
                 id="path4470" /><path
                 d="m 338.93,212.41 4.11,1.08 -2.99,3.02"
                 style="fill:none;stroke:#000000;stroke-opacity:1;stroke-width:1.06;stroke-linecap:butt;stroke-linejoin:round;stroke-miterlimit:10;stroke-dasharray:none"
                 id="path4472" /><path
                 d="m 273.42,232.48 24.86,-45.44"
                 style="fill:none;stroke:#000000;stroke-opacity:1;stroke-width:1.06;stroke-linecap:butt;stroke-linejoin:round;stroke-miterlimit:10;stroke-dasharray:none"
                 id="path4474" /><path
                 d="m 294.65,189.25 3.63,-2.21 0.1,4.25"
                 style="fill:none;stroke:#000000;stroke-opacity:1;stroke-width:1.06;stroke-linecap:butt;stroke-linejoin:round;stroke-miterlimit:10;stroke-dasharray:none"
                 id="path4476" /><path
                 d="M 273.42,232.48 248.27,182.74"
                 style="fill:none;stroke:#000000;stroke-opacity:1;stroke-width:1.06;stroke-linecap:butt;stroke-linejoin:round;stroke-miterlimit:10;stroke-dasharray:none"
                 id="path4478" /><path
                 d="m 248.03,186.98 0.24,-4.24 3.55,2.32"
                 style="fill:none;stroke:#000000;stroke-opacity:1;stroke-width:1.06;stroke-linecap:butt;stroke-linejoin:round;stroke-miterlimit:10;stroke-dasharray:none"
                 id="path4480" /><path
                 d="M 273.42,232.48 218.06,207.02"
                 style="fill:none;stroke:#000000;stroke-opacity:1;stroke-width:1.06;stroke-linecap:butt;stroke-linejoin:round;stroke-miterlimit:10;stroke-dasharray:none"
                 id="path4482" /><path
                 d="m 220.52,210.49 -2.46,-3.47 4.24,-0.39"
                 style="fill:none;stroke:#000000;stroke-opacity:1;stroke-width:1.06;stroke-linecap:butt;stroke-linejoin:round;stroke-miterlimit:10;stroke-dasharray:none"
                 id="path4484" /><path
                 d="m 273.42,232.48 -87.46,19.14"
                 style="fill:none;stroke:#000000;stroke-opacity:1;stroke-width:1.06;stroke-linecap:butt;stroke-linejoin:round;stroke-miterlimit:10;stroke-dasharray:none"
                 id="path4486" /><path
                 d="m 190.02,252.91 -4.06,-1.29 3.15,-2.86"
                 style="fill:none;stroke:#000000;stroke-opacity:1;stroke-width:1.06;stroke-linecap:butt;stroke-linejoin:round;stroke-miterlimit:10;stroke-dasharray:none"
                 id="path4488" /><path
                 d="m 273.42,232.48 -22.25,85.35"
                 style="fill:none;stroke:#000000;stroke-opacity:1;stroke-width:1.06;stroke-linecap:butt;stroke-linejoin:round;stroke-miterlimit:10;stroke-dasharray:none"
                 id="path4490" /><path
                 d="m 254.16,314.81 -2.99,3.02 -1.12,-4.1"
                 style="fill:none;stroke:#000000;stroke-opacity:1;stroke-width:1.06;stroke-linecap:butt;stroke-linejoin:round;stroke-miterlimit:10;stroke-dasharray:none"
                 id="path4492" /><path
                 d="m 289.52,237.77 c 0,2.05 1.67,3.72 3.72,3.72 2.04,0 3.72,-1.67 3.72,-3.72 0,-2.04 -1.68,-3.72 -3.72,-3.72 -2.05,0 -3.72,1.68 -3.72,3.72"
                 style="fill:#d89000;fill-opacity:1;fill-rule:nonzero;stroke:#000000;stroke-opacity:1;stroke-width:0.75;stroke-linecap:round;stroke-linejoin:round;stroke-miterlimit:10;stroke-dasharray:none"
                 id="path4494" /><path
                 d="m 297.75,235.49 6.59,0 0,6.59 -6.59,0 0,-6.59 z"
                 style="fill:#d89000;fill-opacity:1;fill-rule:nonzero;stroke:#000000;stroke-opacity:1;stroke-width:0.75;stroke-linecap:round;stroke-linejoin:round;stroke-miterlimit:10;stroke-dasharray:none"
                 id="path4496" /><path
                 d="m 283.26,254.74 c 0,2.05 1.67,3.72 3.72,3.72 2.05,0 3.72,-1.67 3.72,-3.72 0,-2.05 -1.67,-3.72 -3.72,-3.72 -2.05,0 -3.72,1.67 -3.72,3.72"
                 style="fill:#ff62bc;fill-opacity:1;fill-rule:nonzero;stroke:#000000;stroke-opacity:1;stroke-width:0.75;stroke-linecap:round;stroke-linejoin:round;stroke-miterlimit:10;stroke-dasharray:none"
                 id="path4498" /><path
                 d="m 278.35,229.52 6.59,0 0,6.59 -6.59,0 0,-6.59 z"
                 style="fill:#ff62bc;fill-opacity:1;fill-rule:nonzero;stroke:#000000;stroke-opacity:1;stroke-width:0.75;stroke-linecap:round;stroke-linejoin:round;stroke-miterlimit:10;stroke-dasharray:none"
                 id="path4500" /><path
                 d="m 294.32,228.82 4.66,4.66 -4.66,4.67 -4.67,-4.67 4.67,-4.66 z"
                 style="fill:#ff62bc;fill-opacity:1;fill-rule:nonzero;stroke:#000000;stroke-opacity:1;stroke-width:0.75;stroke-linecap:round;stroke-linejoin:round;stroke-miterlimit:10;stroke-dasharray:none"
                 id="path4502" /><path
                 d="m 293.13,258.41 c 0,2.05 1.68,3.72 3.72,3.72 2.05,0 3.72,-1.67 3.72,-3.72 0,-2.04 -1.67,-3.72 -3.72,-3.72 -2.04,0 -3.72,1.68 -3.72,3.72"
                 style="fill:#00bfc4;fill-opacity:1;fill-rule:nonzero;stroke:#000000;stroke-opacity:1;stroke-width:0.75;stroke-linecap:round;stroke-linejoin:round;stroke-miterlimit:10;stroke-dasharray:none"
                 id="path4504" /><path
                 d="m 279.75,238.98 6.59,0 0,6.59 -6.59,0 0,-6.59 z"
                 style="fill:#00bfc4;fill-opacity:1;fill-rule:nonzero;stroke:#000000;stroke-opacity:1;stroke-width:0.75;stroke-linecap:round;stroke-linejoin:round;stroke-miterlimit:10;stroke-dasharray:none"
                 id="path4506" /><path
                 d="m 267,231.32 c 0,2.05 1.68,3.72 3.72,3.72 2.05,0 3.73,-1.67 3.73,-3.72 0,-2.04 -1.68,-3.72 -3.73,-3.72 -2.04,0 -3.72,1.68 -3.72,3.72"
                 style="fill:#9590ff;fill-opacity:1;fill-rule:nonzero;stroke:#000000;stroke-opacity:1;stroke-width:0.75;stroke-linecap:round;stroke-linejoin:round;stroke-miterlimit:10;stroke-dasharray:none"
                 id="path4508" /><path
                 d="m 226.76,225.94 6.59,0 0,6.59 -6.59,0 0,-6.59 z"
                 style="fill:#9590ff;fill-opacity:1;fill-rule:nonzero;stroke:#000000;stroke-opacity:1;stroke-width:0.75;stroke-linecap:round;stroke-linejoin:round;stroke-miterlimit:10;stroke-dasharray:none"
                 id="path4510" /><path
                 d="m 264.88,228.24 c 0,2.05 1.67,3.72 3.72,3.72 2.04,0 3.72,-1.67 3.72,-3.72 0,-2.05 -1.68,-3.72 -3.72,-3.72 -2.05,0 -3.72,1.67 -3.72,3.72"
                 style="fill:#39b600;fill-opacity:1;fill-rule:nonzero;stroke:#000000;stroke-opacity:1;stroke-width:0.75;stroke-linecap:round;stroke-linejoin:round;stroke-miterlimit:10;stroke-dasharray:none"
                 id="path4512" /><path
                 d="m 298.74,223.09 6.59,0 0,6.59 -6.59,0 0,-6.59 z"
                 style="fill:#39b600;fill-opacity:1;fill-rule:nonzero;stroke:#000000;stroke-opacity:1;stroke-width:0.75;stroke-linecap:round;stroke-linejoin:round;stroke-miterlimit:10;stroke-dasharray:none"
                 id="path4514" /><path
                 d="m 248.78,228.09 c 0,2.04 1.67,3.72 3.72,3.72 2.04,0 3.72,-1.68 3.72,-3.72 0,-2.05 -1.68,-3.72 -3.72,-3.72 -2.05,0 -3.72,1.67 -3.72,3.72"
                 style="fill:#f8766d;fill-opacity:1;fill-rule:nonzero;stroke:#000000;stroke-opacity:1;stroke-width:0.75;stroke-linecap:round;stroke-linejoin:round;stroke-miterlimit:10;stroke-dasharray:none"
                 id="path4516" /><path
                 d="m 255.83,206.95 6.59,0 0,6.59 -6.59,0 0,-6.59 z"
                 style="fill:#f8766d;fill-opacity:1;fill-rule:nonzero;stroke:#000000;stroke-opacity:1;stroke-width:0.75;stroke-linecap:round;stroke-linejoin:round;stroke-miterlimit:10;stroke-dasharray:none"
                 id="path4518" /><path
                 d="m 213.84,222.46 c 0,2.05 1.68,3.72 3.72,3.72 2.05,0 3.72,-1.67 3.72,-3.72 0,-2.05 -1.67,-3.72 -3.72,-3.72 -2.04,0 -3.72,1.67 -3.72,3.72"
                 style="fill:#00bf7d;fill-opacity:1;fill-rule:nonzero;stroke:#000000;stroke-opacity:1;stroke-width:0.75;stroke-linecap:round;stroke-linejoin:round;stroke-miterlimit:10;stroke-dasharray:none"
                 id="path4520" /><path
                 d="m 241.51,217.52 6.59,0 0,6.59 -6.59,0 0,-6.59 z"
                 style="fill:#00bf7d;fill-opacity:1;fill-rule:nonzero;stroke:#000000;stroke-opacity:1;stroke-width:0.75;stroke-linecap:round;stroke-linejoin:round;stroke-miterlimit:10;stroke-dasharray:none"
                 id="path4522" /><path
                 d="m 278.95,246.83 c 0,2.04 1.68,3.72 3.73,3.72 2.04,0 3.72,-1.68 3.72,-3.72 0,-2.05 -1.68,-3.72 -3.72,-3.72 -2.05,0 -3.73,1.67 -3.73,3.72"
                 style="fill:#00b0f6;fill-opacity:1;fill-rule:nonzero;stroke:#000000;stroke-opacity:1;stroke-width:0.75;stroke-linecap:round;stroke-linejoin:round;stroke-miterlimit:10;stroke-dasharray:none"
                 id="path4524" /><path
                 d="m 284.55,220.19 6.59,0 0,6.59 -6.59,0 0,-6.59 z"
                 style="fill:#00b0f6;fill-opacity:1;fill-rule:nonzero;stroke:#000000;stroke-opacity:1;stroke-width:0.75;stroke-linecap:round;stroke-linejoin:round;stroke-miterlimit:10;stroke-dasharray:none"
                 id="path4526" /><path
                 d="m 264.25,227.57 c 0,2.05 1.67,3.73 3.72,3.73 2.04,0 3.72,-1.68 3.72,-3.73 0,-2.04 -1.68,-3.72 -3.72,-3.72 -2.05,0 -3.72,1.68 -3.72,3.72"
                 style="fill:#a3a500;fill-opacity:1;fill-rule:nonzero;stroke:#000000;stroke-opacity:1;stroke-width:0.75;stroke-linecap:round;stroke-linejoin:round;stroke-miterlimit:10;stroke-dasharray:none"
                 id="path4528" /><path
                 d="m 276.54,225.07 6.59,0 0,6.59 -6.59,0 0,-6.59 z"
                 style="fill:#a3a500;fill-opacity:1;fill-rule:nonzero;stroke:#000000;stroke-opacity:1;stroke-width:0.75;stroke-linecap:round;stroke-linejoin:round;stroke-miterlimit:10;stroke-dasharray:none"
                 id="path4530" /><path
                 d="m 276.48,234.06 c 0,2.04 1.68,3.72 3.72,3.72 2.05,0 3.72,-1.68 3.72,-3.72 0,-2.05 -1.67,-3.72 -3.72,-3.72 -2.04,0 -3.72,1.67 -3.72,3.72"
                 style="fill:#e76bf3;fill-opacity:1;fill-rule:nonzero;stroke:#000000;stroke-opacity:1;stroke-width:0.75;stroke-linecap:round;stroke-linejoin:round;stroke-miterlimit:10;stroke-dasharray:none"
                 id="path4532" /><path
                 d="m 257.37,223.44 6.59,0 0,6.59 -6.59,0 0,-6.59 z"
                 style="fill:#e76bf3;fill-opacity:1;fill-rule:nonzero;stroke:#000000;stroke-opacity:1;stroke-width:0.75;stroke-linecap:round;stroke-linejoin:round;stroke-miterlimit:10;stroke-dasharray:none"
                 id="path4534" /><text
                 transform="matrix(1,0,0,-1,308.32,234.84)"
                 id="text4536"><tspan
                   style="fill:#000000;fill-opacity:1;fill-rule:nonzero;stroke:none;font-family:Helvetica;font-variant:normal;font-weight:normal;font-size:11;writing-mode:lr;-inkscape-font-specification:Helvetica"
                   x="0 7.337 14.674"
                   y="0"
                   sodipodi:role="line"
                   id="tspan4538">BE2</tspan></text>
<text
                 transform="scale(1,-1)"
                 id="text4540"
                 x="302.42975"
                 y="-259.55402"><tspan
                   style="font-size:11px;font-variant:normal;font-weight:normal;writing-mode:lr-tb;fill:#000000;fill-opacity:1;fill-rule:nonzero;stroke:none;font-family:Helvetica;-inkscape-font-specification:Helvetica"
                   x="302.42975 309.76675 317.70874"
                   y="-259.55402"
                   sodipodi:role="line"
                   id="tspan4542">SD1</tspan></text>
<text
                 transform="scale(1,-1)"
                 id="text4544"
                 x="203.53581"
                 y="-233.25108"><tspan
                   style="font-size:11px;font-variant:normal;font-weight:normal;writing-mode:lr-tb;fill:#000000;fill-opacity:1;fill-rule:nonzero;stroke:none;font-family:Helvetica;-inkscape-font-specification:Helvetica"
                   x="203.53581 210.87282 217.59381"
                   y="-233.25108"
                   sodipodi:role="line"
                   id="tspan4546">ST2</tspan></text>
<text
                 transform="scale(1,-1)"
                 id="text4548"
                 x="296.75238"
                 y="-210.11244"><tspan
                   style="font-size:11px;font-variant:normal;font-weight:normal;writing-mode:lr-tb;fill:#000000;fill-opacity:1;fill-rule:nonzero;stroke:none;font-family:Helvetica;-inkscape-font-specification:Helvetica"
                   x="296.75238 304.6944 312.0314"
                   y="-210.11244"
                   sodipodi:role="line"
                   id="tspan4550">HE2</tspan></text>
<text
                 transform="scale(1,-1)"
                 id="text4552"
                 x="191.13887"
                 y="-216.56554"><tspan
                   style="font-size:11px;font-variant:normal;font-weight:normal;writing-mode:lr-tb;fill:#000000;fill-opacity:1;fill-rule:nonzero;stroke:none;font-family:Helvetica;-inkscape-font-specification:Helvetica"
                   x="191.13887 198.47588 207.03387"
                   y="-216.56554"
                   sodipodi:role="line"
                   id="tspan4554">PO1</tspan></text>
<text
                 transform="matrix(1,0,0,-1,325.14,274.09)"
                 id="text4560"><tspan
                   style="fill:#000000;fill-opacity:1;fill-rule:nonzero;stroke:none;font-family:Helvetica;font-variant:normal;font-weight:normal;font-size:9;writing-mode:lr;-inkscape-font-specification:Helvetica"
                   x="0 5.283 10.287 13.554 18.054 20.556 27.963 32.967 37.467 42.471 44.973 46.971 48.969 53.289 58.293 60.795 68.292"
                   y="0"
                   sodipodi:role="line"
                   id="tspan4562">Very much like me</tspan></text>
<text
                 transform="matrix(1,0,0,-1,336.78,203.8)"
                 id="text4564"><tspan
                   style="fill:#000000;fill-opacity:1;fill-rule:nonzero;stroke:none;font-family:Helvetica;font-variant:normal;font-weight:normal;font-size:9;writing-mode:lr;-inkscape-font-specification:Helvetica"
                   x="0 5.004 7.002 11.322 16.326 18.828 26.325"
                   y="0"
                   sodipodi:role="line"
                   id="tspan4566">Like me</tspan></text>
<text
                 transform="matrix(1,0,0,-1,279.99,177.35)"
                 id="text4568"><tspan
                   style="fill:#000000;fill-opacity:1;fill-rule:nonzero;stroke:none;font-family:Helvetica;font-variant:normal;font-weight:normal;font-size:9;writing-mode:lr;-inkscape-font-specification:Helvetica"
                   x="0 6.003 11.007 18.504 23.328 29.826 34.83 39.834 42.336 44.838 46.836 48.834 53.154 58.158 60.66 68.157"
                   y="0"
                   sodipodi:role="line"
                   id="tspan4570">Somewhat like me</tspan></text>
<text
                 transform="matrix(1,0,0,-1,198.47,173.04)"
                 id="text4572"><tspan
                   style="fill:#000000;fill-opacity:1;fill-rule:nonzero;stroke:none;font-family:Helvetica;font-variant:normal;font-weight:normal;font-size:9;writing-mode:lr;-inkscape-font-specification:Helvetica"
                   x="0 6.003 8.505 10.503 12.501 15.003 17.505 19.503 24.507 27.009 29.007 31.005 35.325 40.329 42.831 50.328"
                   y="0"
                   sodipodi:role="line"
                   id="tspan4574">A little like me</tspan></text>
<text
                 transform="matrix(1,0,0,-1,177.72,197.33)"
                 id="text4576"><tspan
                   style="fill:#000000;fill-opacity:1;fill-rule:nonzero;stroke:none;font-family:Helvetica;font-variant:normal;font-weight:normal;font-size:9;writing-mode:lr;-inkscape-font-specification:Helvetica"
                   x="0 6.498 11.502 14.004 16.506 18.504 20.502 24.822 29.826 32.328 39.825"
                   y="0"
                   sodipodi:role="line"
                   id="tspan4578">Not like me</tspan></text>
<text
                 transform="matrix(1,0,0,-1,152.79,254.85)"
                 id="text4580"><tspan
                   style="fill:#000000;fill-opacity:1;fill-rule:nonzero;stroke:none;font-family:Helvetica;font-variant:normal;font-weight:normal;font-size:9;writing-mode:lr;-inkscape-font-specification:Helvetica"
                   x="0 6.498 11.502 14.004 16.506 18.504 20.502 24.822 29.826 32.328 39.825 44.829 47.331 52.335 54.837 57.339 62.343 64.341"
                   y="0"
                   sodipodi:role="line"
                   id="tspan4582">Not like me at all</tspan></text>
<text
                 transform="matrix(1,0,0,-1,229.71,321.06)"
                 id="text4584"><tspan
                   style="fill:#000000;fill-opacity:1;fill-rule:nonzero;stroke:none;font-family:Helvetica;font-variant:normal;font-weight:normal;font-size:9;writing-mode:lr;-inkscape-font-specification:Helvetica"
                   x="0 6.498 11.502 14.004 19.008 24.012 28.512 34.92 39.924"
                   y="0"
                   sodipodi:role="line"
                   id="tspan4586">No answer</tspan></text>
<path
                 d="m 41.5,131.04 412.1,0 0,211.54 -412.1,0 0,-211.54 z"
                 style="fill:none;stroke:#7f7f7f;stroke-opacity:1;stroke-width:1.06;stroke-linecap:round;stroke-linejoin:round;stroke-miterlimit:10;stroke-dasharray:none"
                 id="path4588" /></g></g><g
             id="g4590" /><g
             id="g4592" /><g
             id="g4594"><text
               transform="matrix(1,0,0,-1,23.02,172.41)"
               id="text4596"><tspan
                 style="fill:#000000;fill-opacity:1;fill-rule:nonzero;stroke:none;font-family:Helvetica;font-variant:normal;font-weight:normal;font-size:10;writing-mode:lr;-inkscape-font-specification:Helvetica"
                 x="0 5.84"
                 y="0"
                 sodipodi:role="line"
                 id="tspan4598">−1</tspan></text>
<text
               transform="matrix(1,0,0,-1,28.86,228.89)"
               id="text4600"><tspan
                 style="fill:#000000;fill-opacity:1;fill-rule:nonzero;stroke:none;font-family:Helvetica;font-variant:normal;font-weight:normal;font-size:10;writing-mode:lr;-inkscape-font-specification:Helvetica"
                 x="0"
                 y="0"
                 id="tspan4602">0</tspan></text>
<text
               transform="matrix(1,0,0,-1,28.86,285.38)"
               id="text4604"><tspan
                 style="fill:#000000;fill-opacity:1;fill-rule:nonzero;stroke:none;font-family:Helvetica;font-variant:normal;font-weight:normal;font-size:10;writing-mode:lr;-inkscape-font-specification:Helvetica"
                 x="0"
                 y="0"
                 id="tspan4606">1</tspan></text>
</g><g
             id="g4608" /><g
             id="g4610"><path
               d="m 37.25,176 4.25,0"
               style="fill:none;stroke:#000000;stroke-opacity:1;stroke-width:1.06;stroke-linecap:butt;stroke-linejoin:round;stroke-miterlimit:10;stroke-dasharray:none"
               id="path4612" /><path
               d="m 37.25,232.48 4.25,0"
               style="fill:none;stroke:#000000;stroke-opacity:1;stroke-width:1.06;stroke-linecap:butt;stroke-linejoin:round;stroke-miterlimit:10;stroke-dasharray:none"
               id="path4614" /><path
               d="m 37.25,288.97 4.25,0"
               style="fill:none;stroke:#000000;stroke-opacity:1;stroke-width:1.06;stroke-linecap:butt;stroke-linejoin:round;stroke-miterlimit:10;stroke-dasharray:none"
               id="path4616" /></g><g
             id="g4618" /><g
             id="g4620" /><g
             id="g4622" /><g
             id="g4624" /><g
             id="g4626" /><g
             id="g4628"><path
               d="m 47.48,126.79 0,4.25"
               style="fill:none;stroke:#000000;stroke-opacity:1;stroke-width:1.06;stroke-linecap:butt;stroke-linejoin:round;stroke-miterlimit:10;stroke-dasharray:none"
               id="path4630" /><path
               d="m 160.45,126.79 0,4.25"
               style="fill:none;stroke:#000000;stroke-opacity:1;stroke-width:1.06;stroke-linecap:butt;stroke-linejoin:round;stroke-miterlimit:10;stroke-dasharray:none"
               id="path4632" /><path
               d="m 273.42,126.79 0,4.25"
               style="fill:none;stroke:#000000;stroke-opacity:1;stroke-width:1.06;stroke-linecap:butt;stroke-linejoin:round;stroke-miterlimit:10;stroke-dasharray:none"
               id="path4634" /><path
               d="m 386.38,126.79 0,4.25"
               style="fill:none;stroke:#000000;stroke-opacity:1;stroke-width:1.06;stroke-linecap:butt;stroke-linejoin:round;stroke-miterlimit:10;stroke-dasharray:none"
               id="path4636" /></g><g
             id="g4638" /><g
             id="g4640"><text
               transform="matrix(1,0,0,-1,41.78,116.78)"
               id="text4642"><tspan
                 style="fill:#000000;fill-opacity:1;fill-rule:nonzero;stroke:none;font-family:Helvetica;font-variant:normal;font-weight:normal;font-size:10;writing-mode:lr;-inkscape-font-specification:Helvetica"
                 x="0 5.84"
                 y="0"
                 sodipodi:role="line"
                 id="tspan4644">−4</tspan></text>
<text
               transform="matrix(1,0,0,-1,154.75,116.78)"
               id="text4646"><tspan
                 style="fill:#000000;fill-opacity:1;fill-rule:nonzero;stroke:none;font-family:Helvetica;font-variant:normal;font-weight:normal;font-size:10;writing-mode:lr;-inkscape-font-specification:Helvetica"
                 x="0 5.84"
                 y="0"
                 sodipodi:role="line"
                 id="tspan4648">−2</tspan></text>
<text
               transform="matrix(1,0,0,-1,270.64,116.78)"
               id="text4650"><tspan
                 style="fill:#000000;fill-opacity:1;fill-rule:nonzero;stroke:none;font-family:Helvetica;font-variant:normal;font-weight:normal;font-size:10;writing-mode:lr;-inkscape-font-specification:Helvetica"
                 x="0"
                 y="0"
                 id="tspan4652">0</tspan></text>
<text
               transform="matrix(1,0,0,-1,383.6,116.78)"
               id="text4654"><tspan
                 style="fill:#000000;fill-opacity:1;fill-rule:nonzero;stroke:none;font-family:Helvetica;font-variant:normal;font-weight:normal;font-size:10;writing-mode:lr;-inkscape-font-specification:Helvetica"
                 x="0"
                 y="0"
                 id="tspan4656">2</tspan></text>
</g><g
             id="g4658" /><g
             id="g4660" /><g
             id="g4662" /><g
             id="g4664" /><g
             id="g4666"><text
               transform="matrix(1,0,0,-1,230.22,104.56)"
               id="text4668"><tspan
                 style="fill:#000000;fill-opacity:1;fill-rule:nonzero;stroke:none;font-family:Helvetica;font-variant:normal;font-weight:normal;font-size:12;writing-mode:lr;-inkscape-font-specification:Helvetica"
                 x="0 8.664 11.328 21.324 24.66 27.996"
                 y="0"
                 sodipodi:role="line"
                 id="tspan4670">Dim. 1</tspan></text>
</g><g
             id="g4672" /><g
             id="g4674"><text
               transform="matrix(0,1,1,0,19.42,219.48)"
               id="text4676"><tspan
                 style="fill:#000000;fill-opacity:1;fill-rule:nonzero;stroke:none;font-family:Helvetica;font-variant:normal;font-weight:normal;font-size:12;writing-mode:lr;-inkscape-font-specification:Helvetica"
                 x="0 8.664 11.328 21.324 24.66 27.996"
                 y="0"
                 sodipodi:role="line"
                 id="tspan4678">Dim. 2</tspan></text>
</g><g
             id="g4680" /><g
             id="g4682"><text
               transform="matrix(1,0,0,-1,182.4,346.19)"
               id="text4684"><tspan
                 style="fill:#000000;fill-opacity:1;fill-rule:nonzero;stroke:none;font-family:Helvetica;font-variant:normal;font-weight:normal;font-size:14;writing-mode:lr;-inkscape-font-specification:Helvetica"
                 x="0 7.784 11.676 15.568 19.46 27.244 35.028 38.136 42.028 45.5 53.284 57.946 65.73 73.514 77.406 81.298 85.96 93.744 101.528 105.42 113.204 125.65"
                 y="0"
                 sodipodi:role="line"
                 id="tspan4686">5: Indifferent (14.5%)</tspan></text>
</g><g
             id="g4688" /><g
             id="g4690" /></g></g></g></g></svg>