<?xml version="1.0" encoding="UTF-8" standalone="no"?>
<!-- Created with Inkscape (http://www.inkscape.org/) -->

<svg
   xmlns:dc="http://purl.org/dc/elements/1.1/"
   xmlns:cc="http://creativecommons.org/ns#"
   xmlns:rdf="http://www.w3.org/1999/02/22-rdf-syntax-ns#"
   xmlns:svg="http://www.w3.org/2000/svg"
   xmlns="http://www.w3.org/2000/svg"
   xmlns:sodipodi="http://sodipodi.sourceforge.net/DTD/sodipodi-0.dtd"
   xmlns:inkscape="http://www.inkscape.org/namespaces/inkscape"
   id="svg2"
   version="1.1"
   inkscape:version="0.91 r13725"
   xml:space="preserve"
   width="577.5"
   height="333.75"
   viewBox="0 0 577.5 333.75"
   sodipodi:docname="Paper-biplots-2-edit2.svg"><metadata
     id="metadata8"><rdf:RDF><cc:Work
         rdf:about=""><dc:format>image/svg+xml</dc:format><dc:type
           rdf:resource="http://purl.org/dc/dcmitype/StillImage" /><dc:title></dc:title></cc:Work></rdf:RDF></metadata><defs
     id="defs6"><clipPath
       clipPathUnits="userSpaceOnUse"
       id="clipPath18"><path
         d="M 0,0 468,0 468,468 0,468 0,0 Z"
         id="path20"
         inkscape:connector-curvature="0" /></clipPath><clipPath
       clipPathUnits="userSpaceOnUse"
       id="clipPath48"><path
         d="m 0,96.89 468,0 0,274.23 -468,0 0,-274.23 z"
         id="path50"
         inkscape:connector-curvature="0" /></clipPath><clipPath
       clipPathUnits="userSpaceOnUse"
       id="clipPath60"><path
         d="m 34.05,127.14 428.47,0 0,219.95 -428.47,0 0,-219.95 z"
         id="path62"
         inkscape:connector-curvature="0" /></clipPath></defs><sodipodi:namedview
     pagecolor="#ffffff"
     bordercolor="#666666"
     borderopacity="1"
     objecttolerance="10"
     gridtolerance="10"
     guidetolerance="10"
     inkscape:pageopacity="0"
     inkscape:pageshadow="2"
     inkscape:window-width="1873"
     inkscape:window-height="1056"
     id="namedview4"
     showgrid="false"
     inkscape:zoom="1.7484822"
     inkscape:cx="531.95787"
     inkscape:cy="104.67934"
     inkscape:window-x="47"
     inkscape:window-y="24"
     inkscape:window-maximized="1"
     inkscape:current-layer="g10" /><g
     id="g10"
     inkscape:groupmode="layer"
     inkscape:label="Paper-biplots-2"
     transform="matrix(1.25,0,0,-1.25,0,333.75)"><g
       id="g12"
       transform="translate(-1,-99)"><g
         id="g14"><g
           id="g16"
           clip-path="url(#clipPath18)"><g
             id="g22" /><g
             id="g24" /><g
             id="g26" /><g
             id="g28" /><g
             id="g30" /><g
             id="g32" /><g
             id="g34" /><g
             id="g36" /><g
             id="g38" /><g
             id="g40" /><g
             id="g42" /><g
             id="g44"><g
               id="g46"
               clip-path="url(#clipPath48)"><path
                 d="m 0,96.89 468,0 0,274.23 -468,0 0,-274.23 z"
                 style="fill:#ffffff;fill-opacity:1;fill-rule:nonzero;stroke:#ffffff;stroke-width:1.07000005;stroke-linecap:round;stroke-linejoin:round;stroke-miterlimit:10;stroke-dasharray:none;stroke-opacity:1"
                 id="path52"
                 inkscape:connector-curvature="0" /></g></g><g
             id="g54" /><g
             id="g56"><g
               id="g58"
               clip-path="url(#clipPath60)"><path
                 d="m 34.05,127.14 428.47,0 0,219.95 -428.47,0 0,-219.95 z"
                 style="fill:#ffffff;fill-opacity:1;fill-rule:nonzero;stroke:none"
                 id="path64"
                 inkscape:connector-curvature="0" /><path
                 d="m 275.18,232.61 99.5,36.54"
                 style="fill:none;stroke:#000000;stroke-width:1.07000005;stroke-linecap:butt;stroke-linejoin:round;stroke-miterlimit:10;stroke-dasharray:none;stroke-opacity:1"
                 id="path66"
                 inkscape:connector-curvature="0" /><path
                 d="m 371.96,265.89 2.72,3.26 -4.19,0.73"
                 style="fill:none;stroke:#000000;stroke-width:1.07000005;stroke-linecap:butt;stroke-linejoin:round;stroke-miterlimit:10;stroke-dasharray:none;stroke-opacity:1"
                 id="path68"
                 inkscape:connector-curvature="0" /><path
                 d="m 275.18,232.61 72.39,-19.75"
                 style="fill:none;stroke:#000000;stroke-width:1.07000005;stroke-linecap:butt;stroke-linejoin:round;stroke-miterlimit:10;stroke-dasharray:none;stroke-opacity:1"
                 id="path70"
                 inkscape:connector-curvature="0" /><path
                 d="m 343.46,211.78 4.11,1.08 -2.99,3.02"
                 style="fill:none;stroke:#000000;stroke-width:1.07000005;stroke-linecap:butt;stroke-linejoin:round;stroke-miterlimit:10;stroke-dasharray:none;stroke-opacity:1"
                 id="path72"
                 inkscape:connector-curvature="0" /><path
                 d="m 275.18,232.61 25.85,-47.25"
                 style="fill:none;stroke:#000000;stroke-width:1.07000005;stroke-linecap:butt;stroke-linejoin:round;stroke-miterlimit:10;stroke-dasharray:none;stroke-opacity:1"
                 id="path74"
                 inkscape:connector-curvature="0" /><path
                 d="m 297.4,187.57 3.63,-2.21 0.1,4.25"
                 style="fill:none;stroke:#000000;stroke-width:1.07000005;stroke-linecap:butt;stroke-linejoin:round;stroke-miterlimit:10;stroke-dasharray:none;stroke-opacity:1"
                 id="path76"
                 inkscape:connector-curvature="0" /><path
                 d="M 275.18,232.61 249.03,180.88"
                 style="fill:none;stroke:#000000;stroke-width:1.07000005;stroke-linecap:butt;stroke-linejoin:round;stroke-miterlimit:10;stroke-dasharray:none;stroke-opacity:1"
                 id="path78"
                 inkscape:connector-curvature="0" /><path
                 d="m 248.79,185.13 0.24,-4.25 3.56,2.33"
                 style="fill:none;stroke:#000000;stroke-width:1.07000005;stroke-linecap:butt;stroke-linejoin:round;stroke-miterlimit:10;stroke-dasharray:none;stroke-opacity:1"
                 id="path80"
                 inkscape:connector-curvature="0" /><path
                 d="M 275.18,232.61 217.62,206.14"
                 style="fill:none;stroke:#000000;stroke-width:1.07000005;stroke-linecap:butt;stroke-linejoin:round;stroke-miterlimit:10;stroke-dasharray:none;stroke-opacity:1"
                 id="path82"
                 inkscape:connector-curvature="0" /><path
                 d="m 220.08,209.61 -2.46,-3.47 4.24,-0.4"
                 style="fill:none;stroke:#000000;stroke-width:1.07000005;stroke-linecap:butt;stroke-linejoin:round;stroke-miterlimit:10;stroke-dasharray:none;stroke-opacity:1"
                 id="path84"
                 inkscape:connector-curvature="0" /><path
                 d="m 275.18,232.61 -90.93,19.9"
                 style="fill:none;stroke:#000000;stroke-width:1.07000005;stroke-linecap:butt;stroke-linejoin:round;stroke-miterlimit:10;stroke-dasharray:none;stroke-opacity:1"
                 id="path86"
                 inkscape:connector-curvature="0" /><path
                 d="m 188.3,253.8 -4.05,-1.29 3.14,-2.87"
                 style="fill:none;stroke:#000000;stroke-width:1.07000005;stroke-linecap:butt;stroke-linejoin:round;stroke-miterlimit:10;stroke-dasharray:none;stroke-opacity:1"
                 id="path88"
                 inkscape:connector-curvature="0" /><path
                 d="m 275.18,232.61 -23.13,88.74"
                 style="fill:none;stroke:#000000;stroke-width:1.07000005;stroke-linecap:butt;stroke-linejoin:round;stroke-miterlimit:10;stroke-dasharray:none;stroke-opacity:1"
                 id="path90"
                 inkscape:connector-curvature="0" /><path
                 d="m 255.04,318.32 -2.99,3.03 -1.13,-4.1"
                 style="fill:none;stroke:#000000;stroke-width:1.07000005;stroke-linecap:butt;stroke-linejoin:round;stroke-miterlimit:10;stroke-dasharray:none;stroke-opacity:1"
                 id="path92"
                 inkscape:connector-curvature="0" /><path
                 d="m 315.94,242.04 c 0,2.25 1.84,4.09 4.09,4.09 2.25,0 4.09,-1.84 4.09,-4.09 0,-2.25 -1.84,-4.09 -4.09,-4.09 -2.25,0 -4.09,1.84 -4.09,4.09"
                 style="fill:#d89000;fill-opacity:1;fill-rule:nonzero;stroke:#000000;stroke-width:0.70999998;stroke-linecap:round;stroke-linejoin:round;stroke-miterlimit:10;stroke-dasharray:none;stroke-opacity:1"
                 id="path94"
                 inkscape:connector-curvature="0" /><path
                 d="m 367.99,224.94 7.25,0 0,7.25 -7.25,0 0,-7.25 z"
                 style="fill:#d89000;fill-opacity:1;fill-rule:nonzero;stroke:#000000;stroke-width:0.70999998;stroke-linecap:round;stroke-linejoin:round;stroke-miterlimit:10;stroke-dasharray:none;stroke-opacity:1"
                 id="path96"
                 inkscape:connector-curvature="0" /><path
                 d="m 323.31,268.91 c 0,2.24 1.84,4.08 4.09,4.08 2.25,0 4.09,-1.84 4.09,-4.08 0,-2.25 -1.84,-4.09 -4.09,-4.09 -2.25,0 -4.09,1.84 -4.09,4.09"
                 style="fill:#ff62bc;fill-opacity:1;fill-rule:nonzero;stroke:#000000;stroke-width:0.70999998;stroke-linecap:round;stroke-linejoin:round;stroke-miterlimit:10;stroke-dasharray:none;stroke-opacity:1"
                 id="path98"
                 inkscape:connector-curvature="0" /><path
                 d="m 304.49,197.87 7.25,0 0,7.25 -7.25,0 0,-7.25 z"
                 style="fill:#ff62bc;fill-opacity:1;fill-rule:nonzero;stroke:#000000;stroke-width:0.70999998;stroke-linecap:round;stroke-linejoin:round;stroke-miterlimit:10;stroke-dasharray:none;stroke-opacity:1"
                 id="path100"
                 inkscape:connector-curvature="0" /><path
                 d="m 307.58,259 5.12,5.13 -5.12,5.12 -5.13,-5.12 5.13,-5.13 z"
                 style="fill:#ff62bc;fill-opacity:1;fill-rule:nonzero;stroke:#000000;stroke-width:0.70999998;stroke-linecap:round;stroke-linejoin:round;stroke-miterlimit:10;stroke-dasharray:none;stroke-opacity:1"
                 id="path102"
                 inkscape:connector-curvature="0" /><path
                 d="m 332.72,279.05 c 0,2.25 1.84,4.09 4.09,4.09 2.24,0 4.08,-1.84 4.08,-4.09 0,-2.25 -1.84,-4.09 -4.08,-4.09 -2.25,0 -4.09,1.84 -4.09,4.09"
                 style="fill:#00bfc4;fill-opacity:1;fill-rule:nonzero;stroke:#000000;stroke-width:0.70999998;stroke-linecap:round;stroke-linejoin:round;stroke-miterlimit:10;stroke-dasharray:none;stroke-opacity:1"
                 id="path104"
                 inkscape:connector-curvature="0" /><path
                 d="m 270.98,269.32 7.25,0 0,7.25 -7.25,0 0,-7.25 z"
                 style="fill:#00bfc4;fill-opacity:1;fill-rule:nonzero;stroke:#000000;stroke-width:0.70999998;stroke-linecap:round;stroke-linejoin:round;stroke-miterlimit:10;stroke-dasharray:none;stroke-opacity:1"
                 id="path106"
                 inkscape:connector-curvature="0" /><path
                 d="m 234.7,234.54 c 0,2.25 1.84,4.09 4.09,4.09 2.25,0 4.09,-1.84 4.09,-4.09 0,-2.25 -1.84,-4.09 -4.09,-4.09 -2.25,0 -4.09,1.84 -4.09,4.09"
                 style="fill:#9590ff;fill-opacity:1;fill-rule:nonzero;stroke:#000000;stroke-width:0.70999998;stroke-linecap:round;stroke-linejoin:round;stroke-miterlimit:10;stroke-dasharray:none;stroke-opacity:1"
                 id="path108"
                 inkscape:connector-curvature="0" /><path
                 d="m 152.93,176.19 7.25,0 0,7.25 -7.25,0 0,-7.25 z"
                 style="fill:#9590ff;fill-opacity:1;fill-rule:nonzero;stroke:#000000;stroke-width:0.70999998;stroke-linecap:round;stroke-linejoin:round;stroke-miterlimit:10;stroke-dasharray:none;stroke-opacity:1"
                 id="path110"
                 inkscape:connector-curvature="0" /><path
                 d="m 257.45,210.09 c 0,2.24 1.84,4.08 4.09,4.08 2.25,0 4.09,-1.84 4.09,-4.08 0,-2.25 -1.84,-4.09 -4.09,-4.09 -2.25,0 -4.09,1.84 -4.09,4.09"
                 style="fill:#39b600;fill-opacity:1;fill-rule:nonzero;stroke:#000000;stroke-width:0.70999998;stroke-linecap:round;stroke-linejoin:round;stroke-miterlimit:10;stroke-dasharray:none;stroke-opacity:1"
                 id="path112"
                 inkscape:connector-curvature="0" /><path
                 d="m 273.58,243.06 7.25,0 0,7.25 -7.25,0 0,-7.25 z"
                 style="fill:#39b600;fill-opacity:1;fill-rule:nonzero;stroke:#000000;stroke-width:0.70999998;stroke-linecap:round;stroke-linejoin:round;stroke-miterlimit:10;stroke-dasharray:none;stroke-opacity:1"
                 id="path114"
                 inkscape:connector-curvature="0" /><path
                 d="m 279.22,194.39 c 0,2.25 1.84,4.09 4.09,4.09 2.25,0 4.09,-1.84 4.09,-4.09 0,-2.25 -1.84,-4.09 -4.09,-4.09 -2.25,0 -4.09,1.84 -4.09,4.09"
                 style="fill:#f8766d;fill-opacity:1;fill-rule:nonzero;stroke:#000000;stroke-width:0.70999998;stroke-linecap:round;stroke-linejoin:round;stroke-miterlimit:10;stroke-dasharray:none;stroke-opacity:1"
                 id="path116"
                 inkscape:connector-curvature="0" /><path
                 d="m 297.34,171.11 7.25,0 0,7.25 -7.25,0 0,-7.25 z"
                 style="fill:#f8766d;fill-opacity:1;fill-rule:nonzero;stroke:#000000;stroke-width:0.70999998;stroke-linecap:round;stroke-linejoin:round;stroke-miterlimit:10;stroke-dasharray:none;stroke-opacity:1"
                 id="path118"
                 inkscape:connector-curvature="0" /><path
                 d="m 157.72,212.43 c 0,2.25 1.84,4.09 4.09,4.09 2.25,0 4.09,-1.84 4.09,-4.09 0,-2.25 -1.84,-4.09 -4.09,-4.09 -2.25,0 -4.09,1.84 -4.09,4.09"
                 style="fill:#00bf7d;fill-opacity:1;fill-rule:nonzero;stroke:#000000;stroke-width:0.70999998;stroke-linecap:round;stroke-linejoin:round;stroke-miterlimit:10;stroke-dasharray:none;stroke-opacity:1"
                 id="path120"
                 inkscape:connector-curvature="0" /><path
                 d="m 260.04,202.2 7.25,0 0,7.25 -7.25,0 0,-7.25 z"
                 style="fill:#00bf7d;fill-opacity:1;fill-rule:nonzero;stroke:#000000;stroke-width:0.70999998;stroke-linecap:round;stroke-linejoin:round;stroke-miterlimit:10;stroke-dasharray:none;stroke-opacity:1"
                 id="path122"
                 inkscape:connector-curvature="0" /><path
                 d="m 290.53,256.39 c 0,2.25 1.84,4.09 4.09,4.09 2.25,0 4.09,-1.84 4.09,-4.09 0,-2.25 -1.84,-4.09 -4.09,-4.09 -2.25,0 -4.09,1.84 -4.09,4.09"
                 style="fill:#00b0f6;fill-opacity:1;fill-rule:nonzero;stroke:#000000;stroke-width:0.70999998;stroke-linecap:round;stroke-linejoin:round;stroke-miterlimit:10;stroke-dasharray:none;stroke-opacity:1"
                 id="path124"
                 inkscape:connector-curvature="0" /><path
                 d="m 295.98,240.46 7.25,0 0,7.25 -7.25,0 0,-7.25 z"
                 style="fill:#00b0f6;fill-opacity:1;fill-rule:nonzero;stroke:#000000;stroke-width:0.70999998;stroke-linecap:round;stroke-linejoin:round;stroke-miterlimit:10;stroke-dasharray:none;stroke-opacity:1"
                 id="path126"
                 inkscape:connector-curvature="0" /><path
                 d="m 258.82,241.69 c 0,2.25 1.84,4.09 4.08,4.09 2.25,0 4.09,-1.84 4.09,-4.09 0,-2.25 -1.84,-4.09 -4.09,-4.09 -2.24,0 -4.08,1.84 -4.08,4.09"
                 style="fill:#a3a500;fill-opacity:1;fill-rule:nonzero;stroke:#000000;stroke-width:0.70999998;stroke-linecap:round;stroke-linejoin:round;stroke-miterlimit:10;stroke-dasharray:none;stroke-opacity:1"
                 id="path128"
                 inkscape:connector-curvature="0" /><path
                 d="m 290.87,217.72 7.25,0 0,7.25 -7.25,0 0,-7.25 z"
                 style="fill:#a3a500;fill-opacity:1;fill-rule:nonzero;stroke:#000000;stroke-width:0.70999998;stroke-linecap:round;stroke-linejoin:round;stroke-miterlimit:10;stroke-dasharray:none;stroke-opacity:1"
                 id="path130"
                 inkscape:connector-curvature="0" /><path
                 d="m 247.85,268.33 c 0,2.25 1.84,4.09 4.09,4.09 2.24,0 4.08,-1.84 4.08,-4.09 0,-2.25 -1.84,-4.09 -4.08,-4.09 -2.25,0 -4.09,1.84 -4.09,4.09"
                 style="fill:#e76bf3;fill-opacity:1;fill-rule:nonzero;stroke:#000000;stroke-width:0.70999998;stroke-linecap:round;stroke-linejoin:round;stroke-miterlimit:10;stroke-dasharray:none;stroke-opacity:1"
                 id="path132"
                 inkscape:connector-curvature="0" /><path
                 d="m 181.54,233.66 7.25,0 0,7.25 -7.25,0 0,-7.25 z"
                 style="fill:#e76bf3;fill-opacity:1;fill-rule:nonzero;stroke:#000000;stroke-width:0.70999998;stroke-linecap:round;stroke-linejoin:round;stroke-miterlimit:10;stroke-dasharray:none;stroke-opacity:1"
                 id="path134"
                 inkscape:connector-curvature="0" /><text
                 transform="matrix(1,0,0,-1,309.64,226.24)"
                 style="font-variant:normal;font-weight:normal;font-size:11px;font-family:Helvetica;-inkscape-font-specification:Helvetica;writing-mode:lr-tb;fill:#000000;fill-opacity:1;fill-rule:nonzero;stroke:none"
                 id="text136"><tspan
                   x="0 7.3369999 14.674"
                   y="0"
                   sodipodi:role="line"
                   id="tspan138">BE1</tspan></text>
<text
                 transform="matrix(1,0,0,-1,361.22,212.77)"
                 style="font-variant:normal;font-weight:normal;font-size:11px;font-family:Helvetica;-inkscape-font-specification:Helvetica;writing-mode:lr-tb;fill:#000000;fill-opacity:1;fill-rule:nonzero;stroke:none"
                 id="text140"><tspan
                   x="0 7.3369999 14.674"
                   y="0"
                   sodipodi:role="line"
                   id="tspan142">BE2</tspan></text>
<text
                 transform="scale(1,-1)"
                 style="font-variant:normal;font-weight:normal;font-size:11px;font-family:Helvetica;-inkscape-font-specification:Helvetica;writing-mode:lr-tb;fill:#000000;fill-opacity:1;fill-rule:nonzero;stroke:none"
                 id="text144"
                 x="314.79999"
                 y="-254.71001"><tspan
                   x="314.79999 322.742 330.68399"
                   y="-254.71001"
                   sodipodi:role="line"
                   id="tspan146">UN1</tspan></text>
<text
                 transform="scale(1,-1)"
                 style="font-variant:normal;font-weight:normal;font-size:11px;font-family:Helvetica;-inkscape-font-specification:Helvetica;writing-mode:lr-tb;fill:#000000;fill-opacity:1;fill-rule:nonzero;stroke:none"
                 id="text148"
                 x="313.11005"
                 y="-195.30003"><tspan
                   x="313.11005 321.05206 328.99405"
                   y="-195.30003"
                   sodipodi:role="line"
                   id="tspan150">UN2</tspan></text>
<text
                 transform="scale(1,-1)"
                 style="font-variant:normal;font-weight:normal;font-size:11px;font-family:Helvetica;-inkscape-font-specification:Helvetica;writing-mode:lr-tb;fill:#000000;fill-opacity:1;fill-rule:nonzero;stroke:none"
                 id="text152"
                 x="288.57996"
                 y="-272.33008"><tspan
                   x="288.57996 296.52197 304.46396"
                   y="-272.33008"
                   sodipodi:role="line"
                   id="tspan154">UN3</tspan></text>
<text
                 transform="matrix(1,0,0,-1,326.11,286.95)"
                 style="font-variant:normal;font-weight:normal;font-size:11px;font-family:Helvetica;-inkscape-font-specification:Helvetica;writing-mode:lr-tb;fill:#000000;fill-opacity:1;fill-rule:nonzero;stroke:none"
                 id="text156"><tspan
                   x="0 7.3369999 15.279"
                   y="0"
                   sodipodi:role="line"
                   id="tspan158">SD1</tspan></text>
<text
                 transform="scale(1,-1)"
                 style="font-variant:normal;font-weight:normal;font-size:11px;font-family:Helvetica;-inkscape-font-specification:Helvetica;writing-mode:lr-tb;fill:#000000;fill-opacity:1;fill-rule:nonzero;stroke:none"
                 id="text160"
                 x="265.51001"
                 y="-281.14008"><tspan
                   x="265.51001 272.84702 280.789"
                   y="-281.14008"
                   sodipodi:role="line"
                   id="tspan162">SD2</tspan></text>
<text
                 transform="matrix(1,0,0,-1,146.46,164.02)"
                 style="font-variant:normal;font-weight:normal;font-size:11px;font-family:Helvetica;-inkscape-font-specification:Helvetica;writing-mode:lr-tb;fill:#000000;fill-opacity:1;fill-rule:nonzero;stroke:none"
                 id="text164"><tspan
                   x="0 7.3369999 14.058"
                   y="0"
                   sodipodi:role="line"
                   id="tspan166">ST2</tspan></text>
<text
                 transform="matrix(1,0,0,-1,290.43,158.94)"
                 style="font-variant:normal;font-weight:normal;font-size:11px;font-family:Helvetica;-inkscape-font-specification:Helvetica;writing-mode:lr-tb;fill:#000000;fill-opacity:1;fill-rule:nonzero;stroke:none"
                 id="text168"><tspan
                   x="0 7.007 14.949"
                   y="0"
                   sodipodi:role="line"
                   id="tspan170">AC2</tspan></text>
<text
                 transform="matrix(1,0,0,-1,150.81,196.63)"
                 style="font-variant:normal;font-weight:normal;font-size:11px;font-family:Helvetica;-inkscape-font-specification:Helvetica;writing-mode:lr-tb;fill:#000000;fill-opacity:1;fill-rule:nonzero;stroke:none"
                 id="text172"><tspan
                   x="0 7.3369999 15.895"
                   y="0"
                   sodipodi:role="line"
                   id="tspan174">PO1</tspan></text>
<text
                 transform="matrix(1,0,0,-1,241.55,252.53)"
                 style="font-variant:normal;font-weight:normal;font-size:11px;font-family:Helvetica;-inkscape-font-specification:Helvetica;writing-mode:lr-tb;fill:#000000;fill-opacity:1;fill-rule:nonzero;stroke:none"
                 id="text176"><tspan
                   x="0 6.7210002 14.663"
                   y="0"
                   sodipodi:role="line"
                   id="tspan178">TR1</tspan></text>
<text
                 transform="matrix(1,0,0,-1,174.77,221.49)"
                 style="font-variant:normal;font-weight:normal;font-size:11px;font-family:Helvetica;-inkscape-font-specification:Helvetica;writing-mode:lr-tb;fill:#000000;fill-opacity:1;fill-rule:nonzero;stroke:none"
                 id="text180"><tspan
                   x="0 6.7210002 14.663"
                   y="0"
                   sodipodi:role="line"
                   id="tspan182">TR2</tspan></text>
<text
                 transform="scale(1,-1)"
                 style="font-variant:normal;font-weight:normal;font-size:9px;font-family:Helvetica;-inkscape-font-specification:Helvetica;writing-mode:lr-tb;fill:#000000;fill-opacity:1;fill-rule:nonzero;stroke:none"
                 id="text184"
                 x="343.50003"
                 y="-275.60999"><tspan
                   x="343.50003 348.78305 353.78705 357.05405 361.55405 364.05603 371.46304 376.46704 380.96704 385.97104 388.47305 390.47104 392.46906 396.78903 401.79303 404.29504 411.79205"
                   y="-275.60999"
                   sodipodi:role="line"
                   id="tspan186">Very much like me</tspan></text>
<text
                 transform="matrix(1,0,0,-1,341.31,203.17)"
                 style="font-variant:normal;font-weight:normal;font-size:9px;font-family:Helvetica;-inkscape-font-specification:Helvetica;writing-mode:lr-tb;fill:#000000;fill-opacity:1;fill-rule:nonzero;stroke:none"
                 id="text188"><tspan
                   x="0 5.0040002 7.0019999 11.322 16.326 18.827999 26.325001"
                   y="0"
                   sodipodi:role="line"
                   id="tspan190">Like me</tspan></text>
<text
                 transform="scale(1,-1)"
                 style="font-variant:normal;font-weight:normal;font-size:9px;font-family:Helvetica;-inkscape-font-specification:Helvetica;writing-mode:lr-tb;fill:#000000;fill-opacity:1;fill-rule:nonzero;stroke:none"
                 id="text192"
                 x="306.74008"
                 y="-182.07002"><tspan
                   x="306.74008 312.7431 317.7471 325.24408 330.06808 336.5661 341.5701 346.5741 349.07608 351.57809 353.57608 355.5741 359.8941 364.8981 367.40009 374.89709"
                   y="-182.07002"
                   sodipodi:role="line"
                   id="tspan194">Somewhat like me</tspan></text>
<text
                 transform="matrix(1,0,0,-1,199.23,171.19)"
                 style="font-variant:normal;font-weight:normal;font-size:9px;font-family:Helvetica;-inkscape-font-specification:Helvetica;writing-mode:lr-tb;fill:#000000;fill-opacity:1;fill-rule:nonzero;stroke:none"
                 id="text196"><tspan
                   x="0 6.0029998 8.5050001 10.503 12.501 15.003 17.504999 19.503 24.507 27.009001 29.007 31.004999 35.325001 40.328999 42.831001 50.327999"
                   y="0"
                   sodipodi:role="line"
                   id="tspan198">A little like me</tspan></text>
<text
                 transform="matrix(1,0,0,-1,177.28,196.44)"
                 style="font-variant:normal;font-weight:normal;font-size:9px;font-family:Helvetica;-inkscape-font-specification:Helvetica;writing-mode:lr-tb;fill:#000000;fill-opacity:1;fill-rule:nonzero;stroke:none"
                 id="text200"><tspan
                   x="0 6.4980001 11.502 14.004 16.506001 18.504 20.502001 24.822001 29.826 32.327999 39.825001"
                   y="0"
                   sodipodi:role="line"
                   id="tspan202">Not like me</tspan></text>
<text
                 transform="matrix(1,0,0,-1,151.08,255.74)"
                 style="font-variant:normal;font-weight:normal;font-size:9px;font-family:Helvetica;-inkscape-font-specification:Helvetica;writing-mode:lr-tb;fill:#000000;fill-opacity:1;fill-rule:nonzero;stroke:none"
                 id="text204"><tspan
                   x="0 6.4980001 11.502 14.004 16.506001 18.504 20.502001 24.822001 29.826 32.327999 39.825001 44.828999 47.331001 52.334999 54.837002 57.339001 62.342999 64.341003"
                   y="0"
                   sodipodi:role="line"
                   id="tspan206">Not like me at all</tspan></text>
<text
                 transform="matrix(1,0,0,-1,230.59,324.58)"
                 style="font-variant:normal;font-weight:normal;font-size:9px;font-family:Helvetica;-inkscape-font-specification:Helvetica;writing-mode:lr-tb;fill:#000000;fill-opacity:1;fill-rule:nonzero;stroke:none"
                 id="text208"><tspan
                   x="0 6.4980001 11.502 14.004 19.007999 24.011999 28.511999 34.919998 39.924"
                   y="0"
                   sodipodi:role="line"
                   id="tspan210">No answer</tspan></text>
<path
                 d="m 34.05,127.14 428.47,0 0,219.95 -428.47,0 0,-219.95 z"
                 style="fill:none;stroke:#333333;stroke-width:1.07000005;stroke-linecap:round;stroke-linejoin:round;stroke-miterlimit:10;stroke-dasharray:none;stroke-opacity:1"
                 id="path212"
                 inkscape:connector-curvature="0" /></g></g><g
             id="g214" /><g
             id="g216" /><g
             id="g218" /><g
             id="g220" /><g
             id="g222" /><g
             id="g224" /><g
             id="g226" /><g
             id="g228" /><g
             id="g230" /><g
             id="g232" /><g
             id="g234" /><g
             id="g236" /><g
             id="g238" /><g
             id="g240" /><g
             id="g242" /><g
             id="g244"><text
               transform="matrix(1,0,0,-1,18.86,170.65)"
               style="font-variant:normal;font-weight:normal;font-size:9px;font-family:Helvetica;-inkscape-font-specification:Helvetica;writing-mode:lr-tb;fill:#4d4d4d;fill-opacity:1;fill-rule:nonzero;stroke:none"
               id="text246"><tspan
                 x="0 5.256"
                 y="0"
                 sodipodi:role="line"
                 id="tspan248">−1</tspan></text>
<text
               transform="matrix(1,0,0,-1,24.11,229.38)"
               style="font-variant:normal;font-weight:normal;font-size:9px;font-family:Helvetica;-inkscape-font-specification:Helvetica;writing-mode:lr-tb;fill:#4d4d4d;fill-opacity:1;fill-rule:nonzero;stroke:none"
               id="text250"><tspan
                 x="0"
                 y="0"
                 id="tspan252">0</tspan></text>
<text
               transform="matrix(1,0,0,-1,24.11,288.1)"
               style="font-variant:normal;font-weight:normal;font-size:9px;font-family:Helvetica;-inkscape-font-specification:Helvetica;writing-mode:lr-tb;fill:#4d4d4d;fill-opacity:1;fill-rule:nonzero;stroke:none"
               id="text254"><tspan
                 x="0"
                 y="0"
                 id="tspan256">1</tspan></text>
</g><g
             id="g258" /><g
             id="g260"><path
               d="m 31.31,173.88 2.74,0"
               style="fill:none;stroke:#333333;stroke-width:1.07000005;stroke-linecap:butt;stroke-linejoin:round;stroke-miterlimit:10;stroke-dasharray:none;stroke-opacity:1"
               id="path262"
               inkscape:connector-curvature="0" /><path
               d="m 31.31,232.61 2.74,0"
               style="fill:none;stroke:#333333;stroke-width:1.07000005;stroke-linecap:butt;stroke-linejoin:round;stroke-miterlimit:10;stroke-dasharray:none;stroke-opacity:1"
               id="path264"
               inkscape:connector-curvature="0" /><path
               d="m 31.31,291.33 2.74,0"
               style="fill:none;stroke:#333333;stroke-width:1.07000005;stroke-linecap:butt;stroke-linejoin:round;stroke-miterlimit:10;stroke-dasharray:none;stroke-opacity:1"
               id="path266"
               inkscape:connector-curvature="0" /></g><g
             id="g268" /><g
             id="g270" /><g
             id="g272" /><g
             id="g274" /><g
             id="g276" /><g
             id="g278" /><g
             id="g280" /><g
             id="g282" /><g
             id="g284" /><g
             id="g286"><path
               d="m 40.27,124.4 0,2.74"
               style="fill:none;stroke:#333333;stroke-width:1.07000005;stroke-linecap:butt;stroke-linejoin:round;stroke-miterlimit:10;stroke-dasharray:none;stroke-opacity:1"
               id="path288"
               inkscape:connector-curvature="0" /><path
               d="m 157.72,124.4 0,2.74"
               style="fill:none;stroke:#333333;stroke-width:1.07000005;stroke-linecap:butt;stroke-linejoin:round;stroke-miterlimit:10;stroke-dasharray:none;stroke-opacity:1"
               id="path290"
               inkscape:connector-curvature="0" /><path
               d="m 275.18,124.4 0,2.74"
               style="fill:none;stroke:#333333;stroke-width:1.07000005;stroke-linecap:butt;stroke-linejoin:round;stroke-miterlimit:10;stroke-dasharray:none;stroke-opacity:1"
               id="path292"
               inkscape:connector-curvature="0" /><path
               d="m 392.63,124.4 0,2.74"
               style="fill:none;stroke:#333333;stroke-width:1.07000005;stroke-linecap:butt;stroke-linejoin:round;stroke-miterlimit:10;stroke-dasharray:none;stroke-opacity:1"
               id="path294"
               inkscape:connector-curvature="0" /></g><g
             id="g296" /><g
             id="g298"><text
               transform="matrix(1,0,0,-1,35.14,115.74)"
               style="font-variant:normal;font-weight:normal;font-size:9px;font-family:Helvetica;-inkscape-font-specification:Helvetica;writing-mode:lr-tb;fill:#4d4d4d;fill-opacity:1;fill-rule:nonzero;stroke:none"
               id="text300"><tspan
                 x="0 5.256"
                 y="0"
                 sodipodi:role="line"
                 id="tspan302">−4</tspan></text>
<text
               transform="matrix(1,0,0,-1,152.59,115.74)"
               style="font-variant:normal;font-weight:normal;font-size:9px;font-family:Helvetica;-inkscape-font-specification:Helvetica;writing-mode:lr-tb;fill:#4d4d4d;fill-opacity:1;fill-rule:nonzero;stroke:none"
               id="text304"><tspan
                 x="0 5.256"
                 y="0"
                 sodipodi:role="line"
                 id="tspan306">−2</tspan></text>
<text
               transform="matrix(1,0,0,-1,272.67,115.74)"
               style="font-variant:normal;font-weight:normal;font-size:9px;font-family:Helvetica;-inkscape-font-specification:Helvetica;writing-mode:lr-tb;fill:#4d4d4d;fill-opacity:1;fill-rule:nonzero;stroke:none"
               id="text308"><tspan
                 x="0"
                 y="0"
                 id="tspan310">0</tspan></text>
<text
               transform="matrix(1,0,0,-1,390.13,115.74)"
               style="font-variant:normal;font-weight:normal;font-size:9px;font-family:Helvetica;-inkscape-font-specification:Helvetica;writing-mode:lr-tb;fill:#4d4d4d;fill-opacity:1;fill-rule:nonzero;stroke:none"
               id="text312"><tspan
                 x="0"
                 y="0"
                 id="tspan314">2</tspan></text>
</g><g
             id="g316" /><g
             id="g318" /><g
             id="g320" /><g
             id="g322" /><g
             id="g324" /><g
             id="g326"><text
               transform="matrix(1,0,0,-1,232.39,102.37)"
               style="font-variant:normal;font-weight:normal;font-size:11px;font-family:Helvetica;-inkscape-font-specification:Helvetica;writing-mode:lr-tb;fill:#000000;fill-opacity:1;fill-rule:nonzero;stroke:none"
               id="text328"><tspan
                 x="0 7.9419999 10.384 19.547001 22.605 25.663"
                 y="0"
                 sodipodi:role="line"
                 id="tspan330">Dim. 1</tspan></text>
</g><g
             id="g332" /><g
             id="g334"><text
               transform="matrix(0,1,1,0,13.38,221.22)"
               style="font-variant:normal;font-weight:normal;font-size:11px;font-family:Helvetica;-inkscape-font-specification:Helvetica;writing-mode:lr-tb;fill:#000000;fill-opacity:1;fill-rule:nonzero;stroke:none"
               id="text336"><tspan
                 x="0 7.9419999 10.384 19.547001 22.605 25.663"
                 y="0"
                 sodipodi:role="line"
                 id="tspan338">Dim. 2</tspan></text>
</g><g
             id="g340" /><g
             id="g342" /><g
             id="g344" /><g
             id="g346" /><g
             id="g348" /><g
             id="g350"><text
               transform="matrix(1,0,0,-1,34.05,356.3)"
               style="font-variant:normal;font-weight:normal;font-size:13px;font-family:Helvetica;-inkscape-font-specification:Helvetica;writing-mode:lr-tb;fill:#000000;fill-opacity:1;fill-rule:nonzero;stroke:none"
               id="text352"><tspan
                 x="0 8.6709995 15.899 23.127001 33.956001 41.183998 48.411999 52.026001 55.639999 59.254002 62.868 66.482002 70.810997 78.039001 85.266998 88.880997 96.109001 107.666"
                 y="0"
                 sodipodi:role="line"
                 id="tspan354">Segment II (18.6%)</tspan></text>
</g><g
             id="g356" /><g
             id="g358" /><g
             id="g360" /><g
             id="g362" /></g></g></g></g></svg>